<svg width="220" height="220" viewBox="0 0 220 220" fill="none" xmlns="http://www.w3.org/2000/svg">
<path d="M131.415 91.652C100.993 83.0456 89.6147 17.1028 45.1747 52.602C13.6399 77.7832 33.6819 140.153 73.4799 133.32C97.5743 129.171 93.8475 128.682 114.4 140.712C135.243 152.896 158.118 159.135 180.061 138.103C191.413 127.217 195.65 100.465 184.382 86.4908C170.315 68.9876 150 96.91 131.415 91.652Z" fill="#90CAF9"/>
<path opacity="0.9" d="M131.415 91.652C100.993 83.0456 89.6147 17.1028 45.1747 52.602C13.6399 77.7832 33.6819 140.153 73.4799 133.32C97.5743 129.171 93.8475 128.682 114.4 140.712C135.243 152.896 158.118 159.135 180.061 138.103C191.413 127.217 195.65 100.465 184.382 86.4908C170.315 68.9876 150 96.91 131.415 91.652Z" fill="white"/>
<path d="M110 188.126C157.116 188.126 195.312 185.896 195.312 183.146C195.312 180.395 157.116 178.165 110 178.165C62.8838 178.165 24.6885 180.395 24.6885 183.146C24.6885 185.896 62.8838 188.126 110 188.126Z" fill="#F5F5F5"/>
<path d="M46.3848 172.11C46.3848 172.11 45.76 167.64 42.9132 167.143C40.0664 166.646 40.9112 164.503 40.1676 163.649C39.424 162.796 37.4704 165.286 39.1424 167.68C40.8144 170.073 39.446 169.321 40.1676 171.547C40.8892 173.774 46.64 175.82 46.3848 172.11Z" fill="#263238"/>
<path opacity="0.2" d="M46.3848 172.11C46.3848 172.11 45.76 167.64 42.9132 167.143C40.0664 166.646 40.9112 164.503 40.1676 163.649C39.424 162.796 37.4704 165.286 39.1424 167.68C40.8144 170.073 39.446 169.321 40.1676 171.547C40.8892 173.774 46.64 175.82 46.3848 172.11Z" fill="white"/>
<path d="M46.2661 175.212C46.2287 175.213 46.1919 175.203 46.16 175.183C46.128 175.164 46.1023 175.136 46.0857 175.102C46.0857 175.054 43.8857 170.399 45.0253 162.985C45.3956 160.861 45.9855 158.782 46.7853 156.781C48.1669 153.006 49.2625 150.022 46.7589 144.575C45.9669 142.85 45.1617 141.244 44.3785 139.691C41.4393 133.857 39.0985 129.25 40.8585 124.586C40.8673 124.561 40.8809 124.539 40.8986 124.519C40.9162 124.5 40.9376 124.484 40.9613 124.473C40.985 124.462 41.0107 124.456 41.0369 124.455C41.063 124.454 41.0891 124.458 41.1137 124.467C41.1627 124.486 41.2025 124.523 41.2247 124.571C41.2469 124.618 41.2497 124.673 41.2325 124.722C39.5649 129.228 41.8529 133.764 44.7525 139.511C45.5357 141.068 46.3497 142.679 47.1417 144.408C49.7157 150.005 48.5365 153.208 47.1769 156.917C46.3865 158.893 45.8054 160.945 45.4433 163.042C44.3125 170.333 46.4465 174.887 46.4685 174.922C46.4897 174.97 46.4915 175.024 46.4734 175.074C46.4553 175.123 46.4189 175.163 46.3717 175.186C46.3398 175.205 46.3031 175.214 46.2661 175.212Z" fill="#263238"/>
<path d="M44.6115 174.121C44.6115 174.121 42.7635 171.332 45.4343 169.897C48.1051 168.463 48.6375 169.62 50.2743 168.577C51.9111 167.534 53.1783 165.057 53.4599 166.646C53.7415 168.234 51.8319 169.154 52.5095 169.884C53.1871 170.614 48.0347 175.38 44.6115 174.121Z" fill="#263238"/>
<path d="M40.2467 126.98C40.2467 126.98 38.4427 121.502 42.5435 121.387C46.6443 121.273 42.1255 126.399 40.2467 126.98Z" fill="#263238"/>
<path d="M43.8108 131.195C43.8108 131.195 45.0296 126.214 47.9424 127.261C50.8552 128.308 46.7104 131.287 43.8108 131.195Z" fill="#263238"/>
<path d="M38.8696 131.626C38.8696 131.626 39.3096 127.666 36.2296 127.569C33.1496 127.472 34.5092 130.984 38.8696 131.626Z" fill="#263238"/>
<path d="M40.9201 139.735C40.9201 139.735 36.7753 136.044 35.2881 138.794C33.8009 141.544 38.4165 142.12 40.9201 139.735Z" fill="#263238"/>
<path d="M48.2593 139.08C48.2593 139.08 49.0381 132.946 52.3865 134.869C55.7349 136.792 51.1765 139.696 48.2593 139.08Z" fill="#263238"/>
<path d="M51.2071 147.866C51.2071 147.866 48.7343 141.667 53.3279 142.366C57.9215 143.066 54.4455 146.362 51.2071 147.866Z" fill="#263238"/>
<path d="M44.1584 150.08C44.1584 150.08 40.2776 145.512 37.3164 146.96C34.3552 148.408 36.7752 152.953 44.1584 150.08Z" fill="#263238"/>
<path d="M47.6785 160.204C47.6785 160.204 50.9829 152.865 53.9221 155.338C56.8613 157.81 52.0477 161.511 47.6785 160.204Z" fill="#263238"/>
<path d="M42.878 159.773C42.878 159.773 43.758 154.084 40.48 154.541C37.202 154.999 38.0644 158.479 42.878 159.773Z" fill="#263238"/>
<g opacity="0.2">
<path d="M40.2467 126.98C40.2467 126.98 38.4427 121.502 42.5435 121.387C46.6443 121.273 42.1255 126.399 40.2467 126.98Z" fill="white"/>
<path d="M43.8108 131.195C43.8108 131.195 45.0296 126.214 47.9424 127.261C50.8552 128.308 46.7104 131.287 43.8108 131.195Z" fill="white"/>
<path d="M38.8696 131.626C38.8696 131.626 39.3096 127.666 36.2296 127.569C33.1496 127.472 34.5092 130.984 38.8696 131.626Z" fill="white"/>
<path d="M40.9201 139.735C40.9201 139.735 36.7753 136.044 35.2881 138.794C33.8009 141.544 38.4165 142.12 40.9201 139.735Z" fill="white"/>
<path d="M48.2593 139.08C48.2593 139.08 49.0381 132.946 52.3865 134.869C55.7349 136.792 51.1765 139.696 48.2593 139.08Z" fill="white"/>
<path d="M51.2071 147.866C51.2071 147.866 48.7343 141.667 53.3279 142.366C57.9215 143.066 54.4455 146.362 51.2071 147.866Z" fill="white"/>
<path d="M44.1584 150.08C44.1584 150.08 40.2776 145.512 37.3164 146.96C34.3552 148.408 36.7752 152.953 44.1584 150.08Z" fill="white"/>
<path d="M47.6785 160.204C47.6785 160.204 50.9829 152.865 53.9221 155.338C56.8613 157.81 52.0477 161.511 47.6785 160.204Z" fill="white"/>
<path d="M42.878 159.773C42.878 159.773 43.758 154.084 40.48 154.541C37.202 154.999 38.0644 158.479 42.878 159.773Z" fill="white"/>
</g>
<path d="M42.0202 134.495C41.9862 134.494 41.9529 134.485 41.9234 134.468C39.499 133.109 37.7522 130.544 37.6774 130.434C37.6488 130.389 37.6387 130.335 37.6494 130.283C37.6601 130.232 37.6907 130.186 37.7346 130.156C37.7561 130.142 37.7803 130.132 37.8058 130.127C37.8314 130.122 37.8576 130.122 37.8831 130.127C37.9086 130.132 37.9327 130.143 37.954 130.158C37.9754 130.173 37.9935 130.192 38.0074 130.214C38.0074 130.236 39.6882 132.682 41.941 134.02C42.315 133.333 43.6482 130.966 44.7614 130.297C44.7838 130.284 44.8088 130.275 44.8347 130.271C44.8607 130.267 44.8871 130.269 44.9125 130.275C44.9378 130.282 44.9617 130.293 44.9825 130.309C45.0034 130.325 45.021 130.345 45.0342 130.368C45.0481 130.39 45.0574 130.414 45.0615 130.44C45.0655 130.466 45.0641 130.492 45.0575 130.517C45.0509 130.542 45.0392 130.566 45.023 130.586C45.0069 130.607 44.9867 130.624 44.9638 130.636C43.7802 131.349 42.2138 134.354 42.1962 134.385C42.1845 134.409 42.1679 134.43 42.1474 134.448C42.1269 134.465 42.1031 134.478 42.0774 134.486L42.0202 134.495Z" fill="#263238"/>
<path d="M45.782 142.12C45.7378 142.12 45.6946 142.106 45.6588 142.08C42.2092 139.471 37.796 139.581 37.7388 139.581C37.6865 139.58 37.6364 139.56 37.5982 139.524C37.56 139.488 37.5364 139.44 37.532 139.388C37.5314 139.362 37.536 139.336 37.5454 139.311C37.5548 139.287 37.5689 139.265 37.5869 139.246C37.6049 139.227 37.6264 139.212 37.6502 139.202C37.674 139.191 37.6996 139.186 37.7256 139.185C37.7696 139.185 42.174 139.071 45.7116 141.636C46.1516 140.897 47.9468 138.226 50.2216 136.888C50.244 136.874 50.2689 136.865 50.295 136.861C50.3211 136.857 50.3477 136.858 50.3732 136.865C50.3988 136.871 50.4227 136.883 50.4435 136.899C50.4644 136.915 50.4817 136.936 50.4944 136.959C50.5084 136.981 50.5177 137.005 50.5217 137.031C50.5258 137.057 50.5244 137.083 50.5178 137.108C50.5112 137.134 50.4995 137.157 50.4833 137.178C50.4672 137.198 50.447 137.215 50.424 137.227C47.916 138.706 45.958 141.992 45.936 142.023C45.9227 142.048 45.9038 142.069 45.8809 142.085C45.858 142.101 45.8317 142.111 45.804 142.116L45.782 142.12Z" fill="#263238"/>
<path d="M48.1711 152.17C48.1372 152.169 48.1039 152.16 48.0743 152.143C48.0215 152.112 42.9791 149.213 39.3315 149.142C39.3055 149.142 39.2798 149.137 39.2558 149.127C39.2317 149.117 39.2099 149.103 39.1915 149.084C39.1731 149.066 39.1586 149.044 39.1486 149.02C39.1387 148.996 39.1335 148.97 39.1335 148.944C39.1335 148.918 39.1387 148.893 39.1486 148.869C39.1586 148.845 39.1731 148.823 39.1915 148.804C39.2099 148.786 39.2317 148.771 39.2558 148.761C39.2798 148.752 39.3055 148.746 39.3315 148.746C42.8075 148.812 47.3351 151.276 48.1315 151.73C50.4723 149.758 52.3291 144.91 52.3511 144.861C52.3594 144.836 52.3728 144.812 52.3905 144.792C52.4082 144.772 52.4298 144.755 52.454 144.744C52.4782 144.732 52.5045 144.726 52.5313 144.725C52.5581 144.723 52.5849 144.728 52.6099 144.737C52.635 144.747 52.6579 144.761 52.6772 144.78C52.6964 144.799 52.7117 144.821 52.7221 144.846C52.7324 144.871 52.7377 144.897 52.7374 144.924C52.7372 144.951 52.7315 144.977 52.7207 145.002C52.6415 145.209 50.7495 150.141 48.2767 152.126C48.2469 152.151 48.21 152.166 48.1711 152.17Z" fill="#263238"/>
<path d="M45.254 162.576C45.2186 162.576 45.1837 162.567 45.1528 162.549C43.2476 161.458 40.7836 156.68 40.678 156.477C40.6662 156.454 40.6591 156.428 40.6571 156.402C40.6551 156.376 40.6583 156.35 40.6664 156.325C40.6746 156.3 40.6876 156.277 40.7047 156.257C40.7218 156.237 40.7426 156.221 40.766 156.209C40.7894 156.197 40.8149 156.19 40.8411 156.188C40.8672 156.186 40.8935 156.189 40.9184 156.197C40.9434 156.205 40.9664 156.218 40.9863 156.235C41.0062 156.253 41.0226 156.273 41.0344 156.297C41.0344 156.345 43.4148 160.912 45.2056 162.109C46.6645 160.408 48.5932 159.176 50.7496 158.567C50.8004 158.553 50.8545 158.56 50.9004 158.586C50.9464 158.611 50.9807 158.653 50.996 158.704C51.0111 158.754 51.0057 158.808 50.9809 158.854C50.9562 158.9 50.9141 158.935 50.864 158.95C48.7317 159.543 46.8302 160.771 45.4124 162.47C45.3981 162.5 45.3758 162.526 45.3479 162.545C45.32 162.563 45.2875 162.574 45.254 162.576Z" fill="#263238"/>
<path d="M44.8801 173.457C44.8801 173.457 43.2917 170.931 41.5009 170.57C39.7101 170.21 38.9533 168.146 38.2801 169.4C37.6069 170.654 39.4549 174.746 44.8801 173.457Z" fill="#263238"/>
<path d="M36.6609 183.37H53.9881L55.1497 172.682H35.5037L36.6609 183.37Z" fill="#90CAF9"/>
<path d="M35.0987 174.706H55.5543L55.8139 172.445H34.8347L35.0987 174.706Z" fill="#90CAF9"/>
<path opacity="0.3" d="M35.0987 174.706H55.5543L55.8139 172.445H34.8347L35.0987 174.706Z" fill="white"/>
<path d="M188.716 67.7864L187.211 82.2404H179.678L178.174 67.7864H188.716Z" fill="#263238"/>
<path opacity="0.3" d="M188.716 67.7864L187.211 82.2404H179.678L178.174 67.7864H188.716Z" fill="white"/>
<path d="M184.844 79.134H182.041V183.37H184.844V79.134Z" fill="#263238"/>
<path opacity="0.3" d="M184.844 79.134H182.041V183.37H184.844V79.134Z" fill="white"/>
<path d="M186.419 81.3604H180.47L179.15 68.6664H187.739L186.419 81.3604Z" fill="#90CAF9"/>
<path opacity="0.4" d="M186.419 81.3604H180.47L179.15 68.6664H187.739L186.419 81.3604Z" fill="white"/>
<path d="M182.662 81.5584H182.257L181.817 68.2264H182.222L182.662 81.5584Z" fill="#263238"/>
<path opacity="0.3" d="M182.662 81.5584H182.257L181.817 68.2264H182.222L182.662 81.5584Z" fill="white"/>
<path opacity="0.2" d="M188.716 67.7864L187.211 82.2404H182.477L181.909 67.7864H188.716Z" fill="white"/>
<path d="M183.445 63.14C183.445 63.14 178.974 67.54 175.551 67.54L176.616 68.2396H190.256L191.316 67.54C187.911 67.5488 183.445 63.14 183.445 63.14Z" fill="#263238"/>
<path opacity="0.4" d="M191.334 67.5488L190.274 68.244H176.634L175.56 67.5488C178.983 67.5488 183.449 63.1488 183.449 63.1488C183.449 63.1488 187.911 67.5488 191.334 67.5488Z" fill="white"/>
<path opacity="0.2" d="M191.334 67.5488L190.274 68.244H181.403C181.135 67.804 180.963 67.4916 180.963 67.4916C183.344 66.3872 183.463 63.14 183.463 63.14C183.463 63.14 187.911 67.5488 191.334 67.5488Z" fill="white"/>
<path d="M181.038 181.443H185.852C186.14 181.443 186.416 181.557 186.62 181.761C186.824 181.965 186.938 182.241 186.938 182.53V183.37H179.96V182.53C179.96 182.243 180.073 181.968 180.275 181.764C180.477 181.561 180.751 181.445 181.038 181.443Z" fill="#263238"/>
<path opacity="0.5" d="M181.038 181.443H185.852C186.14 181.443 186.416 181.557 186.62 181.761C186.824 181.965 186.938 182.241 186.938 182.53V183.37H179.96V182.53C179.96 182.243 180.073 181.968 180.275 181.764C180.477 181.561 180.751 181.445 181.038 181.443Z" fill="white"/>
<path d="M105.605 51.7176H48.1493C46.2466 51.7176 44.7041 53.2601 44.7041 55.1628V135.648C44.7041 137.55 46.2466 139.093 48.1493 139.093H105.605C107.507 139.093 109.05 137.55 109.05 135.648V55.1628C109.05 53.2601 107.507 51.7176 105.605 51.7176Z" fill="#90CAF9"/>
<path opacity="0.6" d="M105.605 51.7176H48.1493C46.2466 51.7176 44.7041 53.2601 44.7041 55.1628V135.648C44.7041 137.55 46.2466 139.093 48.1493 139.093H105.605C107.507 139.093 109.05 137.55 109.05 135.648V55.1628C109.05 53.2601 107.507 51.7176 105.605 51.7176Z" fill="white"/>
<path d="M85.5186 75.1476C85.5194 76.8569 85.0133 78.5281 84.0643 79.9498C83.1153 81.3715 81.766 82.4798 80.187 83.1345C78.608 83.7892 76.8704 83.961 75.1938 83.6281C73.5172 83.2951 71.977 82.4724 70.768 81.2641C69.559 80.0557 68.7355 78.5159 68.4017 76.8395C68.0679 75.1631 68.2388 73.4253 68.8927 71.846C69.5467 70.2667 70.6543 68.9168 72.0755 67.9671C73.4967 67.0173 75.1676 66.5104 76.877 66.5104C78.0117 66.5092 79.1356 66.7318 80.1843 67.1654C81.233 67.599 82.1859 68.2351 82.9885 69.0373C83.7911 69.8395 84.4277 70.7921 84.8618 71.8406C85.296 72.889 85.5191 74.0128 85.5186 75.1476Z" fill="#90CAF9"/>
<path opacity="0.7" d="M85.5186 75.1476C85.5194 76.8569 85.0133 78.5281 84.0643 79.9498C83.1153 81.3715 81.766 82.4798 80.187 83.1345C78.608 83.7892 76.8704 83.961 75.1938 83.6281C73.5172 83.2951 71.977 82.4724 70.768 81.2641C69.559 80.0557 68.7355 78.5159 68.4017 76.8395C68.0679 75.1631 68.2388 73.4253 68.8927 71.846C69.5467 70.2667 70.6543 68.9168 72.0755 67.9671C73.4967 67.0173 75.1676 66.5104 76.877 66.5104C78.0117 66.5092 79.1356 66.7318 80.1843 67.1654C81.233 67.599 82.1859 68.2351 82.9885 69.0373C83.7911 69.8395 84.4277 70.7921 84.8618 71.8406C85.296 72.889 85.5191 74.0128 85.5186 75.1476Z" fill="white"/>
<path d="M76.8769 77.4268C78.5852 77.4268 79.9701 76.0419 79.9701 74.3336C79.9701 72.6253 78.5852 71.2404 76.8769 71.2404C75.1686 71.2404 73.7837 72.6253 73.7837 74.3336C73.7837 76.0419 75.1686 77.4268 76.8769 77.4268Z" fill="white"/>
<path d="M82.3637 81.84C80.8175 83.1088 78.8793 83.8023 76.8791 83.8023C74.879 83.8023 72.9407 83.1088 71.3945 81.84C72.2041 79.4684 73.8717 77.7172 75.8737 77.2728C76.5345 77.1261 77.2194 77.1261 77.8801 77.2728C79.8865 77.704 81.5497 79.4552 82.3637 81.84Z" fill="white"/>
<path d="M73.285 109.099C73.2679 108.955 73.1988 108.843 73.0776 108.764C72.9564 108.684 72.8077 108.644 72.6316 108.644C72.5028 108.644 72.3901 108.665 72.2935 108.707C72.1979 108.749 72.123 108.806 72.0691 108.879C72.016 108.952 71.9895 109.035 71.9895 109.127C71.9895 109.205 72.008 109.272 72.0449 109.328C72.0828 109.383 72.1311 109.429 72.1898 109.465C72.2485 109.501 72.3101 109.531 72.3745 109.555C72.4389 109.578 72.498 109.596 72.552 109.61L72.8475 109.69C72.9232 109.71 73.0075 109.737 73.1003 109.772C73.1941 109.807 73.2836 109.855 73.3688 109.916C73.455 109.975 73.526 110.052 73.5819 110.146C73.6377 110.24 73.6657 110.355 73.6657 110.491C73.6657 110.648 73.6245 110.79 73.5421 110.917C73.4606 111.044 73.3413 111.145 73.1841 111.22C73.0279 111.295 72.838 111.332 72.6145 111.332C72.4062 111.332 72.2258 111.298 72.0733 111.231C71.9218 111.164 71.8025 111.07 71.7154 110.95C71.6292 110.83 71.5804 110.69 71.5691 110.531H71.9327C71.9422 110.641 71.9791 110.732 72.0435 110.804C72.1088 110.875 72.1912 110.928 72.2907 110.963C72.391 110.997 72.499 111.014 72.6145 111.014C72.749 111.014 72.8697 110.992 72.9767 110.948C73.0837 110.904 73.1685 110.842 73.231 110.764C73.2935 110.684 73.3248 110.591 73.3248 110.485C73.3248 110.389 73.2978 110.31 73.2438 110.25C73.1898 110.189 73.1188 110.14 73.0307 110.102C72.9426 110.064 72.8475 110.031 72.7452 110.002L72.3873 109.9C72.16 109.835 71.9801 109.741 71.8475 109.62C71.7149 109.499 71.6486 109.34 71.6486 109.144C71.6486 108.982 71.6926 108.84 71.7807 108.718C71.8697 108.596 71.9891 108.501 72.1387 108.434C72.2892 108.366 72.4573 108.332 72.6429 108.332C72.8304 108.332 72.9971 108.366 73.1429 108.433C73.2888 108.499 73.4043 108.59 73.4895 108.706C73.5757 108.821 73.6212 108.952 73.6259 109.099H73.285ZM74.1994 111.281V109.099H74.5346V111.281H74.1994ZM74.3699 108.735C74.3045 108.735 74.2482 108.713 74.2008 108.669C74.1544 108.624 74.1312 108.571 74.1312 108.508C74.1312 108.446 74.1544 108.392 74.2008 108.348C74.2482 108.303 74.3045 108.281 74.3699 108.281C74.4352 108.281 74.4911 108.303 74.5375 108.348C74.5848 108.392 74.6085 108.446 74.6085 108.508C74.6085 108.571 74.5848 108.624 74.5375 108.669C74.4911 108.713 74.4352 108.735 74.3699 108.735ZM76.0293 112.144C75.8674 112.144 75.7282 112.124 75.6117 112.082C75.4952 112.041 75.3981 111.987 75.3205 111.92C75.2438 111.854 75.1827 111.783 75.1373 111.707L75.4043 111.519C75.4346 111.559 75.473 111.605 75.5194 111.656C75.5658 111.708 75.6292 111.753 75.7097 111.791C75.7911 111.83 75.8977 111.849 76.0293 111.849C76.2054 111.849 76.3508 111.806 76.4654 111.721C76.58 111.636 76.6373 111.502 76.6373 111.321V110.877H76.6088C76.5842 110.917 76.5492 110.966 76.5037 111.025C76.4592 111.083 76.3948 111.134 76.3105 111.18C76.2272 111.224 76.1145 111.247 75.9725 111.247C75.7963 111.247 75.6382 111.205 75.498 111.122C75.3588 111.038 75.2485 110.917 75.1671 110.758C75.0866 110.599 75.0463 110.406 75.0463 110.179C75.0463 109.955 75.0856 109.76 75.1642 109.595C75.2428 109.428 75.3522 109.299 75.4924 109.208C75.6325 109.116 75.7944 109.071 75.9782 109.071C76.1202 109.071 76.2329 109.094 76.3162 109.142C76.4005 109.188 76.4649 109.241 76.5094 109.301C76.5549 109.359 76.5899 109.408 76.6145 109.446H76.6486V109.099H76.9725V111.343C76.9725 111.531 76.9299 111.683 76.8446 111.801C76.7604 111.919 76.6467 112.006 76.5037 112.061C76.3617 112.116 76.2035 112.144 76.0293 112.144ZM76.0179 110.946C76.1524 110.946 76.266 110.915 76.3588 110.853C76.4516 110.792 76.5222 110.703 76.5705 110.588C76.6188 110.472 76.6429 110.334 76.6429 110.173C76.6429 110.016 76.6193 109.877 76.5719 109.757C76.5246 109.636 76.4545 109.542 76.3617 109.474C76.2689 109.406 76.1543 109.372 76.0179 109.372C75.8759 109.372 75.7575 109.408 75.6628 109.48C75.5691 109.552 75.4985 109.648 75.4512 109.769C75.4048 109.891 75.3816 110.025 75.3816 110.173C75.3816 110.324 75.4052 110.458 75.4526 110.575C75.5009 110.69 75.5719 110.781 75.6657 110.848C75.7604 110.913 75.8778 110.946 76.0179 110.946ZM77.9213 109.968V111.281H77.5861V109.099H77.91V109.44H77.9384C77.9895 109.329 78.0672 109.24 78.1713 109.173C78.2755 109.105 78.41 109.071 78.5748 109.071C78.7225 109.071 78.8517 109.101 78.9625 109.161C79.0733 109.221 79.1595 109.312 79.2211 109.434C79.2826 109.555 79.3134 109.709 79.3134 109.894V111.281H78.9782V109.917C78.9782 109.746 78.9337 109.612 78.8446 109.517C78.7556 109.42 78.6335 109.372 78.4782 109.372C78.3712 109.372 78.2755 109.395 78.1912 109.441C78.1079 109.488 78.0421 109.555 77.9938 109.644C77.9455 109.733 77.9213 109.841 77.9213 109.968ZM73.0236 115.389V114.099H73.3588V116.281H73.0236V115.911H73.0009C72.9498 116.022 72.8702 116.116 72.7623 116.194C72.6543 116.271 72.5179 116.309 72.3532 116.309C72.2168 116.309 72.0956 116.279 71.9895 116.22C71.8835 116.159 71.8001 116.068 71.7395 115.947C71.6789 115.825 71.6486 115.671 71.6486 115.485V114.099H71.9838V115.463C71.9838 115.622 72.0283 115.749 72.1174 115.843C72.2073 115.938 72.3219 115.985 72.4611 115.985C72.5444 115.985 72.6292 115.964 72.7154 115.921C72.8025 115.879 72.8754 115.813 72.9341 115.725C72.9938 115.637 73.0236 115.525 73.0236 115.389ZM73.9728 117.099V114.099H74.2967V114.446H74.3365C74.3611 114.408 74.3952 114.359 74.4387 114.301C74.4833 114.241 74.5467 114.188 74.6291 114.142C74.7124 114.094 74.8251 114.071 74.9672 114.071C75.1509 114.071 75.3128 114.116 75.4529 114.208C75.5931 114.3 75.7025 114.43 75.7811 114.599C75.8597 114.768 75.899 114.966 75.899 115.196C75.899 115.427 75.8597 115.627 75.7811 115.796C75.7025 115.965 75.5936 116.096 75.4544 116.188C75.3152 116.28 75.1547 116.326 74.9728 116.326C74.8327 116.326 74.7205 116.303 74.6362 116.257C74.5519 116.209 74.487 116.156 74.4416 116.096C74.3961 116.036 74.3611 115.985 74.3365 115.946H74.3081V117.099H73.9728ZM74.3024 115.19C74.3024 115.355 74.3265 115.5 74.3748 115.626C74.4231 115.751 74.4937 115.849 74.5865 115.92C74.6793 115.99 74.7929 116.025 74.9274 116.025C75.0675 116.025 75.1845 115.988 75.2782 115.914C75.3729 115.84 75.444 115.739 75.4913 115.613C75.5396 115.486 75.5637 115.345 75.5637 115.19C75.5637 115.036 75.5401 114.898 75.4927 114.775C75.4463 114.651 75.3758 114.553 75.2811 114.481C75.1873 114.408 75.0694 114.372 74.9274 114.372C74.791 114.372 74.6764 114.406 74.5836 114.475C74.4908 114.544 74.4208 114.639 74.3734 114.762C74.3261 114.884 74.3024 115.027 74.3024 115.19ZM71.9838 119.968V121.281H71.6486V119.099H71.9725V119.44H72.0009C72.052 119.329 72.1297 119.24 72.2338 119.173C72.338 119.105 72.4725 119.071 72.6373 119.071C72.785 119.071 72.9142 119.101 73.025 119.161C73.1358 119.221 73.222 119.312 73.2836 119.434C73.3451 119.555 73.3759 119.709 73.3759 119.894V121.281H73.0407V119.917C73.0407 119.746 72.9962 119.612 72.9071 119.517C72.8181 119.42 72.696 119.372 72.5407 119.372C72.4337 119.372 72.338 119.395 72.2537 119.441C72.1704 119.488 72.1046 119.555 72.0563 119.644C72.008 119.733 71.9838 119.841 71.9838 119.968ZM74.8748 121.326C74.6779 121.326 74.505 121.279 74.3564 121.186C74.2086 121.092 74.0931 120.961 74.0098 120.792C73.9274 120.624 73.8862 120.427 73.8862 120.201C73.8862 119.974 73.9274 119.776 74.0098 119.606C74.0931 119.437 74.2086 119.305 74.3564 119.211C74.505 119.117 74.6779 119.071 74.8748 119.071C75.0718 119.071 75.2441 119.117 75.3919 119.211C75.5405 119.305 75.6561 119.437 75.7385 119.606C75.8218 119.776 75.8635 119.974 75.8635 120.201C75.8635 120.427 75.8218 120.624 75.7385 120.792C75.6561 120.961 75.5405 121.092 75.3919 121.186C75.2441 121.279 75.0718 121.326 74.8748 121.326ZM74.8748 121.025C75.0244 121.025 75.1475 120.987 75.2441 120.91C75.3407 120.833 75.4122 120.732 75.4586 120.607C75.505 120.482 75.5282 120.347 75.5282 120.201C75.5282 120.055 75.505 119.92 75.4586 119.794C75.4122 119.668 75.3407 119.566 75.2441 119.488C75.1475 119.411 75.0244 119.372 74.8748 119.372C74.7252 119.372 74.6021 119.411 74.5055 119.488C74.4089 119.566 74.3374 119.668 74.291 119.794C74.2446 119.92 74.2214 120.055 74.2214 120.201C74.2214 120.347 74.2446 120.482 74.291 120.607C74.3374 120.732 74.4089 120.833 74.5055 120.91C74.6021 120.987 74.7252 121.025 74.8748 121.025ZM76.7953 121.281L76.1305 119.099H76.4828L76.9544 120.769H76.9771L77.443 119.099H77.801L78.2612 120.764H78.2839L78.7555 119.099H79.1078L78.443 121.281H78.1135L77.6362 119.605H77.6021L77.1248 121.281H76.7953Z" fill="black"/>
<path d="M94.2877 111.575H59.4705C57.4852 111.575 55.8757 113.185 55.8757 115.17V115.174C55.8757 117.16 57.4852 118.769 59.4705 118.769H94.2877C96.2731 118.769 97.8825 117.16 97.8825 115.174V115.17C97.8825 113.185 96.2731 111.575 94.2877 111.575Z" fill="#90CAF9"/>
<g opacity="0.5">
<path d="M69.3135 125.818V122.909H71.0578V123.222H69.6657V124.205H70.9271V124.517H69.6657V125.818H69.3135ZM72.3419 125.864C72.1449 125.864 71.9721 125.817 71.8234 125.723C71.6757 125.629 71.5601 125.498 71.4768 125.33C71.3944 125.161 71.3532 124.964 71.3532 124.739C71.3532 124.512 71.3944 124.313 71.4768 124.144C71.5601 123.974 71.6757 123.843 71.8234 123.749C71.9721 123.655 72.1449 123.608 72.3419 123.608C72.5388 123.608 72.7112 123.655 72.8589 123.749C73.0076 123.843 73.1231 123.974 73.2055 124.144C73.2888 124.313 73.3305 124.512 73.3305 124.739C73.3305 124.964 73.2888 125.161 73.2055 125.33C73.1231 125.498 73.0076 125.629 72.8589 125.723C72.7112 125.817 72.5388 125.864 72.3419 125.864ZM72.3419 125.563C72.4915 125.563 72.6146 125.524 72.7112 125.448C72.8078 125.371 72.8793 125.27 72.9257 125.145C72.9721 125.02 72.9953 124.885 72.9953 124.739C72.9953 124.593 72.9721 124.457 72.9257 124.331C72.8793 124.205 72.8078 124.103 72.7112 124.026C72.6146 123.948 72.4915 123.909 72.3419 123.909C72.1922 123.909 72.0691 123.948 71.9725 124.026C71.876 124.103 71.8045 124.205 71.7581 124.331C71.7117 124.457 71.6885 124.593 71.6885 124.739C71.6885 124.885 71.7117 125.02 71.7581 125.145C71.8045 125.27 71.876 125.371 71.9725 125.448C72.0691 125.524 72.1922 125.563 72.3419 125.563ZM73.8422 125.818V123.637H74.1661V123.966H74.1888C74.2286 123.858 74.3006 123.771 74.4047 123.703C74.5089 123.636 74.6263 123.602 74.757 123.602C74.7816 123.602 74.8124 123.603 74.8493 123.604C74.8863 123.605 74.9142 123.606 74.9331 123.608V123.949C74.9218 123.946 74.8957 123.942 74.855 123.936C74.8152 123.93 74.7731 123.926 74.7286 123.926C74.6225 123.926 74.5278 123.949 74.4445 123.993C74.3621 124.037 74.2968 124.097 74.2485 124.175C74.2011 124.252 74.1774 124.339 74.1774 124.438V125.818H73.8422ZM76.1448 126.682C75.9828 126.682 75.8436 126.661 75.7272 126.62C75.6107 126.579 75.5136 126.525 75.436 126.458C75.3593 126.391 75.2982 126.32 75.2527 126.245L75.5198 126.057C75.5501 126.097 75.5884 126.142 75.6348 126.193C75.6812 126.245 75.7447 126.29 75.8252 126.328C75.9066 126.367 76.0131 126.387 76.1448 126.387C76.3209 126.387 76.4663 126.344 76.5809 126.259C76.6954 126.174 76.7527 126.04 76.7527 125.858V125.415H76.7243C76.6997 125.455 76.6647 125.504 76.6192 125.563C76.5747 125.62 76.5103 125.672 76.426 125.718C76.3427 125.762 76.23 125.784 76.088 125.784C75.9118 125.784 75.7537 125.743 75.6135 125.659C75.4743 125.576 75.364 125.455 75.2826 125.296C75.2021 125.137 75.1618 124.943 75.1618 124.716C75.1618 124.493 75.2011 124.298 75.2797 124.132C75.3583 123.966 75.4677 123.837 75.6078 123.746C75.748 123.654 75.9099 123.608 76.0936 123.608C76.2357 123.608 76.3484 123.632 76.4317 123.679C76.516 123.726 76.5804 123.779 76.6249 123.838C76.6703 123.897 76.7054 123.945 76.73 123.983H76.7641V123.637H77.088V125.881C77.088 126.068 77.0453 126.221 76.9601 126.338C76.8758 126.457 76.7622 126.543 76.6192 126.598C76.4772 126.654 76.319 126.682 76.1448 126.682ZM76.1334 125.483C76.2679 125.483 76.3815 125.452 76.4743 125.391C76.5671 125.329 76.6377 125.241 76.686 125.125C76.7343 125.01 76.7584 124.871 76.7584 124.71C76.7584 124.553 76.7347 124.415 76.6874 124.294C76.64 124.174 76.57 124.08 76.4772 124.012C76.3844 123.943 76.2698 123.909 76.1334 123.909C75.9914 123.909 75.873 123.945 75.7783 124.017C75.6845 124.089 75.614 124.186 75.5667 124.307C75.5202 124.428 75.497 124.563 75.497 124.71C75.497 124.862 75.5207 124.996 75.5681 125.112C75.6164 125.228 75.6874 125.319 75.7811 125.385C75.8758 125.45 75.9933 125.483 76.1334 125.483ZM78.588 125.864C78.391 125.864 78.2182 125.817 78.0695 125.723C77.9218 125.629 77.8062 125.498 77.7229 125.33C77.6405 125.161 77.5993 124.964 77.5993 124.739C77.5993 124.512 77.6405 124.313 77.7229 124.144C77.8062 123.974 77.9218 123.843 78.0695 123.749C78.2182 123.655 78.391 123.608 78.588 123.608C78.7849 123.608 78.9573 123.655 79.105 123.749C79.2537 123.843 79.3692 123.974 79.4516 124.144C79.5349 124.313 79.5766 124.512 79.5766 124.739C79.5766 124.964 79.5349 125.161 79.4516 125.33C79.3692 125.498 79.2537 125.629 79.105 125.723C78.9573 125.817 78.7849 125.864 78.588 125.864ZM78.588 125.563C78.7376 125.563 78.8607 125.524 78.9573 125.448C79.0539 125.371 79.1254 125.27 79.1718 125.145C79.2182 125.02 79.2414 124.885 79.2414 124.739C79.2414 124.593 79.2182 124.457 79.1718 124.331C79.1254 124.205 79.0539 124.103 78.9573 124.026C78.8607 123.948 78.7376 123.909 78.588 123.909C78.4383 123.909 78.3152 123.948 78.2186 124.026C78.122 124.103 78.0506 124.205 78.0042 124.331C77.9577 124.457 77.9345 124.593 77.9345 124.739C77.9345 124.885 77.9577 125.02 78.0042 125.145C78.0506 125.27 78.122 125.371 78.2186 125.448C78.3152 125.524 78.4383 125.563 78.588 125.563ZM81.0372 123.637V123.921H79.9065V123.637H81.0372ZM80.236 123.114H80.5713V125.193C80.5713 125.288 80.585 125.359 80.6125 125.406C80.6409 125.453 80.6769 125.484 80.7204 125.5C80.7649 125.515 80.8118 125.523 80.861 125.523C80.898 125.523 80.9283 125.521 80.9519 125.517C80.9756 125.513 80.9946 125.509 81.0088 125.506L81.0769 125.807C81.0542 125.816 81.0225 125.824 80.9818 125.833C80.9411 125.842 80.8894 125.847 80.8269 125.847C80.7323 125.847 80.6394 125.826 80.5485 125.786C80.4586 125.745 80.3838 125.683 80.3241 125.6C80.2654 125.516 80.236 125.411 80.236 125.284V123.114ZM69.3135 130.818V127.909H70.2964C70.5246 127.909 70.7112 127.95 70.8561 128.033C71.0019 128.114 71.1099 128.225 71.1799 128.364C71.25 128.503 71.285 128.658 71.285 128.83C71.285 129.001 71.25 129.157 71.1799 129.297C71.1108 129.437 71.0038 129.549 70.8589 129.632C70.714 129.715 70.5284 129.756 70.3021 129.756H69.5975V129.443H70.2907C70.447 129.443 70.5725 129.416 70.6671 129.362C70.7618 129.308 70.8305 129.236 70.8731 129.144C70.9167 129.051 70.9385 128.946 70.9385 128.83C70.9385 128.713 70.9167 128.609 70.8731 128.517C70.8305 128.425 70.7614 128.353 70.6657 128.301C70.5701 128.248 70.4432 128.222 70.285 128.222H69.6657V130.818H69.3135ZM72.4491 130.87C72.3109 130.87 72.1854 130.843 72.0727 130.791C71.96 130.738 71.8705 130.662 71.8042 130.563C71.7379 130.462 71.7048 130.341 71.7048 130.199C71.7048 130.074 71.7294 129.973 71.7787 129.895C71.8279 129.816 71.8937 129.755 71.9761 129.71C72.0585 129.666 72.1494 129.633 72.2488 129.611C72.3492 129.588 72.4501 129.57 72.5514 129.557C72.684 129.54 72.7914 129.527 72.8738 129.519C72.9572 129.509 73.0178 129.494 73.0556 129.472C73.0945 129.45 73.1139 129.412 73.1139 129.358V129.347C73.1139 129.207 73.0755 129.098 72.9988 129.02C72.9231 128.942 72.808 128.904 72.6537 128.904C72.4936 128.904 72.3681 128.939 72.2772 129.009C72.1863 129.079 72.1224 129.154 72.0855 129.233L71.7673 129.12C71.8241 128.987 71.8999 128.884 71.9946 128.81C72.0902 128.735 72.1944 128.683 72.3071 128.654C72.4207 128.623 72.5324 128.608 72.6423 128.608C72.7124 128.608 72.7929 128.617 72.8838 128.634C72.9756 128.65 73.0642 128.683 73.1494 128.735C73.2356 128.786 73.3071 128.863 73.3639 128.966C73.4207 129.069 73.4491 129.208 73.4491 129.381V130.818H73.1139V130.523H73.0968C73.0741 130.57 73.0362 130.621 72.9832 130.675C72.9302 130.729 72.8596 130.775 72.7716 130.813C72.6835 130.851 72.576 130.87 72.4491 130.87ZM72.5002 130.568C72.6328 130.568 72.7446 130.542 72.8355 130.49C72.9273 130.438 72.9965 130.371 73.0429 130.289C73.0902 130.206 73.1139 130.12 73.1139 130.029V129.722C73.0997 129.739 73.0684 129.754 73.0201 129.769C72.9728 129.782 72.9179 129.794 72.8554 129.804C72.7938 129.814 72.7337 129.822 72.675 129.83C72.6172 129.836 72.5703 129.842 72.5343 129.847C72.4472 129.858 72.3658 129.877 72.29 129.902C72.2152 129.927 72.1546 129.964 72.1082 130.014C72.0627 130.064 72.04 130.131 72.04 130.216C72.04 130.333 72.0831 130.421 72.1693 130.48C72.2564 130.539 72.3667 130.568 72.5002 130.568ZM75.6064 129.125L75.3053 129.21C75.2863 129.16 75.2584 129.111 75.2215 129.064C75.1855 129.016 75.1363 128.976 75.0738 128.945C75.0113 128.914 74.9312 128.898 74.8337 128.898C74.7002 128.898 74.5889 128.929 74.4999 128.99C74.4118 129.051 74.3678 129.128 74.3678 129.222C74.3678 129.305 74.3981 129.371 74.4587 129.419C74.5193 129.468 74.614 129.508 74.7428 129.54L75.0667 129.62C75.2617 129.667 75.4071 129.739 75.5027 129.837C75.5984 129.933 75.6462 130.058 75.6462 130.21C75.6462 130.335 75.6102 130.447 75.5382 130.546C75.4672 130.644 75.3678 130.722 75.2399 130.779C75.1121 130.835 74.9634 130.864 74.7939 130.864C74.5714 130.864 74.3872 130.816 74.2414 130.719C74.0955 130.622 74.0032 130.481 73.9644 130.296L74.2826 130.216C74.3129 130.334 74.3702 130.422 74.4544 130.48C74.5397 130.539 74.6509 130.568 74.7882 130.568C74.9445 130.568 75.0685 130.535 75.1604 130.469C75.2532 130.402 75.2996 130.321 75.2996 130.227C75.2996 130.152 75.2731 130.088 75.2201 130.037C75.167 129.985 75.0856 129.946 74.9757 129.921L74.6121 129.835C74.4123 129.788 74.2655 129.715 74.1718 129.615C74.079 129.515 74.0326 129.389 74.0326 129.239C74.0326 129.116 74.0671 129.007 74.1363 128.912C74.2063 128.817 74.3015 128.743 74.4218 128.689C74.543 128.635 74.6803 128.608 74.8337 128.608C75.0496 128.608 75.2191 128.656 75.3422 128.75C75.4663 128.845 75.5543 128.97 75.6064 129.125ZM77.6963 129.125L77.3951 129.21C77.3762 129.16 77.3483 129.111 77.3113 129.064C77.2753 129.016 77.2261 128.976 77.1636 128.945C77.1011 128.914 77.0211 128.898 76.9235 128.898C76.79 128.898 76.6787 128.929 76.5897 128.99C76.5017 129.051 76.4576 129.128 76.4576 129.222C76.4576 129.305 76.4879 129.371 76.5485 129.419C76.6091 129.468 76.7038 129.508 76.8326 129.54L77.1565 129.62C77.3516 129.667 77.4969 129.739 77.5926 129.837C77.6882 129.933 77.736 130.058 77.736 130.21C77.736 130.335 77.7001 130.447 77.6281 130.546C77.5571 130.644 77.4576 130.722 77.3298 130.779C77.2019 130.835 77.0533 130.864 76.8838 130.864C76.6612 130.864 76.477 130.816 76.3312 130.719C76.1854 130.622 76.093 130.481 76.0542 130.296L76.3724 130.216C76.4027 130.334 76.46 130.422 76.5443 130.48C76.6295 130.539 76.7408 130.568 76.8781 130.568C77.0343 130.568 77.1584 130.535 77.2502 130.469C77.343 130.402 77.3894 130.321 77.3894 130.227C77.3894 130.152 77.3629 130.088 77.3099 130.037C77.2569 129.985 77.1754 129.946 77.0656 129.921L76.7019 129.835C76.5021 129.788 76.3554 129.715 76.2616 129.615C76.1688 129.515 76.1224 129.389 76.1224 129.239C76.1224 129.116 76.157 129.007 76.2261 128.912C76.2962 128.817 76.3913 128.743 76.5116 128.689C76.6328 128.635 76.7701 128.608 76.9235 128.608C77.1394 128.608 77.309 128.656 77.4321 128.75C77.5561 128.845 77.6442 128.97 77.6963 129.125ZM78.735 130.818L78.0702 128.637H78.4225L78.8941 130.307H78.9168L79.3827 128.637H79.7407L80.2009 130.301H80.2236L80.6952 128.637H81.0475L80.3827 130.818H80.0532L79.5759 129.142H79.5418L79.0645 130.818H78.735ZM82.3028 130.864C82.1058 130.864 81.933 130.817 81.7843 130.723C81.6366 130.629 81.5211 130.498 81.4377 130.33C81.3554 130.161 81.3142 129.964 81.3142 129.739C81.3142 129.512 81.3554 129.313 81.4377 129.144C81.5211 128.974 81.6366 128.843 81.7843 128.749C81.933 128.655 82.1058 128.608 82.3028 128.608C82.4998 128.608 82.6721 128.655 82.8198 128.749C82.9685 128.843 83.0841 128.974 83.1664 129.144C83.2498 129.313 83.2914 129.512 83.2914 129.739C83.2914 129.964 83.2498 130.161 83.1664 130.33C83.0841 130.498 82.9685 130.629 82.8198 130.723C82.6721 130.817 82.4998 130.864 82.3028 130.864ZM82.3028 130.563C82.4524 130.563 82.5755 130.524 82.6721 130.448C82.7687 130.371 82.8402 130.27 82.8866 130.145C82.933 130.02 82.9562 129.885 82.9562 129.739C82.9562 129.593 82.933 129.457 82.8866 129.331C82.8402 129.205 82.7687 129.103 82.6721 129.026C82.5755 128.948 82.4524 128.909 82.3028 128.909C82.1532 128.909 82.0301 128.948 81.9335 129.026C81.8369 129.103 81.7654 129.205 81.719 129.331C81.6726 129.457 81.6494 129.593 81.6494 129.739C81.6494 129.885 81.6726 130.02 81.719 130.145C81.7654 130.27 81.8369 130.371 81.9335 130.448C82.0301 130.524 82.1532 130.563 82.3028 130.563ZM69.268 135.818V133.637H69.5919V133.966H69.6146C69.6544 133.858 69.7263 133.771 69.8305 133.703C69.9347 133.636 70.0521 133.602 70.1828 133.602C70.2074 133.602 70.2382 133.603 70.2751 133.604C70.312 133.605 70.34 133.606 70.3589 133.608V133.949C70.3475 133.946 70.3215 133.942 70.2808 133.936C70.241 133.93 70.1989 133.926 70.1544 133.926C70.0483 133.926 69.9536 133.949 69.8703 133.993C69.7879 134.037 69.7225 134.097 69.6742 134.175C69.6269 134.252 69.6032 134.339 69.6032 134.438V135.818H69.268ZM71.5137 135.864C71.3319 135.864 71.1714 135.818 71.0322 135.726C70.893 135.633 70.7841 135.503 70.7055 135.334C70.6269 135.165 70.5876 134.964 70.5876 134.733C70.5876 134.504 70.6269 134.305 70.7055 134.137C70.7841 133.968 70.8935 133.838 71.0336 133.746C71.1738 133.654 71.3357 133.608 71.5194 133.608C71.6615 133.608 71.7737 133.632 71.8561 133.679C71.9394 133.726 72.0028 133.779 72.0464 133.838C72.0909 133.897 72.1255 133.945 72.1501 133.983H72.1785V132.909H72.5137V135.818H72.1899V135.483H72.1501C72.1255 135.523 72.0904 135.573 72.045 135.634C71.9995 135.693 71.9347 135.747 71.8504 135.794C71.7661 135.841 71.6539 135.864 71.5137 135.864ZM71.5592 135.563C71.6937 135.563 71.8073 135.528 71.9001 135.458C71.9929 135.387 72.0635 135.289 72.1117 135.164C72.16 135.038 72.1842 134.892 72.1842 134.727C72.1842 134.565 72.1605 134.422 72.1132 134.3C72.0658 134.177 71.9957 134.081 71.9029 134.013C71.8101 133.944 71.6956 133.909 71.5592 133.909C71.4171 133.909 71.2988 133.946 71.2041 134.019C71.1103 134.091 71.0398 134.189 70.9924 134.313C70.946 134.436 70.9228 134.574 70.9228 134.727C70.9228 134.883 70.9465 135.024 70.9939 135.151C71.0421 135.277 71.1132 135.377 71.2069 135.452C71.3016 135.526 71.419 135.563 71.5592 135.563ZM73.6117 135V134.983C73.6136 134.802 73.6326 134.658 73.6686 134.551C73.7046 134.444 73.7557 134.358 73.822 134.291C73.8883 134.225 73.9678 134.164 74.0606 134.108C74.1165 134.074 74.1667 134.034 74.2112 133.987C74.2557 133.94 74.2907 133.886 74.3163 133.824C74.3428 133.763 74.3561 133.694 74.3561 133.62C74.3561 133.527 74.3343 133.446 74.2907 133.378C74.2472 133.31 74.1889 133.257 74.116 133.22C74.0431 133.183 73.9621 133.165 73.8731 133.165C73.7955 133.165 73.7207 133.181 73.6487 133.213C73.5767 133.245 73.5166 133.296 73.4683 133.365C73.42 133.434 73.3921 133.525 73.3845 133.637H73.0265C73.0341 133.476 73.0758 133.338 73.1515 133.223C73.2282 133.109 73.3291 133.021 73.4541 132.96C73.58 132.9 73.7197 132.87 73.8731 132.87C74.0398 132.87 74.1847 132.903 74.3078 132.969C74.4318 133.035 74.5275 133.126 74.5947 133.242C74.6629 133.357 74.697 133.489 74.697 133.637C74.697 133.741 74.6809 133.835 74.6487 133.919C74.6174 134.004 74.572 134.079 74.5123 134.145C74.4536 134.211 74.3826 134.27 74.2992 134.321C74.2159 134.373 74.1492 134.428 74.099 134.486C74.0488 134.543 74.0123 134.611 73.9896 134.689C73.9669 134.768 73.9546 134.866 73.9527 134.983V135H73.6117ZM73.7936 135.841C73.7235 135.841 73.6634 135.816 73.6132 135.766C73.563 135.716 73.5379 135.656 73.5379 135.585C73.5379 135.515 73.563 135.455 73.6132 135.405C73.6634 135.355 73.7235 135.33 73.7936 135.33C73.8636 135.33 73.9238 135.355 73.974 135.405C74.0242 135.455 74.0492 135.515 74.0492 135.585C74.0492 135.632 74.0374 135.674 74.0137 135.713C73.991 135.752 73.9602 135.783 73.9214 135.807C73.8835 135.83 73.8409 135.841 73.7936 135.841Z" fill="black"/>
</g>
<path d="M72.7106 120.772V114.954H73.4152V120.147H76.1197V120.772H72.7106ZM74.3925 130.863C73.9985 130.863 73.6529 130.769 73.3555 130.582C73.0601 130.394 72.829 130.132 72.6624 129.795C72.4976 129.458 72.4152 129.064 72.4152 128.613C72.4152 128.158 72.4976 127.762 72.6624 127.423C72.829 127.084 73.0601 126.82 73.3555 126.633C73.6529 126.445 73.9985 126.352 74.3925 126.352C74.7864 126.352 75.1311 126.445 75.4266 126.633C75.7239 126.82 75.955 127.084 76.1197 127.423C76.2864 127.762 76.3697 128.158 76.3697 128.613C76.3697 129.064 76.2864 129.458 76.1197 129.795C75.955 130.132 75.7239 130.394 75.4266 130.582C75.1311 130.769 74.7864 130.863 74.3925 130.863ZM74.3925 130.261C74.6917 130.261 74.9379 130.184 75.1311 130.03C75.3243 129.877 75.4673 129.675 75.5601 129.425C75.6529 129.175 75.6993 128.905 75.6993 128.613C75.6993 128.321 75.6529 128.049 75.5601 127.798C75.4673 127.546 75.3243 127.342 75.1311 127.187C74.9379 127.031 74.6917 126.954 74.3925 126.954C74.0932 126.954 73.847 127.031 73.6538 127.187C73.4606 127.342 73.3177 127.546 73.2249 127.798C73.1321 128.049 73.0856 128.321 73.0856 128.613C73.0856 128.905 73.1321 129.175 73.2249 129.425C73.3177 129.675 73.4606 129.877 73.6538 130.03C73.847 130.184 74.0932 130.261 74.3925 130.261ZM74.3811 142.499C74.0572 142.499 73.7788 142.458 73.5459 142.374C73.3129 142.293 73.1188 142.185 72.9635 142.05C72.8101 141.918 72.6879 141.776 72.597 141.624L73.1311 141.249C73.1917 141.329 73.2684 141.42 73.3612 141.522C73.454 141.626 73.5809 141.716 73.7419 141.792C73.9048 141.87 74.1178 141.908 74.3811 141.908C74.7334 141.908 75.0241 141.823 75.2533 141.653C75.4824 141.482 75.597 141.215 75.597 140.852V139.965H75.5402C75.491 140.045 75.4209 140.143 75.33 140.261C75.241 140.376 75.1122 140.479 74.9436 140.57C74.7769 140.659 74.5516 140.704 74.2675 140.704C73.9152 140.704 73.5989 140.62 73.3186 140.454C73.0402 140.287 72.8196 140.045 72.6567 139.727C72.4957 139.408 72.4152 139.022 72.4152 138.567C72.4152 138.12 72.4938 137.731 72.651 137.4C72.8082 137.066 73.0269 136.809 73.3072 136.627C73.5875 136.443 73.9114 136.352 74.2788 136.352C74.5629 136.352 74.7883 136.399 74.955 136.494C75.1235 136.586 75.2523 136.692 75.3413 136.812C75.4322 136.929 75.5023 137.026 75.5516 137.102H75.6197V136.408H76.2675V140.897C76.2675 141.272 76.1822 141.577 76.0118 141.812C75.8432 142.048 75.616 142.222 75.33 142.332C75.0459 142.443 74.7296 142.499 74.3811 142.499ZM74.3584 140.102C74.6273 140.102 74.8546 140.04 75.0402 139.917C75.2258 139.794 75.3669 139.617 75.4635 139.386C75.5601 139.155 75.6084 138.878 75.6084 138.556C75.6084 138.242 75.561 137.964 75.4663 137.724C75.3716 137.483 75.2315 137.295 75.0459 137.158C74.8603 137.022 74.6311 136.954 74.3584 136.954C74.0743 136.954 73.8375 137.026 73.6481 137.17C73.4606 137.314 73.3196 137.507 73.2249 137.749C73.1321 137.992 73.0856 138.261 73.0856 138.556C73.0856 138.859 73.133 139.127 73.2277 139.36C73.3243 139.591 73.4663 139.773 73.6538 139.905C73.8432 140.036 74.0781 140.102 74.3584 140.102ZM77.4947 140.772V136.408H78.1652V140.772H77.4947ZM77.8356 135.681C77.705 135.681 77.5923 135.637 77.4976 135.548C77.4048 135.459 77.3584 135.352 77.3584 135.227C77.3584 135.102 77.4048 134.995 77.4976 134.905C77.5923 134.816 77.705 134.772 77.8356 134.772C77.9663 134.772 78.0781 134.816 78.1709 134.905C78.2656 134.995 78.3129 135.102 78.3129 135.227C78.3129 135.352 78.2656 135.459 78.1709 135.548C78.0781 135.637 77.9663 135.681 77.8356 135.681ZM73.2902 148.147V150.772H72.6197V146.408H73.2675V147.09H73.3243C73.4266 146.869 73.5819 146.691 73.7902 146.556C73.9985 146.42 74.2675 146.352 74.597 146.352C74.8925 146.352 75.151 146.412 75.3726 146.533C75.5942 146.653 75.7665 146.834 75.8896 147.079C76.0127 147.321 76.0743 147.628 76.0743 147.999V150.772H75.4038V148.045C75.4038 147.702 75.3148 147.435 75.1368 147.244C74.9588 147.05 74.7144 146.954 74.4038 146.954C74.1898 146.954 73.9985 147 73.83 147.093C73.6633 147.186 73.5317 147.321 73.4351 147.499C73.3385 147.677 73.2902 147.893 73.2902 148.147Z" fill="white"/>
<path d="M94.2877 87.2872H59.4705C57.4852 87.2872 55.8757 88.8966 55.8757 90.882V90.8864C55.8757 92.8718 57.4852 94.4812 59.4705 94.4812H94.2877C96.2731 94.4812 97.8825 92.8718 97.8825 90.8864V90.882C97.8825 88.8966 96.2731 87.2872 94.2877 87.2872Z" fill="white"/>
<path d="M94.2877 97.4864H59.4705C57.4852 97.4864 55.8757 99.0958 55.8757 101.081V101.086C55.8757 103.071 57.4852 104.68 59.4705 104.68H94.2877C96.2731 104.68 97.8825 103.071 97.8825 101.086V101.081C97.8825 99.0958 96.2731 97.4864 94.2877 97.4864Z" fill="white"/>
<g opacity="0.5">
<path d="M63.8063 90.6924V94.3288H63.3801L61.3986 91.4737H61.3631V94.3288H60.9228V90.6924H61.3489L63.3375 93.5546H63.373V90.6924H63.8063ZM65.4331 94.3927C65.2603 94.3927 65.1035 94.3602 64.9626 94.2951C64.8218 94.2288 64.7099 94.1335 64.627 94.0092C64.5442 93.8837 64.5028 93.7322 64.5028 93.5546C64.5028 93.3984 64.5335 93.2717 64.5951 93.1747C64.6566 93.0764 64.7389 92.9995 64.8419 92.9439C64.9449 92.8882 65.0585 92.8468 65.1828 92.8196C65.3083 92.7912 65.4343 92.7687 65.561 92.7521C65.7267 92.7308 65.8611 92.7148 65.964 92.7042C66.0682 92.6923 66.144 92.6728 66.1913 92.6456C66.2398 92.6183 66.2641 92.571 66.2641 92.5035V92.4893C66.2641 92.3141 66.2162 92.178 66.1203 92.0809C66.0256 91.9839 65.8818 91.9353 65.6888 91.9353C65.4888 91.9353 65.3319 91.9791 65.2183 92.0667C65.1047 92.1543 65.0248 92.2478 64.9786 92.3473L64.5809 92.2052C64.6519 92.0395 64.7466 91.9105 64.865 91.8181C64.9845 91.7246 65.1147 91.6595 65.2556 91.6228C65.3976 91.585 65.5373 91.566 65.6746 91.566C65.7622 91.566 65.8628 91.5767 65.9765 91.598C66.0913 91.6181 66.202 91.6601 66.3085 91.724C66.4162 91.788 66.5056 91.8844 66.5766 92.0135C66.6476 92.1425 66.6831 92.3153 66.6831 92.5319V94.3288H66.2641V93.9595H66.2428C66.2144 94.0187 66.1671 94.082 66.1008 94.1495C66.0345 94.2169 65.9463 94.2743 65.8362 94.3217C65.7261 94.369 65.5918 94.3927 65.4331 94.3927ZM65.4971 94.0163C65.6628 94.0163 65.8025 93.9837 65.9161 93.9186C66.0309 93.8535 66.1173 93.7695 66.1753 93.6665C66.2345 93.5635 66.2641 93.4552 66.2641 93.3416V92.9581C66.2464 92.9794 66.2073 92.9989 66.1469 93.0167C66.0877 93.0332 66.0191 93.048 65.941 93.061C65.864 93.0729 65.7889 93.0835 65.7155 93.093C65.6433 93.1013 65.5847 93.1084 65.5397 93.1143C65.4308 93.1285 65.329 93.1516 65.2343 93.1836C65.1408 93.2143 65.065 93.2611 65.007 93.3238C64.9502 93.3854 64.9218 93.4694 64.9218 93.576C64.9218 93.7216 64.9756 93.8316 65.0834 93.9062C65.1923 93.9796 65.3302 94.0163 65.4971 94.0163ZM67.448 94.3288V91.6015H67.8528V92.0277H67.8883C67.9451 91.8821 68.0369 91.769 68.1635 91.6885C68.2902 91.6069 68.4423 91.566 68.6199 91.566C68.7998 91.566 68.9495 91.6069 69.0691 91.6885C69.1898 91.769 69.2839 91.8821 69.3514 92.0277H69.3798C69.4496 91.8868 69.5544 91.7749 69.6941 91.6921C69.8337 91.608 70.0012 91.566 70.1966 91.566C70.4404 91.566 70.6399 91.6424 70.7949 91.7951C70.95 91.9466 71.0275 92.1827 71.0275 92.5035V94.3288H70.6085V92.5035C70.6085 92.3023 70.5534 92.1585 70.4434 92.072C70.3333 91.9856 70.2037 91.9424 70.0545 91.9424C69.8627 91.9424 69.7142 92.0004 69.6088 92.1164C69.5035 92.2313 69.4508 92.3769 69.4508 92.5532V94.3288H69.0247V92.4609C69.0247 92.3058 68.9744 92.181 68.8738 92.0863C68.7731 91.9904 68.6435 91.9424 68.4849 91.9424C68.376 91.9424 68.2742 91.9714 68.1795 92.0294C68.086 92.0874 68.0102 92.1679 67.9522 92.2709C67.8954 92.3727 67.867 92.4905 67.867 92.6243V94.3288H67.448ZM72.9371 94.3856C72.6744 94.3856 72.4477 94.3276 72.2571 94.2116C72.0677 94.0944 71.9215 93.9311 71.8185 93.7216C71.7167 93.5109 71.6658 93.2658 71.6658 92.9865C71.6658 92.7071 71.7167 92.4609 71.8185 92.2478C71.9215 92.0336 72.0647 91.8667 72.2482 91.7471C72.4329 91.6264 72.6483 91.566 72.8945 91.566C73.0366 91.566 73.1768 91.5897 73.3153 91.637C73.4538 91.6844 73.5799 91.7613 73.6935 91.8679C73.8072 91.9732 73.8977 92.1129 73.9652 92.2869C74.0327 92.4609 74.0664 92.6752 74.0664 92.9296V93.1072H71.9641V92.745H73.6403C73.6403 92.5911 73.6095 92.4538 73.5479 92.3331C73.4876 92.2123 73.4012 92.117 73.2887 92.0472C73.1774 91.9774 73.046 91.9424 72.8945 91.9424C72.7276 91.9424 72.5832 91.9839 72.4613 92.0667C72.3406 92.1484 72.2476 92.2549 72.1825 92.3863C72.1174 92.5177 72.0849 92.6586 72.0849 92.8089V93.0504C72.0849 93.2564 72.1204 93.431 72.1914 93.5742C72.2636 93.7162 72.3636 93.8245 72.4915 93.8991C72.6193 93.9725 72.7679 94.0092 72.9371 94.0092C73.0472 94.0092 73.1467 93.9938 73.2354 93.963C73.3254 93.9311 73.4029 93.8837 73.468 93.821C73.5331 93.7571 73.5835 93.6778 73.619 93.5831L74.0238 93.6967C73.9812 93.834 73.9096 93.9547 73.8089 94.0589C73.7083 94.1619 73.584 94.2424 73.4361 94.3004C73.2881 94.3572 73.1218 94.3856 72.9371 94.3856ZM62.9611 101.288C62.5989 101.288 62.2787 101.238 62.0005 101.138C61.7224 101.04 61.4886 100.895 61.2992 100.703C61.1098 100.512 60.9666 100.277 60.8695 99.9985C60.7724 99.7204 60.7239 99.4019 60.7239 99.0433C60.7239 98.6965 60.773 98.3863 60.8713 98.1129C60.9707 97.8394 61.1145 97.6074 61.3027 97.4169C61.4921 97.2251 61.7218 97.0789 61.9917 96.9783C62.2627 96.8777 62.5693 96.8274 62.9114 96.8274C63.244 96.8274 63.5352 96.8818 63.785 96.9907C64.0359 97.0984 64.2454 97.2446 64.4135 97.4293C64.5828 97.6128 64.7095 97.8193 64.7935 98.049C64.8787 98.2786 64.9213 98.5153 64.9213 98.7592C64.9213 98.9308 64.9131 99.1048 64.8965 99.2812C64.8799 99.4576 64.845 99.6198 64.7917 99.7677C64.7385 99.9145 64.6562 100.033 64.5449 100.123C64.4348 100.213 64.2857 100.258 64.0975 100.258C64.0146 100.258 63.9235 100.245 63.824 100.219C63.7246 100.193 63.6364 100.149 63.5595 100.089C63.4825 100.029 63.437 99.9476 63.4228 99.8458H63.4015C63.373 99.9145 63.3292 99.9796 63.2701 100.041C63.2121 100.103 63.1357 100.152 63.041 100.189C62.9475 100.225 62.8333 100.241 62.6983 100.236C62.5444 100.231 62.4089 100.196 62.2917 100.133C62.1745 100.07 62.0763 99.9832 61.997 99.8743C61.9189 99.7642 61.8597 99.6369 61.8194 99.4925C61.7804 99.3469 61.7608 99.1901 61.7608 99.022C61.7608 98.8622 61.7845 98.716 61.8319 98.5834C61.8792 98.4508 61.9449 98.3348 62.0289 98.2354C62.1142 98.136 62.2136 98.0567 62.3272 97.9975C62.4421 97.9371 62.5658 97.8998 62.6983 97.8856C62.8167 97.8738 62.9244 97.8791 63.0215 97.9016C63.1185 97.9229 63.1984 97.9555 63.2612 97.9993C63.3239 98.0419 63.3636 98.0892 63.3801 98.1413H63.4015V97.9424H63.7779V99.5475C63.7779 99.647 63.8057 99.7346 63.8613 99.8103C63.917 99.8861 63.998 99.924 64.1046 99.924C64.2253 99.924 64.3176 99.8825 64.3816 99.7997C64.4467 99.7168 64.4911 99.589 64.5147 99.4162C64.5396 99.2433 64.552 99.022 64.552 98.7521C64.552 98.5935 64.5301 98.4372 64.4863 98.2833C64.4437 98.1283 64.3786 97.9833 64.291 97.8483C64.2046 97.7134 64.0951 97.5944 63.9625 97.4914C63.83 97.3885 63.6743 97.308 63.4956 97.25C63.318 97.1908 63.1162 97.1612 62.8901 97.1612C62.6119 97.1612 62.3627 97.2044 62.1426 97.2908C61.9236 97.376 61.7372 97.5009 61.5833 97.6654C61.4306 97.8288 61.314 98.0277 61.2335 98.262C61.1542 98.4952 61.1145 98.7604 61.1145 99.0575C61.1145 99.3593 61.1542 99.6274 61.2335 99.8618C61.314 100.096 61.4324 100.294 61.5886 100.455C61.746 100.616 61.9408 100.738 62.1728 100.821C62.4048 100.905 62.6723 100.947 62.9753 100.947C63.1055 100.947 63.234 100.934 63.3606 100.909C63.4873 100.885 63.5991 100.857 63.6962 100.828C63.7933 100.798 63.8631 100.776 63.9057 100.762L64.0051 101.089C63.9318 101.12 63.8359 101.15 63.7175 101.181C63.6003 101.212 63.4748 101.237 63.3411 101.257C63.2085 101.278 63.0819 101.288 62.9611 101.288ZM62.7551 99.8743C62.9138 99.8743 63.0422 99.8423 63.1404 99.7784C63.2387 99.7144 63.3103 99.618 63.3553 99.489C63.4003 99.3599 63.4228 99.1972 63.4228 99.0007C63.4228 98.8018 63.3979 98.6467 63.3482 98.5355C63.2985 98.4242 63.2251 98.3461 63.128 98.3011C63.031 98.2561 62.9114 98.2336 62.7694 98.2336C62.6344 98.2336 62.519 98.2691 62.4231 98.3402C62.3284 98.41 62.2556 98.5035 62.2047 98.6207C62.155 98.7367 62.1301 98.8634 62.1301 99.0007C62.1301 99.1522 62.1503 99.2948 62.1905 99.4286C62.2308 99.5612 62.2965 99.6689 62.3876 99.7517C62.4788 99.8334 62.6013 99.8743 62.7551 99.8743ZM65.5486 100.329V97.6015H65.9534V98.0277H65.9889C66.0457 97.8821 66.1375 97.769 66.2641 97.6885C66.3908 97.6069 66.5429 97.566 66.7204 97.566C66.9004 97.566 67.0501 97.6069 67.1697 97.6885C67.2904 97.769 67.3845 97.8821 67.452 98.0277H67.4804C67.5502 97.8868 67.655 97.7749 67.7947 97.6921C67.9343 97.608 68.1018 97.566 68.2971 97.566C68.541 97.566 68.7404 97.6424 68.8955 97.7951C69.0506 97.9466 69.1281 98.1827 69.1281 98.5035V100.329H68.7091V98.5035C68.7091 98.3023 68.654 98.1585 68.5439 98.072C68.4339 97.9856 68.3042 97.9424 68.1551 97.9424C67.9633 97.9424 67.8148 98.0004 67.7094 98.1164C67.6041 98.2313 67.5514 98.3769 67.5514 98.5532V100.329H67.1253V98.4609C67.1253 98.3058 67.075 98.181 66.9743 98.0863C66.8737 97.9904 66.7441 97.9424 66.5855 97.9424C66.4766 97.9424 66.3748 97.9714 66.2801 98.0294C66.1866 98.0874 66.1108 98.1679 66.0528 98.2709C65.996 98.3727 65.9676 98.4905 65.9676 98.6243V100.329H65.5486ZM70.6968 100.393C70.524 100.393 70.3672 100.36 70.2263 100.295C70.0854 100.229 69.9736 100.133 69.8907 100.009C69.8079 99.8837 69.7664 99.7322 69.7664 99.5546C69.7664 99.3984 69.7972 99.2717 69.8588 99.1747C69.9203 99.0764 70.0026 98.9995 70.1056 98.9439C70.2085 98.8882 70.3222 98.8468 70.4465 98.8196C70.5719 98.7912 70.698 98.7687 70.8247 98.7521C70.9904 98.7308 71.1247 98.7148 71.2277 98.7042C71.3319 98.6923 71.4076 98.6728 71.455 98.6456C71.5035 98.6183 71.5278 98.571 71.5278 98.5035V98.4893C71.5278 98.3141 71.4798 98.178 71.384 98.0809C71.2893 97.9839 71.1454 97.9353 70.9525 97.9353C70.7525 97.9353 70.5956 97.9791 70.482 98.0667C70.3683 98.1543 70.2884 98.2478 70.2423 98.3473L69.8445 98.2052C69.9156 98.0395 70.0103 97.9105 70.1286 97.8181C70.2482 97.7246 70.3784 97.6595 70.5193 97.6228C70.6613 97.585 70.801 97.566 70.9383 97.566C71.0259 97.566 71.1265 97.5767 71.2401 97.598C71.355 97.6181 71.4656 97.6601 71.5722 97.724C71.6799 97.788 71.7693 97.8844 71.8403 98.0135C71.9113 98.1425 71.9468 98.3153 71.9468 98.5319V100.329H71.5278V99.9595H71.5065C71.4781 100.019 71.4307 100.082 71.3644 100.149C71.2981 100.217 71.21 100.274 71.0999 100.322C70.9898 100.369 70.8554 100.393 70.6968 100.393ZM70.7607 100.016C70.9265 100.016 71.0661 99.9837 71.1798 99.9186C71.2946 99.8535 71.381 99.7695 71.439 99.6665C71.4982 99.5635 71.5278 99.4552 71.5278 99.3416V98.9581C71.51 98.9794 71.471 98.9989 71.4106 99.0167C71.3514 99.0332 71.2828 99.048 71.2046 99.061C71.1277 99.0729 71.0525 99.0835 70.9791 99.093C70.9069 99.1013 70.8483 99.1084 70.8034 99.1143C70.6945 99.1285 70.5927 99.1516 70.498 99.1836C70.4044 99.2143 70.3287 99.2611 70.2707 99.3238C70.2139 99.3854 70.1855 99.4694 70.1855 99.576C70.1855 99.7216 70.2393 99.8316 70.347 99.9062C70.4559 99.9796 70.5938 100.016 70.7607 100.016ZM72.7116 100.329V97.6015H73.1307V100.329H72.7116ZM72.9247 97.147C72.843 97.147 72.7726 97.1192 72.7134 97.0635C72.6554 97.0079 72.6264 96.941 72.6264 96.8629C72.6264 96.7848 72.6554 96.7179 72.7134 96.6622C72.7726 96.6066 72.843 96.5788 72.9247 96.5788C73.0064 96.5788 73.0762 96.6066 73.1342 96.6622C73.1934 96.7179 73.223 96.7848 73.223 96.8629C73.223 96.941 73.1934 97.0079 73.1342 97.0635C73.0762 97.1192 73.0064 97.147 72.9247 97.147ZM74.3172 96.6924V100.329H73.8982V96.6924H74.3172ZM75.3901 100.357C75.3025 100.357 75.2273 100.326 75.1646 100.263C75.1019 100.2 75.0705 100.125 75.0705 100.038C75.0705 99.95 75.1019 99.8748 75.1646 99.8121C75.2273 99.7494 75.3025 99.718 75.3901 99.718C75.4777 99.718 75.5529 99.7494 75.6156 99.8121C75.6783 99.8748 75.7097 99.95 75.7097 100.038C75.7097 100.096 75.6949 100.149 75.6653 100.197C75.6369 100.246 75.5984 100.285 75.5499 100.315C75.5025 100.343 75.4493 100.357 75.3901 100.357ZM61.9739 106.386C61.7182 106.386 61.498 106.325 61.3134 106.205C61.1287 106.084 60.9867 105.917 60.8873 105.706C60.7878 105.494 60.7381 105.252 60.7381 104.979C60.7381 104.702 60.789 104.458 60.8908 104.246C60.9938 104.033 61.137 103.867 61.3205 103.747C61.5051 103.626 61.7206 103.566 61.9668 103.566C62.1586 103.566 62.3314 103.602 62.4853 103.673C62.6391 103.744 62.7652 103.843 62.8635 103.971C62.9617 104.099 63.0227 104.248 63.0463 104.418H62.6273C62.5953 104.294 62.5243 104.184 62.4142 104.088C62.3053 103.991 62.1586 103.942 61.9739 103.942C61.8105 103.942 61.6673 103.985 61.5442 104.07C61.4223 104.154 61.327 104.273 61.2583 104.427C61.1909 104.58 61.1571 104.759 61.1571 104.965C61.1571 105.176 61.1903 105.359 61.2566 105.516C61.324 105.672 61.4187 105.793 61.5407 105.88C61.6638 105.966 61.8082 106.009 61.9739 106.009C62.0828 106.009 62.1816 105.99 62.2704 105.952C62.3592 105.914 62.4344 105.86 62.4959 105.789C62.5575 105.718 62.6013 105.633 62.6273 105.533H63.0463C63.0227 105.694 62.9641 105.839 62.8706 105.968C62.7782 106.096 62.6557 106.198 62.503 106.274C62.3515 106.348 62.1751 106.386 61.9739 106.386ZM64.7669 106.386C64.5207 106.386 64.3046 106.327 64.1188 106.21C63.9341 106.093 63.7897 105.929 63.6855 105.718C63.5826 105.507 63.5311 105.261 63.5311 104.979C63.5311 104.695 63.5826 104.447 63.6855 104.235C63.7897 104.024 63.9341 103.859 64.1188 103.742C64.3046 103.625 64.5207 103.566 64.7669 103.566C65.0131 103.566 65.2285 103.625 65.4132 103.742C65.599 103.859 65.7434 104.024 65.8464 104.235C65.9506 104.447 66.0027 104.695 66.0027 104.979C66.0027 105.261 65.9506 105.507 65.8464 105.718C65.7434 105.929 65.599 106.093 65.4132 106.21C65.2285 106.327 65.0131 106.386 64.7669 106.386ZM64.7669 106.009C64.9539 106.009 65.1078 105.961 65.2285 105.865C65.3493 105.769 65.4386 105.643 65.4966 105.487C65.5546 105.331 65.5836 105.162 65.5836 104.979C65.5836 104.797 65.5546 104.627 65.4966 104.47C65.4386 104.312 65.3493 104.185 65.2285 104.088C65.1078 103.991 64.9539 103.942 64.7669 103.942C64.5798 103.942 64.426 103.991 64.3052 104.088C64.1845 104.185 64.0951 104.312 64.0371 104.47C63.9791 104.627 63.9501 104.797 63.9501 104.979C63.9501 105.162 63.9791 105.331 64.0371 105.487C64.0951 105.643 64.1845 105.769 64.3052 105.865C64.426 105.961 64.5798 106.009 64.7669 106.009ZM66.6423 106.329V103.602H67.0471V104.028H67.0827C67.1395 103.882 67.2312 103.769 67.3579 103.689C67.4845 103.607 67.6366 103.566 67.8142 103.566C67.9941 103.566 68.1439 103.607 68.2634 103.689C68.3841 103.769 68.4782 103.882 68.5457 104.028H68.5741C68.644 103.887 68.7487 103.775 68.8884 103.692C69.0281 103.608 69.1956 103.566 69.3909 103.566C69.6347 103.566 69.8342 103.642 69.9893 103.795C70.1443 103.947 70.2219 104.183 70.2219 104.504V106.329H69.8028V104.504C69.8028 104.302 69.7478 104.158 69.6377 104.072C69.5276 103.986 69.398 103.942 69.2488 103.942C69.0571 103.942 68.9085 104 68.8032 104.116C68.6978 104.231 68.6452 104.377 68.6452 104.553V106.329H68.219V104.461C68.219 104.306 68.1687 104.181 68.0681 104.086C67.9675 103.99 67.8379 103.942 67.6792 103.942C67.5703 103.942 67.4685 103.971 67.3738 104.029C67.2803 104.087 67.2046 104.168 67.1466 104.271C67.0898 104.373 67.0613 104.49 67.0613 104.624V106.329H66.6423Z" fill="black"/>
</g>
<path d="M61.9938 104.732L62.0336 103.638L61.1088 104.225L60.8702 103.807L61.8446 103.3L60.8702 102.793L61.1088 102.375L62.0336 102.962L61.9938 101.868H62.4711L62.4313 102.962L63.356 102.375L63.5946 102.793L62.6202 103.3L63.5946 103.807L63.356 104.225L62.4313 103.638L62.4711 104.732H61.9938ZM65.4938 104.732L65.5336 103.638L64.6088 104.225L64.3702 103.807L65.3446 103.3L64.3702 102.793L64.6088 102.375L65.5336 102.962L65.4938 101.868H65.9711L65.9313 102.962L66.856 102.375L67.0946 102.793L66.1202 103.3L67.0946 103.807L66.856 104.225L65.9313 103.638L65.9711 104.732H65.4938ZM68.9938 104.732L69.0336 103.638L68.1088 104.225L67.8702 103.807L68.8446 103.3L67.8702 102.793L68.1088 102.375L69.0336 102.962L68.9938 101.868H69.4711L69.4313 102.962L70.356 102.375L70.5946 102.793L69.6202 103.3L70.5946 103.807L70.356 104.225L69.4313 103.638L69.4711 104.732H68.9938ZM61.9938 112.732L62.0336 111.638L61.1088 112.225L60.8702 111.807L61.8446 111.3L60.8702 110.793L61.1088 110.375L62.0336 110.962L61.9938 109.868H62.4711L62.4313 110.962L63.356 110.375L63.5946 110.793L62.6202 111.3L63.5946 111.807L63.356 112.225L62.4313 111.638L62.4711 112.732H61.9938ZM65.4938 112.732L65.5336 111.638L64.6088 112.225L64.3702 111.807L65.3446 111.3L64.3702 110.793L64.6088 110.375L65.5336 110.962L65.4938 109.868H65.9711L65.9313 110.962L66.856 110.375L67.0946 110.793L66.1202 111.3L67.0946 111.807L66.856 112.225L65.9313 111.638L65.9711 112.732H65.4938ZM68.9938 112.732L69.0336 111.638L68.1088 112.225L67.8702 111.807L68.8446 111.3L67.8702 110.793L68.1088 110.375L69.0336 110.962L68.9938 109.868H69.4711L69.4313 110.962L70.356 110.375L70.5946 110.793L69.6202 111.3L70.5946 111.807L70.356 112.225L69.4313 111.638L69.4711 112.732H68.9938ZM61.9938 120.732L62.0336 119.638L61.1088 120.225L60.8702 119.807L61.8446 119.3L60.8702 118.793L61.1088 118.375L62.0336 118.962L61.9938 117.868H62.4711L62.4313 118.962L63.356 118.375L63.5946 118.793L62.6202 119.3L63.5946 119.807L63.356 120.225L62.4313 119.638L62.4711 120.732H61.9938Z" fill="black"/>
<path opacity="0.2" d="M90.4905 89.1924V92.5716H95.2777V89.1924H90.4905ZM94.4945 89.562L92.8841 90.662L91.2693 89.562H94.4945ZM90.8557 92.202V89.7248L92.8841 91.1064L94.9081 89.7248V92.202H90.8557Z" fill="black"/>
<g opacity="0.2">
<path d="M94.0149 100.522V100.113C94.0137 99.865 93.9146 99.6273 93.7391 99.4518C93.5636 99.2763 93.3259 99.1772 93.0777 99.176H92.5673C92.3191 99.1772 92.0814 99.2763 91.9059 99.4518C91.7304 99.6273 91.6313 99.865 91.6301 100.113V100.522H90.8601V103.334H94.9037V100.522H94.0149ZM91.9997 100.113C91.9997 99.9627 92.0595 99.8183 92.166 99.7118C92.2724 99.6054 92.4168 99.5456 92.5673 99.5456H93.0777C93.2282 99.5456 93.3726 99.6054 93.4791 99.7118C93.5855 99.8183 93.6453 99.9627 93.6453 100.113V100.522H91.9997V100.113ZM94.5385 102.964H91.2297V100.892H94.5385V102.964Z" fill="black"/>
<path d="M92.7785 102.04V102.375H92.9897V102.04C93.0205 102.023 93.0461 101.997 93.0639 101.966C93.0817 101.935 93.091 101.9 93.0909 101.864C93.0952 101.834 93.0931 101.804 93.0846 101.775C93.0761 101.746 93.0614 101.719 93.0416 101.696C93.0218 101.673 92.9972 101.655 92.9697 101.642C92.9421 101.629 92.9122 101.623 92.8819 101.623C92.8516 101.623 92.8216 101.629 92.794 101.642C92.7665 101.655 92.742 101.673 92.7221 101.696C92.7023 101.719 92.6876 101.746 92.6791 101.775C92.6706 101.804 92.6685 101.834 92.6729 101.864C92.6736 101.9 92.6838 101.936 92.7023 101.966C92.7208 101.997 92.7471 102.023 92.7785 102.04Z" fill="black"/>
</g>
<path d="M154.731 64.086H142.089C141.057 64.086 140.066 64.4963 139.336 65.2265C138.606 65.9568 138.195 66.9472 138.195 67.98V78.98C138.195 80.0128 138.606 81.0032 139.336 81.7335C140.066 82.4637 141.057 82.874 142.089 82.874H147.088L148.408 86.3456L149.728 82.874H154.726C155.237 82.874 155.743 82.7732 156.216 82.5775C156.688 82.3818 157.117 82.0949 157.478 81.7332C157.839 81.3716 158.126 80.9423 158.321 80.4698C158.516 79.9974 158.616 79.4912 158.616 78.98V67.98C158.616 67.4692 158.516 66.9633 158.321 66.4912C158.126 66.0191 157.84 65.5899 157.48 65.2283C157.119 64.8668 156.69 64.5798 156.219 64.3838C155.747 64.1878 155.241 64.0866 154.731 64.086Z" fill="#90CAF9"/>
<path opacity="0.7" d="M154.731 64.086H142.089C141.057 64.086 140.066 64.4963 139.336 65.2265C138.606 65.9568 138.195 66.9472 138.195 67.98V78.98C138.195 80.0128 138.606 81.0032 139.336 81.7335C140.066 82.4637 141.057 82.874 142.089 82.874H147.088L148.408 86.3456L149.728 82.874H154.726C155.237 82.874 155.743 82.7732 156.216 82.5775C156.688 82.3818 157.117 82.0949 157.478 81.7332C157.839 81.3716 158.126 80.9423 158.321 80.4698C158.516 79.9974 158.616 79.4912 158.616 78.98V67.98C158.616 67.4692 158.516 66.9633 158.321 66.4912C158.126 66.0191 157.84 65.5899 157.48 65.2283C157.119 64.8668 156.69 64.5798 156.219 64.3838C155.747 64.1878 155.241 64.0866 154.731 64.086Z" fill="white"/>
<path d="M147.752 76.2344C147.669 76.2346 147.586 76.2166 147.51 76.1816C147.434 76.1467 147.366 76.0956 147.312 76.032L144.848 73.1324C144.749 73.0157 144.7 72.8644 144.713 72.7117C144.725 72.5591 144.797 72.4176 144.914 72.3184C145.031 72.2192 145.182 72.1704 145.335 72.1828C145.487 72.1952 145.629 72.2677 145.728 72.3844L147.752 74.7692L151.092 70.8092C151.191 70.6925 151.332 70.62 151.485 70.6076C151.638 70.5952 151.789 70.644 151.906 70.7432C152.022 70.8424 152.095 70.9839 152.107 71.1365C152.12 71.2892 152.071 71.4405 151.972 71.5572L148.192 76.032C148.138 76.0952 148.07 76.1459 147.994 76.1808C147.918 76.2158 147.836 76.234 147.752 76.2344Z" fill="white"/>
<path d="M152.844 77.8678C155.294 75.4175 155.294 71.4448 152.844 68.9945C150.394 66.5442 146.421 66.5442 143.971 68.9945C141.52 71.4448 141.52 75.4175 143.971 77.8678C146.421 80.3181 150.394 80.3181 152.844 77.8678Z" fill="#90CAF9"/>
<path d="M171.904 183.37H174.808L168.868 149.846H165.964L171.904 183.37Z" fill="#263238"/>
<path d="M108.033 183.37H110.942L105.002 149.846H102.093L108.033 183.37Z" fill="#263238"/>
<path opacity="0.3" d="M171.904 183.37H174.808L168.868 149.846H165.964L171.904 183.37Z" fill="white"/>
<path opacity="0.3" d="M108.033 183.37H110.942L105.002 149.846H102.093L108.033 183.37Z" fill="white"/>
<path d="M82.7597 169.55H170.386V166.606H82.7597V169.55Z" fill="#263238"/>
<path opacity="0.5" d="M82.7597 169.55H170.386V166.606H82.7597V169.55Z" fill="white"/>
<path d="M145.108 183.37H142.204L148.144 149.846H151.048L145.108 183.37Z" fill="#263238"/>
<path d="M81.2417 183.37H78.3333L84.2733 149.846H87.1817L81.2417 183.37Z" fill="#263238"/>
<path opacity="0.3" d="M145.108 183.37H142.204L148.144 149.846H151.048L145.108 183.37Z" fill="white"/>
<path opacity="0.3" d="M81.2417 183.37H78.3333L84.2733 149.846H87.1817L81.2417 183.37Z" fill="white"/>
<path d="M107.589 148.54H110.48L115.32 121.634H112.429L107.589 148.54Z" fill="#263238"/>
<path opacity="0.3" d="M107.589 148.54H110.48L115.32 121.634H112.429L107.589 148.54Z" fill="white"/>
<path d="M165.004 148.54H167.895L172.735 121.634H169.844L165.004 148.54Z" fill="#263238"/>
<path d="M136.294 148.54H139.185L144.025 121.634H141.134L136.294 148.54Z" fill="#263238"/>
<path opacity="0.3" d="M165.004 148.54H167.895L172.735 121.634H169.844L165.004 148.54Z" fill="white"/>
<path opacity="0.3" d="M136.294 148.54H139.185L144.025 121.634H141.134L136.294 148.54Z" fill="white"/>
<path d="M102.595 123.473H178.526L179.432 118.439H103.501L102.595 123.473Z" fill="#263238"/>
<path d="M100.958 132.581H176.889L177.795 127.547H101.864L100.958 132.581Z" fill="#263238"/>
<path d="M99.3169 141.689H175.248L176.154 136.655H100.223L99.3169 141.689Z" fill="#263238"/>
<path d="M77.7262 151.232H174.495V147.748H77.7262V151.232Z" fill="#263238"/>
<path opacity="0.5" d="M102.595 123.473H178.526L179.432 118.439H103.501L102.595 123.473Z" fill="white"/>
<path opacity="0.5" d="M100.958 132.581H176.889L177.795 127.547H101.864L100.958 132.581Z" fill="white"/>
<path opacity="0.5" d="M99.3169 141.689H175.248L176.154 136.655H100.223L99.3169 141.689Z" fill="white"/>
<path opacity="0.5" d="M77.7262 151.232H174.495V147.748H77.7262V151.232Z" fill="white"/>
<path opacity="0.2" d="M77.7262 151.232H150.735V147.748H77.7262V151.232Z" fill="white"/>
<path d="M143.26 111.852C141.214 114.013 136.308 119.306 133.272 119.214C130.068 118.87 126.487 113.934 124.78 111.434C124.64 111.213 124.583 110.949 124.62 110.69C124.658 110.43 124.786 110.193 124.983 110.02C125.18 109.847 125.432 109.75 125.694 109.746C125.956 109.743 126.211 109.833 126.412 110C128.498 111.734 131.454 114.448 133.421 115.24C133.122 115.24 133.065 115.302 133.338 115.13C135.81 113.37 137.9 110.986 140.048 108.847C142.094 106.854 145.112 109.674 143.26 111.852Z" fill="#E9B376"/>
<path d="M142.142 107.91V114.215C142.142 114.215 140.822 115.324 139.172 116.547C138.354 117.159 137.461 117.797 136.625 118.338C135.353 119.165 134.209 119.772 133.628 119.737C131.895 119.632 128.133 116.943 128.133 116.943L130.605 112.825C130.605 112.825 133.448 114.563 133.628 114.682C133.809 114.8 139.771 107.95 142.142 107.91Z" fill="#90CAF9"/>
<path opacity="0.2" d="M139.172 116.547C138.354 117.159 137.461 117.797 136.625 118.338C136.823 114.721 138.525 113.331 138.525 113.331C139.022 114.327 139.245 115.437 139.172 116.547Z" fill="black"/>
<path d="M144.545 91.3308C141.509 93.808 141.869 100.936 145.279 105.613C145.279 105.613 152.566 106.225 156.614 104.412C160.662 102.599 156.174 91.058 151.91 90.1516C149.394 89.601 146.763 90.0222 144.545 91.3308Z" fill="#263238"/>
<path d="M144.725 98.736C143.612 96.8176 142.525 91.6388 147.132 90.0416C152.909 88.044 155.492 91.7268 155.998 95.3788C156.504 99.0308 154.44 101.79 150.621 101.517C146.802 101.244 145.49 100.065 144.725 98.736Z" fill="#263238"/>
<path d="M138.521 113.331C137.958 116.002 138.961 122.294 139.111 127.037L152.715 128.603C152.715 127.116 152.993 124.96 153.881 121.532C154.387 119.526 155.118 117.08 156.117 114.079C156.262 113.639 156.416 113.199 156.557 112.71C156.735 112.24 156.807 111.735 156.766 111.233C156.725 110.731 156.573 110.244 156.32 109.809C156.067 109.373 155.72 109 155.304 108.715C154.888 108.431 154.414 108.243 153.917 108.165C153.345 108.073 152.737 107.994 152.117 107.932C149.928 107.657 147.722 107.541 145.517 107.584C144.8 107.606 144.052 107.659 143.339 107.721C140.8 107.936 139.04 110.832 138.521 113.331Z" fill="#263238"/>
<path d="M152.051 100.5C151.369 102.586 150.458 106.427 151.76 107.91C151.76 107.91 149.772 107.505 145.376 109.908C144.236 108.077 145.182 107.562 145.182 107.562C147.616 107.122 147.774 105.362 147.576 103.721L152.051 100.5Z" fill="#EBB376"/>
<path opacity="0.2" d="M150.229 101.812L147.589 103.717C147.642 104.106 147.66 104.499 147.642 104.892C148.562 104.808 149.926 103.888 150.141 102.956C150.24 102.583 150.27 102.195 150.229 101.812Z" fill="black"/>
<path d="M152.962 95.6296C153.01 99.11 153.103 100.584 151.483 102.494C149.055 105.367 144.765 104.663 143.678 101.266C142.701 98.186 142.798 93.0248 146.08 91.3924C146.804 91.0296 147.608 90.8577 148.417 90.893C149.226 90.9283 150.012 91.1696 150.701 91.594C151.391 92.0184 151.96 92.6119 152.356 93.3182C152.751 94.0244 152.96 94.8201 152.962 95.6296Z" fill="#FFB573"/>
<path d="M150.009 92.3736C149.046 93.5836 151.241 97.394 152.975 98.0408C156.341 96.932 152.891 88.7612 150.009 92.3736Z" fill="#263238"/>
<path d="M145.887 90.75C144.606 91.3132 143.405 93.72 143.247 94.6176C145.152 94.7628 150.058 92.5628 150.058 92.5628C150.058 92.5628 153.512 93.1964 151.655 91.6388C149.798 90.0812 145.887 90.75 145.887 90.75Z" fill="#263238"/>
<path d="M147.171 97.0464C147.171 97.328 147.061 97.5656 146.877 97.5832C146.692 97.6008 146.525 97.3764 146.503 97.0948C146.481 96.8132 146.617 96.5756 146.802 96.558C146.987 96.5404 147.149 96.7648 147.171 97.0464Z" fill="#263238"/>
<path d="M143.981 97.284C143.981 97.5656 143.871 97.8076 143.686 97.8208C143.502 97.834 143.334 97.6184 143.312 97.3368C143.29 97.0552 143.427 96.8132 143.612 96.8C143.796 96.7868 143.959 97.0024 143.981 97.284Z" fill="#263238"/>
<path d="M143.691 96.8L143 96.6548C143 96.6548 143.387 97.1652 143.691 96.8Z" fill="#263238"/>
<path d="M145.337 97.636C145.129 98.2988 144.833 98.9307 144.457 99.5148C144.609 99.606 144.779 99.6631 144.955 99.6821C145.131 99.7011 145.309 99.6815 145.477 99.6248L145.337 97.636Z" fill="#ED893E"/>
<path d="M147.105 100.615C146.969 100.647 146.831 100.669 146.692 100.681C146.67 100.681 146.648 100.672 146.633 100.656C146.617 100.641 146.608 100.619 146.608 100.597C146.608 100.575 146.617 100.554 146.633 100.538C146.648 100.522 146.67 100.514 146.692 100.514C147.044 100.496 147.388 100.395 147.694 100.219C148 100.043 148.259 99.7975 148.452 99.5016C148.457 99.4922 148.464 99.4839 148.472 99.4772C148.48 99.4706 148.49 99.4656 148.5 99.4628C148.51 99.4599 148.521 99.4591 148.532 99.4605C148.542 99.4619 148.553 99.4654 148.562 99.4708C148.581 99.4811 148.595 99.4983 148.601 99.5187C148.608 99.5392 148.606 99.5615 148.597 99.5808C148.431 99.8446 148.213 100.072 147.957 100.25C147.7 100.427 147.411 100.552 147.105 100.615Z" fill="#263238"/>
<path d="M154.137 98.736C154.044 99.0565 153.889 99.3555 153.681 99.616C153.472 99.8765 153.215 100.093 152.922 100.254C152.139 100.694 151.549 100.021 151.602 99.176C151.651 98.4192 152.117 97.284 152.988 97.2048C153.178 97.1927 153.367 97.228 153.54 97.3075C153.712 97.387 153.862 97.5081 153.976 97.6601C154.09 97.812 154.164 97.9899 154.192 98.1777C154.22 98.3656 154.201 98.5574 154.137 98.736Z" fill="#FFB573"/>
<path d="M148.72 96.2192C148.685 96.2261 148.65 96.2222 148.617 96.2081C148.585 96.1939 148.558 96.1701 148.54 96.14C148.144 95.4844 147.158 95.4052 147.149 95.4052C147.105 95.4023 147.064 95.3819 147.034 95.3484C147.005 95.315 146.99 95.2713 146.993 95.227C146.996 95.1827 147.016 95.1413 147.05 95.112C147.083 95.0827 147.127 95.0679 147.171 95.0708C147.22 95.0708 148.342 95.1676 148.826 95.9508C148.848 95.9888 148.855 96.0341 148.844 96.077C148.834 96.1199 148.806 96.1568 148.768 96.1796L148.72 96.2192Z" fill="#263238"/>
<path d="M143.246 95.8012C143.218 95.808 143.188 95.8072 143.161 95.7986C143.133 95.7901 143.108 95.7743 143.088 95.7528C143.072 95.7376 143.06 95.7195 143.052 95.6995C143.043 95.6794 143.039 95.6579 143.039 95.6362C143.039 95.6145 143.043 95.5929 143.052 95.5729C143.06 95.5529 143.072 95.5348 143.088 95.5196C143.273 95.3317 143.501 95.1914 143.753 95.111C144.004 95.0305 144.271 95.0122 144.531 95.0576C144.552 95.0625 144.572 95.0715 144.59 95.0841C144.607 95.0967 144.622 95.1127 144.634 95.1311C144.645 95.1495 144.653 95.1699 144.656 95.1913C144.66 95.2127 144.659 95.2345 144.654 95.2556C144.649 95.2767 144.64 95.2966 144.628 95.3142C144.615 95.3318 144.599 95.3468 144.581 95.3582C144.563 95.3696 144.542 95.3773 144.521 95.3809C144.499 95.3844 144.477 95.3837 144.456 95.3788C144.25 95.3473 144.039 95.3651 143.841 95.4309C143.643 95.4967 143.463 95.6085 143.317 95.7572C143.297 95.777 143.273 95.7921 143.246 95.8012Z" fill="#263238"/>
<path d="M146.881 96.5712L146.19 96.426C146.19 96.426 146.577 96.9276 146.881 96.5712Z" fill="#263238"/>
<path d="M134.517 109.424L134.847 110.453C134.908 110.644 135.013 110.817 135.155 110.959C135.297 111.101 135.47 111.206 135.661 111.267L137.474 111.848C137.831 111.963 138.21 111.991 138.58 111.929C138.95 111.867 139.299 111.717 139.599 111.492L139.973 111.21C139.533 109.45 137.795 107.892 137.795 107.892L137.355 107.386C137.265 107.281 137.156 107.195 137.033 107.132C136.91 107.069 136.776 107.031 136.638 107.02C136.5 107.009 136.362 107.025 136.23 107.067C136.099 107.11 135.977 107.178 135.872 107.268L134.864 108.148C134.688 108.303 134.561 108.507 134.499 108.733C134.437 108.96 134.444 109.2 134.517 109.424Z" fill="#EBB376"/>
<path d="M122.32 110.365L122.65 111.399C122.712 111.59 122.819 111.763 122.961 111.905C123.103 112.046 123.277 112.152 123.468 112.213L125.277 112.794C125.634 112.908 126.013 112.935 126.383 112.873C126.752 112.811 127.102 112.662 127.402 112.438L127.78 112.156C127.34 110.396 125.58 108.834 125.58 108.834L125.14 108.332C125.051 108.226 124.942 108.139 124.818 108.075C124.695 108.011 124.56 107.973 124.422 107.962C124.283 107.951 124.144 107.967 124.012 108.01C123.88 108.054 123.758 108.123 123.653 108.214L122.646 109.094C122.475 109.252 122.353 109.456 122.295 109.681C122.238 109.907 122.246 110.144 122.32 110.365Z" fill="#EBB376"/>
<path opacity="0.2" d="M148.632 115.892C149.512 118.47 151.743 120.393 153.881 121.532C154.387 119.526 155.118 117.08 156.116 114.079C154.774 112.204 152.896 110.871 150.502 111.232C150.502 111.232 147.748 113.282 148.632 115.892Z" fill="black"/>
<path d="M100.351 167.046L102.648 167.974C102.648 167.974 122.162 138.538 123.97 139.643C130.513 143.651 143.964 150.814 150.33 146.476C156.697 142.138 152.918 130.702 152.918 130.702C152.918 130.702 140.536 126.355 139.005 129.043C138.601 129.845 138.25 130.673 137.953 131.52C137.636 132.37 137.39 133.087 137.39 133.087C137.016 132.911 124.881 127.072 119.165 129.479C113.353 131.921 100.351 167.046 100.351 167.046Z" fill="#EBB376"/>
<path d="M142.67 148.047C142.67 148.047 136.532 148.447 128.124 145.592C128.124 145.592 126.051 169.035 124.656 181.76L121.84 181.364C121.84 181.364 117.049 146.63 117.995 142.397C118.941 138.164 124.08 137.883 124.08 137.883C124.08 137.883 133.879 145.086 142.67 148.047Z" fill="#EBB376"/>
<path d="M142.67 148.047C138.526 148.097 134.395 147.584 130.39 146.52L131.19 143.185C134.284 145.231 138.6 146.476 142.67 148.047Z" fill="#90CAF9"/>
<path opacity="0.4" d="M142.67 148.047C138.526 148.097 134.395 147.584 130.39 146.52L131.19 143.185C134.284 145.231 138.6 146.476 142.67 148.047Z" fill="white"/>
<path d="M130.671 142.846L129.937 146.56L131.054 146.942L131.917 143.664L130.671 142.846Z" fill="#90CAF9"/>
<path opacity="0.6" d="M130.671 142.846L129.937 146.56L131.054 146.942L131.917 143.664L130.671 142.846Z" fill="white"/>
<path opacity="0.2" d="M119.016 157.159C118.576 147.919 118.382 143.15 119.896 141.244C120.895 140.067 122.271 139.271 123.79 138.992C125.761 143.986 134.35 147.101 134.587 147.184C137.795 147.849 142.547 148.02 142.666 148.064C138.556 147.228 134.654 145.583 131.186 143.224C128.71 141.592 126.337 139.81 124.08 137.887C124.08 137.887 118.954 138.164 118.008 142.397C117.621 144.131 118.193 150.96 119.002 158.435C119.03 158.01 119.034 157.584 119.016 157.159Z" fill="black"/>
<path d="M98.0585 165.114C98.0285 165.045 98.0208 164.968 98.0366 164.894C98.0523 164.819 98.0907 164.752 98.1465 164.701C98.1821 164.656 98.2268 164.619 98.2776 164.592C98.3283 164.566 98.3841 164.55 98.4413 164.547C98.7387 164.561 99.0265 164.657 99.2729 164.824C99.0573 164.542 98.8901 164.239 98.9649 164.05C99.0133 163.926 99.1365 163.86 99.3345 163.86C99.4213 163.858 99.5075 163.874 99.5873 163.909C99.6671 163.943 99.7385 163.994 99.7965 164.058C100.179 164.476 100.096 165.431 100.096 165.475C100.098 165.49 100.098 165.505 100.096 165.519C100.098 165.526 100.098 165.534 100.096 165.541C100.086 165.543 100.075 165.543 100.065 165.541H100.03C99.6185 165.551 99.2073 165.52 98.8021 165.449C98.4369 165.409 98.1465 165.299 98.0585 165.114ZM98.4589 164.754C98.4294 164.754 98.4004 164.761 98.3738 164.774C98.3472 164.787 98.3237 164.806 98.3049 164.828C98.2037 164.952 98.2301 165.009 98.2389 165.026C98.3445 165.238 99.0793 165.343 99.6997 165.361C99.3433 165.092 98.7845 164.723 98.4589 164.754ZM99.3389 164.063C99.2817 164.063 99.1805 164.063 99.1585 164.124C99.0969 164.287 99.4753 164.793 99.9021 165.233C99.9333 164.868 99.8437 164.504 99.6469 164.195C99.5917 164.132 99.5176 164.089 99.4357 164.072L99.3389 164.063Z" fill="#263238"/>
<path d="M119.086 179.353C119.03 179.302 118.991 179.235 118.973 179.161C118.956 179.087 118.962 179.01 118.989 178.939C119.003 178.884 119.028 178.831 119.063 178.786C119.098 178.74 119.141 178.703 119.192 178.675C119.469 178.559 119.774 178.522 120.072 178.57C119.755 178.407 119.478 178.204 119.464 178.002C119.464 177.87 119.548 177.76 119.715 177.672C119.794 177.635 119.879 177.616 119.966 177.616C120.053 177.616 120.138 177.635 120.217 177.672C120.745 177.883 121.097 178.781 121.097 178.82C121.101 178.836 121.101 178.853 121.097 178.869C121.094 178.883 121.086 178.895 121.075 178.904L121.053 178.926C120.549 179.19 120.002 179.363 119.438 179.436C119.315 179.45 119.19 179.421 119.086 179.353ZM119.297 178.851C119.27 178.864 119.246 178.884 119.227 178.907C119.208 178.931 119.194 178.958 119.187 178.988C119.148 179.142 119.187 179.181 119.214 179.194C119.398 179.34 120.094 179.12 120.674 178.869C120.239 178.781 119.574 178.688 119.297 178.851ZM119.79 177.857C119.737 177.883 119.649 177.932 119.654 177.989C119.654 178.16 120.221 178.455 120.802 178.666C120.671 178.326 120.434 178.037 120.124 177.844C120.077 177.823 120.026 177.812 119.975 177.813C119.911 177.813 119.847 177.828 119.79 177.857Z" fill="#263238"/>
<path d="M104.095 166.984C104.223 166.694 100.575 165.295 100.575 165.295C100.575 165.295 97.3941 166.5 95.0577 166.025C92.7213 165.55 93.2977 167.345 95.6737 168.436L101.491 171.12C103.185 171.89 102.797 169.985 104.095 166.984Z" fill="#263238"/>
<path d="M125.343 178.446C125.343 178.13 121.458 178.424 121.458 178.424C121.458 178.424 119.099 180.88 116.789 181.452C114.479 182.024 115.791 183.401 118.382 183.37L124.789 183.291C126.628 183.269 125.457 181.72 125.343 178.446Z" fill="#263238"/>
<path d="M152.918 130.702C152.918 130.702 140.536 126.355 139.005 129.043C138.603 129.846 138.252 130.674 137.953 131.52C137.636 132.37 137.39 133.087 137.39 133.087L136.374 132.62L132.229 144.998C138.829 148.658 148.144 149.081 151.963 146.48C158.316 142.142 152.918 130.702 152.918 130.702Z" fill="#90CAF9"/>
<g opacity="0.4">
<path d="M152.918 130.702C152.918 130.702 140.536 126.355 139.005 129.043C138.603 129.846 138.252 130.674 137.953 131.52C137.636 132.37 137.39 133.087 137.39 133.087L136.374 132.62L132.229 144.998C138.829 148.658 148.144 149.081 151.963 146.48C158.316 142.142 152.918 130.702 152.918 130.702Z" fill="white"/>
</g>
<path opacity="0.3" d="M137.39 133.087L144.531 136.118C144.531 136.118 140.866 133.038 137.931 131.52C137.637 132.37 137.39 133.087 137.39 133.087Z" fill="black"/>
<path d="M138.829 129.382L139.08 126.328L152.918 128.168L153.098 131.116L138.829 129.382Z" fill="#90CAF9"/>
<path opacity="0.4" d="M138.829 129.382L139.08 126.328L152.918 128.168L153.098 131.116L138.829 129.382Z" fill="white"/>
<path d="M139.106 126.628L139.832 126.733L139.608 129.114L139.009 129.043L139.106 126.628Z" fill="#263238"/>
<path d="M140.519 126.83L148.32 127.965L148.117 130.13L140.299 129.197L140.519 126.83Z" fill="#263238"/>
<path d="M152.918 130.702L148.804 130.214L149.006 128.066L152.72 128.603L152.918 130.702Z" fill="#263238"/>
<path opacity="0.2" d="M139.106 126.628L139.832 126.733L139.608 129.114L139.009 129.043L139.106 126.628Z" fill="black"/>
<path opacity="0.2" d="M140.519 126.83L148.32 127.965L148.117 130.13L140.299 129.197L140.519 126.83Z" fill="black"/>
<path opacity="0.2" d="M152.918 130.702L148.804 130.214L149.006 128.066L152.72 128.603L152.918 130.702Z" fill="black"/>
<path d="M144.65 130.002H144.567L142.345 129.708C142.262 129.697 142.183 129.67 142.111 129.628C142.04 129.587 141.977 129.531 141.927 129.466C141.875 129.4 141.837 129.325 141.815 129.245C141.794 129.165 141.788 129.082 141.799 128.999L141.997 127.512C142.006 127.426 142.032 127.343 142.074 127.268C142.115 127.192 142.172 127.126 142.239 127.072C142.372 126.971 142.54 126.927 142.705 126.949L144.927 127.244C145.01 127.254 145.09 127.28 145.162 127.322C145.234 127.363 145.297 127.418 145.348 127.484C145.399 127.55 145.436 127.625 145.457 127.705C145.479 127.786 145.484 127.87 145.473 127.952L145.275 129.439C145.259 129.594 145.186 129.737 145.071 129.841C144.955 129.945 144.805 130.002 144.65 130.002ZM142.622 127.398C142.58 127.398 142.54 127.412 142.507 127.437C142.467 127.469 142.441 127.514 142.433 127.565L142.239 129.052C142.235 129.077 142.236 129.102 142.242 129.126C142.248 129.15 142.259 129.173 142.274 129.193C142.306 129.233 142.351 129.26 142.402 129.268L144.624 129.562C144.674 129.569 144.726 129.555 144.766 129.523C144.806 129.492 144.833 129.446 144.839 129.395L145.037 127.908C145.043 127.858 145.028 127.807 144.998 127.767C144.966 127.727 144.921 127.7 144.87 127.692L142.648 127.398H142.622Z" fill="white"/>
<path d="M144.76 128.823H144.725L143.942 128.696C143.913 128.691 143.886 128.681 143.861 128.666C143.837 128.651 143.815 128.632 143.799 128.608C143.782 128.585 143.77 128.558 143.763 128.53C143.757 128.502 143.756 128.473 143.761 128.445C143.771 128.388 143.803 128.336 143.849 128.302C143.896 128.267 143.955 128.252 144.012 128.26L144.795 128.388C144.854 128.392 144.908 128.42 144.946 128.464C144.984 128.509 145.002 128.567 144.998 128.625C144.993 128.684 144.965 128.738 144.921 128.776C144.876 128.814 144.818 128.832 144.76 128.828V128.823Z" fill="white"/>
<path d="M135.775 131.762L136.928 132.37L133.016 145.666L131.375 145.341L135.775 131.762Z" fill="#90CAF9"/>
<path opacity="0.6" d="M135.775 131.762L136.928 132.37L133.016 145.666L131.375 145.341L135.775 131.762Z" fill="white"/>
<path d="M134.851 118.36H125.171C124.987 118.357 124.81 118.286 124.675 118.161C124.54 118.036 124.455 117.866 124.436 117.682L123.086 104.812C123.076 104.726 123.085 104.639 123.112 104.557C123.139 104.475 123.183 104.399 123.241 104.335C123.299 104.271 123.37 104.22 123.45 104.185C123.529 104.151 123.615 104.134 123.702 104.135H133.382C133.566 104.138 133.743 104.209 133.88 104.334C134.016 104.458 134.102 104.629 134.121 104.812L135.467 117.682C135.477 117.769 135.469 117.856 135.442 117.939C135.416 118.021 135.372 118.097 135.313 118.161C135.255 118.226 135.184 118.277 135.104 118.311C135.024 118.345 134.938 118.362 134.851 118.36Z" fill="#263238"/>
<path opacity="0.6" d="M134.851 118.36H125.171C124.987 118.357 124.81 118.286 124.675 118.161C124.54 118.036 124.455 117.866 124.436 117.682L123.086 104.812C123.076 104.726 123.085 104.639 123.112 104.557C123.139 104.475 123.183 104.399 123.241 104.335C123.299 104.271 123.37 104.22 123.45 104.185C123.529 104.151 123.615 104.134 123.702 104.135H133.382C133.566 104.138 133.743 104.209 133.88 104.334C134.016 104.458 134.102 104.629 134.121 104.812L135.467 117.682C135.477 117.769 135.469 117.856 135.442 117.939C135.416 118.021 135.372 118.097 135.313 118.161C135.255 118.226 135.184 118.277 135.104 118.311C135.024 118.345 134.938 118.362 134.851 118.36Z" fill="white"/>
<path opacity="0.2" d="M134.446 118.36H125.158C124.974 118.357 124.797 118.286 124.662 118.161C124.526 118.036 124.442 117.866 124.423 117.682L123.072 104.812C123.063 104.726 123.072 104.639 123.099 104.557C123.126 104.475 123.17 104.399 123.228 104.335C123.286 104.271 123.357 104.22 123.437 104.185C123.516 104.151 123.602 104.134 123.688 104.135H132.977C133.161 104.138 133.338 104.209 133.473 104.334C133.608 104.459 133.693 104.629 133.712 104.812L135.08 117.66C135.094 117.75 135.088 117.841 135.062 117.928C135.036 118.014 134.991 118.094 134.93 118.161C134.869 118.228 134.794 118.281 134.711 118.315C134.627 118.35 134.537 118.365 134.446 118.36Z" fill="white"/>
<path d="M128.793 110.172C128.658 110.17 128.525 110.196 128.402 110.25C128.278 110.303 128.168 110.382 128.077 110.482C127.987 110.581 127.919 110.699 127.878 110.827C127.836 110.954 127.823 111.09 127.838 111.223C127.865 111.508 127.996 111.774 128.206 111.969C128.416 112.163 128.691 112.274 128.977 112.279C129.112 112.281 129.245 112.254 129.369 112.2C129.492 112.146 129.602 112.066 129.693 111.966C129.783 111.866 129.851 111.749 129.892 111.62C129.933 111.492 129.947 111.357 129.932 111.223C129.647 111.217 129.373 111.107 129.163 110.913C128.953 110.72 128.821 110.456 128.793 110.172Z" fill="#263238"/>
<path opacity="0.3" d="M130.891 105.134H125.77C125.644 105.131 125.521 105.093 125.415 105.025C125.31 104.957 125.225 104.86 125.171 104.746L124.863 104.113H131.622L131.424 104.746C131.389 104.86 131.319 104.959 131.222 105.029C131.126 105.099 131.01 105.136 130.891 105.134Z" fill="black"/>
<path d="M155.61 134.583H153.811C153.811 134.583 151.562 127.833 150.251 122.113C149.885 120.6 149.605 119.068 149.411 117.524C149.223 115.813 149.372 114.082 149.851 112.429C150.304 110.793 151.079 109.264 152.13 107.932L151.765 107.91C155.17 107.875 157.01 109.054 157.238 111.175C157.467 113.296 153.718 125.88 153.525 127.56C153.331 129.241 155.61 134.583 155.61 134.583Z" fill="#90CAF9"/>
<path d="M143.986 107.672C143.986 107.672 140.382 113.348 139.419 115.76C138.455 118.171 139.009 125.079 139.009 125.079C139.009 125.079 137.166 116.767 138.349 112.649C139.533 108.53 141.588 107.686 143.986 107.672Z" fill="#90CAF9"/>
<path d="M156.323 112.79C154.427 115.509 149.899 121.893 146.001 120.397C143.946 119.46 142.481 117.757 141.121 116.107C139.937 114.615 138.876 113.029 137.949 111.364C137.798 111.13 137.742 110.847 137.792 110.573C137.842 110.299 137.995 110.054 138.219 109.889C138.444 109.723 138.723 109.65 138.999 109.682C139.276 109.715 139.53 109.853 139.709 110.066C140.959 111.364 142.261 112.666 143.559 113.872C144.69 114.893 146.142 116.222 147.453 116.701C147.361 116.659 147.263 116.634 147.163 116.626C147.088 116.626 147.105 116.626 147.163 116.578C149.363 115.073 151.052 112.486 152.685 110.334C154.383 107.989 157.863 110.334 156.332 112.79H156.323Z" fill="#E9B376"/>
<path opacity="0.2" d="M155.848 114.4C155.848 114.4 152.68 119.803 150.251 122.096C149.885 120.583 149.605 119.051 149.411 117.506C149.223 115.796 149.372 114.064 149.851 112.411L152.359 110.343C153.604 109.318 155.848 114.4 155.848 114.4Z" fill="black"/>
<path d="M156.073 109.419C157.731 110.299 157.23 112.706 155.056 115.548C152.883 118.391 148.949 122.232 146.881 121.532C144.813 120.833 142.481 118.083 142.481 118.083L143.99 113.824C143.99 113.824 146.951 116.072 147.567 115.958C148.183 115.843 151.202 111.936 152.073 110.726C152.944 109.516 154.273 108.447 156.073 109.419Z" fill="#90CAF9"/>
<path d="M125.149 109.67L125.088 110.515C125.07 110.733 124.979 110.939 124.83 111.098C124.68 111.258 124.481 111.363 124.265 111.395L123.116 111.566L123.389 108.486L124.348 108.654C124.584 108.693 124.797 108.82 124.945 109.007C125.093 109.195 125.166 109.431 125.149 109.67Z" fill="#FFB573"/>
</svg>
