<svg width="350" height="350" viewBox="0 0 350 350" fill="none" xmlns="http://www.w3.org/2000/svg">
<path d="M350 267.68H0V267.855H350V267.68Z" fill="#EBEBEB"/>
<path d="M59.906 274.344H36.722V274.519H59.906V274.344Z" fill="#EBEBEB"/>
<path d="M152.523 272.447H119.798V272.622H152.523V272.447Z" fill="#EBEBEB"/>
<path d="M92.393 279.755H78.96V279.93H92.393V279.755Z" fill="#EBEBEB"/>
<path d="M239.778 276.717H218.631V276.892H239.778V276.717Z" fill="#EBEBEB"/>
<path d="M259.532 276.717H246.008V276.892H259.532V276.717Z" fill="#EBEBEB"/>
<path d="M314.937 279.671H273.945V279.846H314.937V279.671Z" fill="#EBEBEB"/>
<path d="M165.9 236.46H30.7369C29.6781 236.458 28.6632 236.036 27.9152 235.287C27.1671 234.537 26.7469 233.522 26.7469 232.463V42.462C26.7562 41.4092 27.1804 40.4026 27.9275 39.6608C28.6745 38.9189 29.6841 38.5018 30.7369 38.5H165.9C166.96 38.5 167.977 38.9211 168.726 39.6707C169.476 40.4203 169.897 41.4369 169.897 42.497V232.463C169.897 233.523 169.476 234.54 168.726 235.289C167.977 236.039 166.96 236.46 165.9 236.46ZM30.7369 38.64C29.7245 38.6419 28.7542 39.0453 28.0389 39.7619C27.3237 40.4785 26.9219 41.4496 26.9219 42.462V232.463C26.9219 233.475 27.3237 234.447 28.0389 235.163C28.7542 235.88 29.7245 236.283 30.7369 236.285H165.9C166.913 236.283 167.884 235.88 168.6 235.164C169.317 234.447 169.72 233.476 169.722 232.463V42.462C169.72 41.4489 169.317 40.4778 168.6 39.7615C167.884 39.0451 166.913 38.6419 165.9 38.64H30.7369Z" fill="#EBEBEB"/>
<path d="M317.317 236.46H182.147C181.088 236.458 180.072 236.036 179.323 235.287C178.574 234.538 178.152 233.522 178.15 232.463V42.462C178.161 41.4086 178.587 40.402 179.335 39.6603C180.083 38.9187 181.094 38.5018 182.147 38.5H317.317C318.369 38.5036 319.376 38.9216 320.122 39.6632C320.868 40.4048 321.291 41.4104 321.3 42.462V232.463C321.3 233.521 320.881 234.535 320.134 235.284C319.388 236.034 318.375 236.456 317.317 236.46ZM182.147 38.64C181.134 38.6419 180.163 39.0451 179.447 39.7615C178.73 40.4778 178.327 41.4489 178.325 42.462V232.463C178.327 233.476 178.73 234.447 179.447 235.164C180.163 235.88 181.134 236.283 182.147 236.285H317.317C318.33 236.283 319.301 235.88 320.018 235.164C320.734 234.447 321.137 233.476 321.139 232.463V42.462C321.137 41.4489 320.734 40.4778 320.018 39.7615C319.301 39.0451 318.33 38.6419 317.317 38.64H182.147Z" fill="#EBEBEB"/>
<path d="M204.995 65.163H48.0551V163.373H204.995V65.163Z" fill="#F0F0F0"/>
<path d="M201.929 158.76V69.783L51.1279 69.783V158.76H201.929Z" fill="#FAFAFA"/>
<path d="M70.973 158.753L86.443 69.776H97.853L82.383 158.753H70.973Z" fill="white"/>
<path d="M85.015 158.753L100.485 69.776H105.588L90.118 158.753H85.015Z" fill="white"/>
<path d="M109.977 158.753L125.447 69.776H136.85L121.38 158.753H109.977Z" fill="white"/>
<path d="M138.733 158.753L154.203 69.776H159.306L143.836 158.753H138.733Z" fill="white"/>
<path d="M91.525 158.753V69.776H90.748V158.753H91.525Z" fill="#E0E0E0"/>
<path d="M51.905 158.753L51.905 69.776H51.128L51.128 158.753H51.905Z" fill="#E0E0E0"/>
<path d="M90.748 158.753V69.776H87.675V158.753H90.748Z" fill="#F0F0F0"/>
<path d="M129.598 158.76V69.783H128.821V158.76H129.598Z" fill="#E0E0E0"/>
<path d="M128.814 158.76V69.783H125.741V158.76H128.814Z" fill="#F0F0F0"/>
<path d="M167.685 158.753V69.776H166.908V158.753H167.685Z" fill="#E0E0E0"/>
<path d="M166.908 158.753V69.776H163.835V158.753H166.908Z" fill="#F0F0F0"/>
<path d="M205.772 163.373V65.163H204.995V163.373H205.772Z" fill="#E0E0E0"/>
<path d="M220.941 58.415H41.083C40.8137 58.4132 40.5559 58.3059 40.3648 58.1161C40.1738 57.9264 40.0647 57.6693 40.061 57.4C40.061 57.1283 40.1685 56.8676 40.3599 56.6749C40.5514 56.4821 40.8113 56.3729 41.083 56.371H220.941C221.076 56.371 221.21 56.3976 221.335 56.4493C221.46 56.501 221.573 56.5768 221.669 56.6724C221.764 56.7679 221.84 56.8814 221.892 57.0062C221.943 57.1311 221.97 57.2649 221.97 57.4C221.966 57.6705 221.856 57.9286 221.664 58.1186C221.471 58.3085 221.212 58.415 220.941 58.415Z" fill="#E0E0E0"/>
<g opacity="0.8">
<path d="M111.846 54.39H43.603V186.991H111.846V54.39Z" fill="#F5F5F5"/>
<path d="M70.343 188.454H64.624L66.234 55.853H68.789L70.343 188.454Z" fill="#E6E6E6"/>
<path d="M57.729 188.454H54.964L55.741 55.853H56.973L57.729 188.454Z" fill="#E6E6E6"/>
<path d="M86.933 188.454H84.168L84.945 55.853H86.177L86.933 188.454Z" fill="#E6E6E6"/>
<path d="M100.982 188.454H98.224L98.994 55.853H100.233L100.982 188.454Z" fill="#E6E6E6"/>
</g>
<g opacity="0.8">
<path d="M217.42 54.383H183.302V186.984H217.42V54.383Z" fill="#F5F5F5"/>
<path d="M196.672 188.447H193.816L194.614 55.853H195.895L196.672 188.447Z" fill="#E6E6E6"/>
<path d="M190.365 188.447H188.986L189.371 55.853H189.987L190.365 188.447Z" fill="#E6E6E6"/>
<path d="M204.967 188.447H203.588L203.973 55.853H204.589L204.967 188.447Z" fill="#E6E6E6"/>
<path d="M211.988 188.447H210.609L211.001 55.853H211.617L211.988 188.447Z" fill="#E6E6E6"/>
</g>
<path d="M181.503 266.483H188.069V199.549H181.503V266.483Z" fill="#F0F0F0"/>
<path d="M44.961 199.556L189.665 199.556V195.552L44.961 195.552V199.556Z" fill="#F0F0F0"/>
<path d="M49.238 267.68H185.395V266.483H49.238V267.68Z" fill="#F0F0F0"/>
<path d="M181.503 199.549H46.564V266.483H181.503V199.549Z" fill="#FAFAFA"/>
<path d="M176.036 207.004H52.045V227.542H176.036V207.004Z" fill="#F0F0F0"/>
<path d="M176.036 237.216H52.045V257.754H176.036V237.216Z" fill="#F0F0F0"/>
<path d="M71.022 208.992H157.052C157.756 208.992 158.326 208.422 158.326 207.718V207.074C158.326 206.37 157.756 205.8 157.052 205.8H71.022C70.3184 205.8 69.7481 206.37 69.7481 207.074V207.718C69.7481 208.422 70.3184 208.992 71.022 208.992Z" fill="#FAFAFA"/>
<path d="M71.022 239.19H157.052C157.756 239.19 158.326 238.62 158.326 237.916V237.272C158.326 236.568 157.756 235.998 157.052 235.998H71.022C70.3184 235.998 69.7481 236.568 69.7481 237.272V237.916C69.7481 238.62 70.3184 239.19 71.022 239.19Z" fill="#FAFAFA"/>
<path d="M290.918 264.564C295.07 260.411 295.07 253.679 290.918 249.527C286.765 245.374 280.033 245.374 275.88 249.527C271.728 253.679 271.728 260.411 275.88 264.564C280.033 268.716 286.765 268.716 290.918 264.564Z" fill="#EBEBEB"/>
<path d="M299.726 267.673C307.052 267.673 312.991 261.734 312.991 254.408C312.991 247.082 307.052 241.143 299.726 241.143C292.4 241.143 286.461 247.082 286.461 254.408C286.461 261.734 292.4 267.673 299.726 267.673Z" fill="#F5F5F5"/>
<path d="M233.03 155.267H307.783V61.971L233.03 61.971V155.267Z" fill="#E6E6E6"/>
<path d="M229.747 155.267H306.663V61.971L229.747 61.971V155.267Z" fill="#F5F5F5"/>
<path d="M304.318 152.663V64.575H232.085V152.663H304.318Z" fill="#FAFAFA"/>
<path d="M268.205 124.25C281.837 124.25 292.887 113.2 292.887 99.568C292.887 85.9365 281.837 74.886 268.205 74.886C254.574 74.886 243.523 85.9365 243.523 99.568C243.523 113.2 254.574 124.25 268.205 124.25Z" fill="white"/>
<path d="M232.764 152.663V64.575H232.092V152.663H232.764Z" fill="#E6E6E6"/>
<path d="M294.385 94.297C290.808 92.344 285.922 93.975 284.011 94.619C282.1 95.263 277.242 97.055 275.702 93.919C275.001 92.5322 273.929 91.367 272.606 90.5529C271.282 89.7388 269.759 89.3078 268.205 89.3078C266.651 89.3078 265.128 89.7388 263.804 90.5529C262.481 91.367 261.409 92.5322 260.708 93.919C259.168 97.048 254.31 95.263 252.399 94.619C250.488 93.975 245.595 92.344 242.025 94.297C238.455 96.25 241.325 101.528 244.692 103.817C248.059 106.106 252.168 101.717 248.36 100.723C244.552 99.729 242.76 99.057 243.264 96.719C243.768 94.381 248.71 94.934 252.553 95.774L253.435 95.977C255.903 96.5748 258.124 97.928 259.786 99.8478C261.449 101.768 262.471 104.159 262.71 106.687V106.75C262.913 108.941 262.612 113.463 262.5 115.906C262.388 118.349 264.509 123.928 264.691 125.881C264.873 127.834 268.191 127.869 268.191 127.869C268.191 127.869 271.516 127.785 271.691 125.881C271.866 123.977 273.994 118.272 273.889 115.906C273.784 113.54 273.476 108.906 273.679 106.75V106.68C273.92 104.151 274.945 101.76 276.61 99.8416C278.275 97.9229 280.498 96.5719 282.968 95.977L283.836 95.774C287.679 94.934 292.649 94.374 293.125 96.719C293.601 99.064 291.837 99.722 288.029 100.723C284.221 101.724 288.316 106.099 291.697 103.817C295.078 101.535 297.955 96.243 294.385 94.297Z" fill="#F0F0F0"/>
<path opacity="0.9" d="M295.743 96.887C295.731 96.3967 295.585 95.9189 295.321 95.5056C295.057 95.0922 294.685 94.759 294.245 94.542C293.033 93.923 291.685 93.6173 290.325 93.653C288.198 93.7308 286.097 94.1491 284.102 94.892L283.885 94.962H283.843C281.585 95.8516 279.143 96.1737 276.731 95.9C274.701 95.564 271.558 94.815 268.205 94.815C264.852 94.815 261.709 95.564 259.7 95.9C257.292 96.1778 254.852 95.8605 252.595 94.976H252.553L252.336 94.906C250.341 94.1639 248.24 93.7456 246.113 93.667C244.753 93.6313 243.405 93.937 242.193 94.556C241.753 94.773 241.381 95.1062 241.117 95.5196C240.853 95.9329 240.707 96.4107 240.695 96.901C240.583 99.246 242.739 102.144 244.895 103.593C245.454 103.982 246.118 104.192 246.799 104.195C248.283 104.195 249.522 103.201 249.634 102.312C249.711 101.717 249.249 101.255 248.325 101.01C244.685 100.058 242.48 99.337 243.026 96.677C243.285 95.417 244.636 94.78 247.044 94.78C248.929 94.828 250.805 95.0625 252.644 95.48L253.533 95.69C258.706 96.943 266.833 101.346 267.302 106.645V106.708C267.477 108.542 267.869 107.247 267.736 109.753C267.736 110.278 267.687 110.761 267.666 111.153C267.603 112.504 264.866 115.031 265.517 117.264C265.965 118.874 266.357 124.964 266.434 125.818C266.462 126.273 266.663 126.7 266.996 127.012C267.328 127.324 267.767 127.498 268.222 127.498C268.678 127.498 269.117 127.324 269.449 127.012C269.782 126.7 269.983 126.273 270.011 125.818C270.088 124.992 270.48 118.874 270.935 117.264C271.558 115.031 268.835 112.504 268.779 111.153C268.779 110.733 268.737 110.25 268.709 109.753C268.576 107.247 268.975 108.542 269.143 106.708V106.638C269.647 101.339 277.753 96.936 282.933 95.683L283.808 95.48C285.647 95.0616 287.523 94.8271 289.408 94.78C291.816 94.78 293.167 95.417 293.426 96.677C293.965 99.337 291.76 100.058 288.12 101.01C287.203 101.255 286.72 101.71 286.811 102.312C286.93 103.201 288.162 104.195 289.611 104.195C290.294 104.192 290.961 103.983 291.522 103.593C293.699 102.13 295.848 99.232 295.743 96.887Z" fill="#E0E0E0"/>
<path d="M260.785 100.877C260.722 101.423 260.673 102.501 258.867 103.929C257.6 104.93 254.1 105.21 252.7 104.3C252.677 104.197 252.64 104.098 252.588 104.006C252.63 103.889 252.651 103.766 252.651 103.642C252.651 103.487 252.616 103.333 252.55 103.193C252.483 103.052 252.386 102.928 252.266 102.83C252.311 102.706 252.334 102.576 252.336 102.445C252.336 102.18 252.235 101.924 252.053 101.732C251.87 101.539 251.621 101.423 251.356 101.409C251.359 101.346 251.359 101.283 251.356 101.22C251.357 101.083 251.331 100.947 251.278 100.82C251.226 100.693 251.15 100.577 251.053 100.48C250.956 100.383 250.84 100.307 250.713 100.255C250.586 100.202 250.45 100.176 250.313 100.177C250.193 100.177 250.075 100.198 249.963 100.24C249.887 100.044 249.753 99.8756 249.579 99.7569C249.406 99.6382 249.2 99.5748 248.99 99.575C248.811 99.577 248.636 99.6243 248.481 99.7124C248.325 99.8006 248.194 99.9267 248.101 100.079C248.004 99.9585 247.882 99.8614 247.742 99.7947C247.603 99.7281 247.45 99.6936 247.296 99.694C247.019 99.694 246.754 99.8039 246.558 99.9995C246.363 100.195 246.253 100.46 246.253 100.737C246.253 100.834 246.267 100.931 246.295 101.024C246.075 101.095 245.885 101.237 245.754 101.428C245.624 101.619 245.56 101.847 245.574 102.078C245.588 102.309 245.678 102.529 245.83 102.703C245.982 102.877 246.187 102.995 246.414 103.04C246.372 103.149 246.35 103.266 246.351 103.383C246.351 103.66 246.461 103.925 246.656 104.121C246.852 104.316 247.117 104.426 247.394 104.426C247.609 104.426 247.819 104.36 247.996 104.237C247.965 104.332 247.948 104.431 247.947 104.531C247.947 104.808 248.057 105.073 248.252 105.269C248.448 105.464 248.713 105.574 248.99 105.574C249.248 105.578 249.497 105.486 249.69 105.315C249.774 105.499 249.909 105.654 250.079 105.763C250.249 105.873 250.447 105.931 250.649 105.931C250.803 105.931 250.956 105.897 251.095 105.83C251.235 105.764 251.357 105.666 251.454 105.546C251.533 105.557 251.613 105.557 251.692 105.546H251.769L252.007 105.679C252.357 105.866 252.728 106.01 253.113 106.106C254.148 106.36 255.227 106.377 256.27 106.155C257.322 105.939 258.285 105.412 259.035 104.643C259.654 103.956 260.382 103.376 261.191 102.928C261.399 102.836 261.618 102.77 261.842 102.732C261.863 102.074 261.548 101.101 260.785 100.877Z" fill="#FAFAFA"/>
<path d="M290.794 102.011C290.795 101.793 290.728 101.58 290.602 101.402C290.477 101.224 290.299 101.09 290.094 101.017C290.122 100.924 290.136 100.827 290.136 100.73C289.16 100.506 288.232 100.113 287.392 99.568C287.183 99.5683 286.978 99.6319 286.806 99.7506C286.633 99.8694 286.501 100.038 286.426 100.233C286.312 100.191 286.191 100.169 286.069 100.17C285.792 100.17 285.527 100.28 285.331 100.475C285.136 100.671 285.026 100.936 285.026 101.213C285.019 101.276 285.019 101.339 285.026 101.402C284.761 101.416 284.512 101.532 284.329 101.725C284.147 101.917 284.046 102.173 284.046 102.438C284.044 102.57 284.068 102.7 284.116 102.823C283.994 102.92 283.895 103.043 283.827 103.184C283.759 103.325 283.724 103.479 283.724 103.635C283.78 103.738 283.805 103.855 283.796 103.971C283.788 104.088 283.745 104.2 283.675 104.293C282.275 105.21 278.81 104.93 277.536 103.929C275.723 102.529 275.681 101.423 275.618 100.877C274.855 101.101 274.54 102.074 274.533 102.746C274.76 102.784 274.981 102.849 275.191 102.942C275.997 103.39 276.724 103.97 277.34 104.657C278.1 105.431 279.076 105.958 280.14 106.169C281.183 106.391 282.262 106.374 283.297 106.12C283.682 106.024 284.053 105.88 284.403 105.693L284.634 105.56H284.718C284.795 105.571 284.872 105.571 284.949 105.56C285.326 105.358 285.747 105.253 286.174 105.253C286.601 105.253 287.022 105.358 287.399 105.56C287.676 105.56 287.941 105.45 288.136 105.254C288.332 105.059 288.442 104.794 288.442 104.517C288.443 104.417 288.429 104.318 288.4 104.223C288.556 104.332 288.739 104.395 288.929 104.407C289.119 104.419 289.308 104.379 289.477 104.291C289.646 104.203 289.787 104.071 289.886 103.908C289.985 103.746 290.037 103.559 290.038 103.369C290.038 103.252 290.019 103.137 289.982 103.026C290.212 102.974 290.418 102.845 290.565 102.66C290.713 102.476 290.793 102.247 290.794 102.011Z" fill="#FAFAFA"/>
<path d="M288.435 141.876H247.968C247.343 141.874 246.744 141.625 246.302 141.183C245.86 140.741 245.611 140.142 245.609 139.517C245.611 138.892 245.86 138.293 246.302 137.851C246.744 137.409 247.343 137.16 247.968 137.158H288.435C289.06 137.16 289.659 137.409 290.101 137.851C290.543 138.293 290.792 138.892 290.794 139.517C290.792 140.142 290.543 140.741 290.101 141.183C289.659 141.625 289.06 141.874 288.435 141.876Z" fill="white"/>
<path d="M175 299.292C249.958 299.292 310.723 295.744 310.723 291.368C310.723 286.992 249.958 283.444 175 283.444C100.042 283.444 39.277 286.992 39.277 291.368C39.277 295.744 100.042 299.292 175 299.292Z" fill="#F5F5F5"/>
<path d="M137.116 192.906H134.288V280.833H137.116V192.906Z" fill="#90CAF9"/>
<path opacity="0.8" d="M137.116 192.906H134.288V280.833H137.116V192.906Z" fill="white"/>
<path d="M131.46 280.84H134.288V192.913H131.46V280.84Z" fill="#90CAF9"/>
<path opacity="0.7" d="M131.46 280.84H134.288V192.913H131.46V280.84Z" fill="white"/>
<path d="M134.288 285.859C135.506 285.859 136.493 284.872 136.493 283.654C136.493 282.436 135.506 281.449 134.288 281.449C133.07 281.449 132.083 282.436 132.083 283.654C132.083 284.872 133.07 285.859 134.288 285.859Z" fill="#263238"/>
<path d="M136.759 280.84H131.817V281.792H136.759V280.84Z" fill="#263238"/>
<path d="M189.476 192.906V186.263H135.205V192.906H189.476Z" fill="#90CAF9"/>
<path opacity="0.8" d="M189.476 192.906V186.263H135.205V192.906H189.476Z" fill="white"/>
<path d="M135.205 192.906V186.263H118.72V192.906H135.205Z" fill="#90CAF9"/>
<path opacity="0.7" d="M135.205 192.906V186.263H118.72V192.906H135.205Z" fill="white"/>
<path d="M125.755 192.906H122.927V280.833H125.755V192.906Z" fill="#90CAF9"/>
<path opacity="0.8" d="M125.755 192.906H122.927V280.833H125.755V192.906Z" fill="white"/>
<path d="M120.092 280.84H122.92L122.92 192.913H120.092L120.092 280.84Z" fill="#90CAF9"/>
<path opacity="0.7" d="M120.092 280.84H122.92L122.92 192.913H120.092L120.092 280.84Z" fill="white"/>
<path d="M122.927 285.859C124.145 285.859 125.132 284.872 125.132 283.654C125.132 282.436 124.145 281.449 122.927 281.449C121.709 281.449 120.722 282.436 120.722 283.654C120.722 284.872 121.709 285.859 122.927 285.859Z" fill="#263238"/>
<path d="M125.398 280.84H120.456V281.792H125.398V280.84Z" fill="#263238"/>
<path d="M187.894 192.906H185.066V280.833H187.894V192.906Z" fill="#90CAF9"/>
<path opacity="0.8" d="M187.894 192.906H185.066V280.833H187.894V192.906Z" fill="white"/>
<path d="M182.238 280.84H185.066V192.913H182.238V280.84Z" fill="#90CAF9"/>
<path opacity="0.7" d="M182.238 280.84H185.066V192.913H182.238V280.84Z" fill="white"/>
<path d="M187.271 283.654C187.271 284.09 187.142 284.516 186.899 284.879C186.657 285.242 186.313 285.524 185.91 285.691C185.507 285.858 185.064 285.902 184.636 285.817C184.208 285.732 183.815 285.522 183.507 285.213C183.198 284.905 182.988 284.512 182.903 284.084C182.818 283.656 182.862 283.213 183.029 282.81C183.196 282.407 183.478 282.063 183.841 281.821C184.204 281.578 184.63 281.449 185.066 281.449C185.65 281.451 186.21 281.684 186.623 282.097C187.036 282.51 187.269 283.07 187.271 283.654Z" fill="#263238"/>
<path d="M187.537 280.84H182.595V281.792H187.537V280.84Z" fill="#263238"/>
<path d="M176.533 192.906H173.705V280.833H176.533V192.906Z" fill="#90CAF9"/>
<path opacity="0.8" d="M176.533 192.906H173.705V280.833H176.533V192.906Z" fill="white"/>
<path d="M170.877 280.84H173.705V192.913H170.877V280.84Z" fill="#90CAF9"/>
<path opacity="0.7" d="M170.877 280.84H173.705V192.913H170.877V280.84Z" fill="white"/>
<path d="M175.91 283.654C175.911 284.092 175.783 284.521 175.54 284.886C175.298 285.25 174.952 285.535 174.548 285.703C174.143 285.872 173.698 285.916 173.268 285.831C172.838 285.746 172.444 285.535 172.134 285.225C171.824 284.915 171.613 284.521 171.528 284.091C171.443 283.661 171.487 283.216 171.656 282.811C171.824 282.407 172.109 282.061 172.473 281.819C172.838 281.576 173.267 281.448 173.705 281.449C174.289 281.451 174.849 281.684 175.262 282.097C175.675 282.51 175.908 283.07 175.91 283.654Z" fill="#263238"/>
<path d="M176.176 280.84H171.234V281.792H176.176V280.84Z" fill="#263238"/>
<path d="M133.294 235.123V231.147H120.722V235.123H133.294Z" fill="#90CAF9"/>
<path opacity="0.7" d="M133.294 235.123V231.147H120.722V235.123H133.294Z" fill="white"/>
<path d="M187.033 235.109V231.133H135.702V235.109H187.033Z" fill="#90CAF9"/>
<path opacity="0.8" d="M187.033 235.109V231.133H135.702V235.109H187.033Z" fill="white"/>
<path d="M155.505 219.835H149.828C149.144 219.835 148.589 220.39 148.589 221.074V229.901C148.589 230.585 149.144 231.14 149.828 231.14H155.505C156.189 231.14 156.744 230.585 156.744 229.901V221.074C156.744 220.39 156.189 219.835 155.505 219.835Z" fill="#90CAF9"/>
<path opacity="0.3" d="M155.505 219.835H149.828C149.144 219.835 148.589 220.39 148.589 221.074V229.901C148.589 230.585 149.144 231.14 149.828 231.14H155.505C156.189 231.14 156.744 230.585 156.744 229.901V221.074C156.744 220.39 156.189 219.835 155.505 219.835Z" fill="white"/>
<path d="M156.744 223.069H153.93V228.746H156.744V223.069Z" fill="white"/>
<path d="M153.146 223.069H150.332V228.746H153.146V223.069Z" fill="white"/>
<path d="M155.267 218.302H150.059C149.854 218.302 149.688 218.468 149.688 218.673V219.457C149.688 219.662 149.854 219.828 150.059 219.828H155.267C155.472 219.828 155.638 219.662 155.638 219.457V218.673C155.638 218.468 155.472 218.302 155.267 218.302Z" fill="#90CAF9"/>
<path d="M147.973 218.862H141.806C141.064 218.862 140.462 219.464 140.462 220.206V229.796C140.462 230.538 141.064 231.14 141.806 231.14H147.973C148.715 231.14 149.317 230.538 149.317 229.796V220.206C149.317 219.464 148.715 218.862 147.973 218.862Z" fill="#90CAF9"/>
<path opacity="0.5" d="M147.973 218.862H141.806C141.064 218.862 140.462 219.464 140.462 220.206V229.796C140.462 230.538 141.064 231.14 141.806 231.14H147.973C148.715 231.14 149.317 230.538 149.317 229.796V220.206C149.317 219.464 148.715 218.862 147.973 218.862Z" fill="white"/>
<path d="M148.386 222.376H143.353V228.543H148.386V222.376Z" fill="white"/>
<path d="M147.721 217.196H142.065C141.841 217.196 141.659 217.378 141.659 217.602V218.449C141.659 218.673 141.841 218.855 142.065 218.855H147.721C147.945 218.855 148.127 218.673 148.127 218.449V217.602C148.127 217.378 147.945 217.196 147.721 217.196Z" fill="#90CAF9"/>
<path d="M145.446 174.643H126.546V186.263H145.446V174.643Z" fill="#90CAF9"/>
<path opacity="0.2" d="M132.874 186.263H145.446V174.643H132.874V186.263Z" fill="white"/>
<path opacity="0.5" d="M126.546 179.438H145.446V174.636H126.546V179.438Z" fill="white"/>
<path opacity="0.5" d="M126.546 181.461H145.446V180.453H126.546V181.461Z" fill="white"/>
<path d="M144.438 182.525H133.882V185.199H144.438V182.525Z" fill="white"/>
<path d="M169.771 181.727C169.664 181.636 169.597 181.507 169.584 181.367C169.571 181.227 169.613 181.087 169.701 180.978L175.301 174.272C175.392 174.163 175.523 174.094 175.664 174.081C175.806 174.068 175.947 174.112 176.057 174.202C176.164 174.293 176.231 174.422 176.244 174.562C176.257 174.702 176.215 174.842 176.127 174.951L170.527 181.657C170.436 181.766 170.305 181.835 170.163 181.848C170.022 181.861 169.881 181.817 169.771 181.727Z" fill="#90CAF9"/>
<path d="M171.591 181.769C171.482 181.678 171.413 181.547 171.4 181.405C171.387 181.264 171.431 181.123 171.521 181.013L177.121 174.314C177.165 174.259 177.219 174.214 177.281 174.181C177.343 174.148 177.411 174.127 177.481 174.121C177.55 174.114 177.621 174.122 177.688 174.143C177.755 174.164 177.817 174.199 177.87 174.244C177.925 174.288 177.97 174.343 178.003 174.404C178.036 174.466 178.056 174.534 178.063 174.604C178.07 174.674 178.062 174.744 178.041 174.811C178.02 174.878 177.985 174.94 177.94 174.993L172.34 181.699C172.249 181.806 172.12 181.873 171.98 181.886C171.84 181.899 171.7 181.857 171.591 181.769Z" fill="#90CAF9"/>
<path d="M173.124 182.154C173.069 182.109 173.024 182.054 172.991 181.992C172.957 181.929 172.937 181.861 172.93 181.791C172.924 181.72 172.931 181.649 172.953 181.582C172.974 181.514 173.008 181.452 173.054 181.398L178.654 174.699C178.698 174.644 178.753 174.599 178.814 174.566C178.876 174.533 178.944 174.512 179.014 174.506C179.084 174.499 179.154 174.507 179.221 174.528C179.288 174.549 179.35 174.584 179.403 174.629C179.512 174.719 179.58 174.849 179.593 174.989C179.606 175.129 179.563 175.269 179.473 175.378L173.873 182.084C173.783 182.193 173.653 182.261 173.513 182.274C173.373 182.287 173.233 182.244 173.124 182.154Z" fill="#90CAF9"/>
<path d="M166.229 180.551C163.639 180.551 160.713 179.802 158.13 179.151C156.261 178.668 153.44 177.947 153.041 178.36C153.041 178.36 152.964 178.549 153.23 179.186C153.274 179.272 153.299 179.366 153.305 179.462C153.31 179.558 153.296 179.654 153.263 179.744C153.23 179.835 153.178 179.917 153.112 179.987C153.045 180.056 152.965 180.111 152.876 180.149C152.787 180.186 152.692 180.204 152.596 180.203C152.499 180.201 152.404 180.18 152.317 180.14C152.229 180.101 152.151 180.043 152.086 179.972C152.022 179.9 151.973 179.816 151.942 179.725C151.788 179.354 151.312 178.227 151.984 177.443C152.915 176.365 155.127 176.932 158.48 177.793C160.979 178.437 163.814 179.193 166.229 179.193C168.644 179.193 171.472 178.493 173.978 177.793C177.331 176.932 179.578 176.393 180.474 177.443C181.174 178.227 180.67 179.354 180.509 179.725C180.439 179.899 180.304 180.037 180.132 180.111C179.96 180.184 179.766 180.187 179.592 180.117C179.418 180.047 179.28 179.912 179.206 179.74C179.133 179.568 179.13 179.374 179.2 179.2C179.473 178.563 179.389 178.367 179.389 178.367C178.99 177.961 176.169 178.682 174.307 179.165C171.745 179.802 168.812 180.551 166.229 180.551Z" fill="#90CAF9"/>
<path opacity="0.5" d="M166.229 180.551C163.639 180.551 160.713 179.802 158.13 179.151C156.261 178.668 153.44 177.947 153.041 178.36C153.041 178.36 152.964 178.549 153.23 179.186C153.274 179.272 153.299 179.366 153.305 179.462C153.31 179.558 153.296 179.654 153.263 179.744C153.23 179.835 153.178 179.917 153.112 179.987C153.045 180.056 152.965 180.111 152.876 180.149C152.787 180.186 152.692 180.204 152.596 180.203C152.499 180.201 152.404 180.18 152.317 180.14C152.229 180.101 152.151 180.043 152.086 179.972C152.022 179.9 151.973 179.816 151.942 179.725C151.788 179.354 151.312 178.227 151.984 177.443C152.915 176.365 155.127 176.932 158.48 177.793C160.979 178.437 163.814 179.193 166.229 179.193C168.644 179.193 171.472 178.493 173.978 177.793C177.331 176.932 179.578 176.393 180.474 177.443C181.174 178.227 180.67 179.354 180.509 179.725C180.439 179.899 180.304 180.037 180.132 180.111C179.96 180.184 179.766 180.187 179.592 180.117C179.418 180.047 179.28 179.912 179.206 179.74C179.133 179.568 179.13 179.374 179.2 179.2C179.473 178.563 179.389 178.367 179.389 178.367C178.99 177.961 176.169 178.682 174.307 179.165C171.745 179.802 168.812 180.551 166.229 180.551Z" fill="white"/>
<path d="M166.229 179.851C159.824 179.851 150.689 174.951 152.586 179.445C154.483 183.939 159.705 186.263 166.229 186.263C172.753 186.263 177.968 183.953 179.865 179.445C181.762 174.937 172.634 179.851 166.229 179.851Z" fill="#90CAF9"/>
<path d="M128.625 125.79C128.681 126.1 128.845 126.38 129.087 126.581L131.187 128.359C131.386 128.526 131.628 128.634 131.885 128.671C132.142 128.708 132.405 128.673 132.643 128.569L134.743 127.624C136.796 126.707 138.626 125.356 140.105 123.662L140.602 123.102C140.802 122.873 140.954 122.606 141.049 122.318C141.145 122.029 141.182 121.725 141.158 121.422C141.135 121.119 141.051 120.823 140.913 120.553C140.774 120.283 140.583 120.043 140.35 119.847L138.194 118.034C137.782 117.684 137.258 117.492 136.717 117.492C136.176 117.492 135.652 117.684 135.24 118.034L132.727 120.19C132.727 120.19 128.149 122.955 128.625 125.79Z" fill="#FFB573"/>
<path d="M127.267 126.896C127.342 125.822 127.578 124.764 127.967 123.76C129.745 123.431 134.197 127.113 134.785 128.66C134.407 129.514 132.265 131.222 132.265 131.222C130.9 129.738 128.331 127.953 127.267 126.896Z" fill="#E0E0E0"/>
<path d="M108.99 115.381C109.606 117.481 110.278 119.581 110.957 121.681C111.636 123.781 112.357 125.881 113.057 127.981C113.757 130.081 114.541 132.083 115.339 134.008C115.738 134.974 116.151 135.905 116.564 136.731C116.76 137.144 116.963 137.501 117.131 137.809L117.236 137.984L117.285 138.068C117.234 138.002 117.169 137.947 117.096 137.907L116.662 137.55C116.484 137.453 116.293 137.382 116.095 137.34C115.896 137.3 115.692 137.3 115.493 137.34C115.283 137.424 115.647 137.382 116.123 137.095C117.433 136.233 118.612 135.186 119.623 133.987C120.878 132.558 122.047 131.055 123.123 129.486C123.683 128.688 124.236 127.862 124.761 127.029L125.545 125.776L126.245 124.558L135.163 129.178C134.869 129.773 134.631 130.235 134.358 130.753L133.637 132.3C133.091 133.285 132.522 134.262 131.929 135.233C130.723 137.228 129.4 139.149 127.967 140.987C127.194 141.964 126.37 142.899 125.496 143.787C124.511 144.805 123.427 145.725 122.262 146.531C120.714 147.628 118.939 148.362 117.068 148.68C115.819 148.868 114.546 148.815 113.316 148.526C112.087 148.226 110.926 147.696 109.893 146.965H109.858C109.725 146.867 109.578 146.748 109.452 146.636C109.186 146.391 108.927 146.132 108.675 145.866C108.423 145.6 108.318 145.453 108.143 145.236L107.898 144.928L107.709 144.669L107.338 144.137C106.911 143.486 106.54 142.87 106.211 142.289C105.553 141.12 105 140.007 104.475 138.908C103.425 136.71 102.501 134.554 101.605 132.398C100.709 130.242 99.869 128.093 99.043 125.937C98.217 123.781 97.426 121.646 96.635 119.413L108.99 115.381Z" fill="#90CAF9"/>
<path opacity="0.6" d="M108.99 115.381C109.606 117.481 110.278 119.581 110.957 121.681C111.636 123.781 112.357 125.881 113.057 127.981C113.757 130.081 114.541 132.083 115.339 134.008C115.738 134.974 116.151 135.905 116.564 136.731C116.76 137.144 116.963 137.501 117.131 137.809L117.236 137.984L117.285 138.068C117.234 138.002 117.169 137.947 117.096 137.907L116.662 137.55C116.484 137.453 116.293 137.382 116.095 137.34C115.896 137.3 115.692 137.3 115.493 137.34C115.283 137.424 115.647 137.382 116.123 137.095C117.433 136.233 118.612 135.186 119.623 133.987C120.878 132.558 122.047 131.055 123.123 129.486C123.683 128.688 124.236 127.862 124.761 127.029L125.545 125.776L126.245 124.558L135.163 129.178C134.869 129.773 134.631 130.235 134.358 130.753L133.637 132.3C133.091 133.285 132.522 134.262 131.929 135.233C130.723 137.228 129.4 139.149 127.967 140.987C127.194 141.964 126.37 142.899 125.496 143.787C124.511 144.805 123.427 145.725 122.262 146.531C120.714 147.628 118.939 148.362 117.068 148.68C115.819 148.868 114.546 148.815 113.316 148.526C112.087 148.226 110.926 147.696 109.893 146.965H109.858C109.725 146.867 109.578 146.748 109.452 146.636C109.186 146.391 108.927 146.132 108.675 145.866C108.423 145.6 108.318 145.453 108.143 145.236L107.898 144.928L107.709 144.669L107.338 144.137C106.911 143.486 106.54 142.87 106.211 142.289C105.553 141.12 105 140.007 104.475 138.908C103.425 136.71 102.501 134.554 101.605 132.398C100.709 130.242 99.869 128.093 99.043 125.937C98.217 123.781 97.426 121.646 96.635 119.413L108.99 115.381Z" fill="white"/>
<path d="M95.648 222.852C87.402 196.714 81.032 164.906 81.032 164.906L105.819 162.47C105.819 162.47 107.443 203.392 108.99 221.515C110.6 240.359 116.9 284.123 116.9 284.123L109.361 284.739C109.361 284.739 96.411 246.246 95.648 222.852Z" fill="#90CAF9"/>
<path opacity="0.2" d="M90.6991 186.263L87.248 192.409C89.012 199.584 91.077 207.473 93.331 215.194C93.016 203.077 91.7491 189.077 90.6991 186.263Z" fill="black"/>
<path d="M126.987 285.873C126.987 285.873 116.326 284.991 115.304 283.479L109.571 284.347L110.523 290.388L114.023 289.856L114.485 289.219L115.458 289.639C118.321 289.212 125.895 287.959 127.596 287.042C127.603 286.811 127.551 286.582 127.445 286.378C127.338 286.173 127.18 285.999 126.987 285.873Z" fill="#263238"/>
<path d="M71.547 221.109C71.995 194.236 70.266 176.274 72.569 163.009L95.221 162.666C95.221 162.666 89.663 205.303 86.891 223.055C84.119 240.807 80.591 284.655 80.591 284.655H73.591C73.591 284.655 67.501 241.892 71.547 221.109Z" fill="#90CAF9"/>
<path d="M87.5 288.4C87.5 288.4 80.78 285.943 79.891 284.298H74.088L74.529 290.416H79.261L79.772 289.849L80.717 290.416C83.608 290.416 86.261 290.304 88.039 289.653C88.0602 289.416 88.022 289.177 87.9279 288.958C87.8338 288.74 87.6868 288.548 87.5 288.4Z" fill="#263238"/>
<path d="M73.584 109.41C81.592 108.416 93.044 108.507 100.716 109.83C102.633 110.18 104.391 111.123 105.744 112.526C107.096 113.929 107.975 115.721 108.255 117.649C109.872 129.241 108.479 149.499 107.45 169.89C89.95 175.889 71.421 169.806 71.421 169.806C70.784 165.697 72.219 152.215 73.185 145.019C71.736 137.592 68.67 129.08 66.64 119.21C66.3932 118.105 66.3809 116.961 66.6039 115.851C66.827 114.742 67.2803 113.691 67.9348 112.767C68.5892 111.844 69.4302 111.068 70.4032 110.489C71.3763 109.911 72.4599 109.543 73.584 109.41Z" fill="white"/>
<path d="M80.731 94.108L90.629 101.584C89.453 104.727 89.075 107.996 94.227 109.249C95.515 110.95 93.247 112.903 91.112 113.792C87.675 113.365 82.824 112.224 80.731 109.34C81.389 107.1 81.613 98.749 80.731 94.108Z" fill="#FFB573"/>
<path d="M93.289 111.902C92.9084 112.997 92.2584 113.98 91.399 114.758C89.999 114.758 87.976 113.19 87.976 113.19C87.976 113.19 88.76 110.985 89.866 110.53C92.687 111.223 93.289 111.902 93.289 111.902Z" fill="#263238"/>
<path d="M90.118 113.925C90.3072 113.714 90.548 113.556 90.8168 113.466C91.0856 113.377 91.3731 113.359 91.651 113.414C93.478 116.83 96.341 137.865 97.461 143.983C96.978 147.693 96.257 148.967 95.291 153.209C94.409 149.926 93.149 147.98 91.749 144.319C92.148 139.944 90.692 119.546 90.118 113.925Z" fill="#263238"/>
<path opacity="0.2" d="M90.636 101.584L90.552 101.521L85.022 97.321C84.469 97.321 83.405 97.286 83.86 101.164C84.14 103.635 87.885 106.302 90.349 106.799C89.544 105.315 89.936 103.453 90.622 101.626L90.636 101.584Z" fill="black"/>
<path d="M97.3 85.015C99.288 88.109 97.895 92.876 96.369 94.402C93.59 89.264 94.255 83.608 97.3 85.015Z" fill="#263238"/>
<path d="M81.529 88.2C81.375 93.975 80.99 97.356 83.629 100.534C87.619 105.322 94.962 103.25 96.845 97.615C98.539 92.547 98.504 83.944 93.058 81.214C91.8539 80.6116 90.5169 80.3242 89.1717 80.3787C87.8264 80.4331 86.517 80.8276 85.3655 81.5253C84.2141 82.223 83.2583 83.2012 82.5874 84.3684C81.9165 85.5357 81.5523 86.8539 81.529 88.2Z" fill="#FFB573"/>
<path d="M82.957 92.75C85.8131 92.484 86.632 87.528 84.924 83.552C88.515 82.635 91.9941 84.14 94.3951 85.029C96.7961 85.918 100.359 86.051 100.359 83.076C99.127 83.776 96.7121 82.67 96.4601 81.438C99.0641 81.774 99.3301 77.7 97.8601 77.042C97.8601 79.142 90.909 77.833 87.255 76.531C80.339 74.06 76.335 78.05 78.442 81.711C73.024 84.371 76.342 89.551 80.64 93.611C81.3729 93.2273 82.1515 92.938 82.957 92.75Z" fill="#263238"/>
<path d="M84.7 90.363C84.259 94.262 95.41 96.306 97.3 96.145C97.888 99.526 100.205 101.745 97.867 103.845C95.529 105.945 87.213 106.484 84.273 102.214C81.333 97.944 83.608 90.664 83.608 90.664L84.7 90.363Z" fill="#263238"/>
<path d="M92.785 97.517C93.0832 97.5409 93.3828 97.5409 93.681 97.517C93.7048 97.5137 93.7276 97.5049 93.7474 97.4913C93.7672 97.4776 93.7836 97.4596 93.7951 97.4385C93.8067 97.4174 93.8132 97.3938 93.814 97.3698C93.8148 97.3458 93.81 97.3218 93.8 97.3C93.7915 97.2578 93.7671 97.2206 93.732 97.1958C93.6968 97.1711 93.6535 97.1608 93.611 97.167C92.9387 97.2523 92.2559 97.1859 91.6127 96.9727C90.9694 96.7596 90.3822 96.4049 89.894 95.935C89.8639 95.9059 89.8238 95.8896 89.782 95.8896C89.7402 95.8896 89.7 95.9059 89.67 95.935C89.6409 95.965 89.6246 96.0052 89.6246 96.047C89.6246 96.0888 89.6409 96.129 89.67 96.159C90.5084 96.9756 91.616 97.4585 92.785 97.517Z" fill="#FFB573"/>
<path d="M80.136 81.62C77.497 82.054 76.636 79.436 77.623 77.42C73.913 79.1 76.839 83.552 80.136 81.62Z" fill="#263238"/>
<path d="M78.8621 92.232C79.0214 92.8692 79.3058 93.4684 79.6987 93.9948C80.0917 94.5211 80.5854 94.9641 81.1511 95.298C82.6771 96.187 83.8881 94.934 83.8531 93.268C83.8111 91.77 82.9781 89.502 81.2631 89.299C80.8892 89.2598 80.5115 89.3141 80.1639 89.4571C79.8163 89.6 79.5097 89.8271 79.2716 90.118C79.0335 90.4088 78.8714 90.7543 78.7999 91.1233C78.7285 91.4923 78.7498 91.8733 78.8621 92.232Z" fill="#FFB573"/>
<path d="M90.503 89.943C90.461 90.412 90.678 90.811 90.986 90.832C91.294 90.853 91.574 90.496 91.616 90.034C91.658 89.572 91.441 89.166 91.133 89.138C90.825 89.11 90.545 89.474 90.503 89.943Z" fill="#263238"/>
<path d="M96.0471 90.762C96.0051 91.231 96.2221 91.63 96.5301 91.651C96.8381 91.672 97.1181 91.315 97.1601 90.846C97.2021 90.377 96.9851 89.978 96.6771 89.957C96.3691 89.936 96.0891 90.3 96.0471 90.762Z" fill="#263238"/>
<path d="M94.5 91.133C94.9298 92.6148 95.566 94.0286 96.39 95.333C96.0501 95.5366 95.67 95.6639 95.276 95.7062C94.882 95.7485 94.4835 95.7048 94.108 95.578L94.5 91.133Z" fill="#ED893E"/>
<path d="M88.298 88.137C88.2505 88.1362 88.2043 88.1216 88.165 88.095C88.1038 88.056 88.0602 87.9949 88.0432 87.9244C88.0262 87.8539 88.0372 87.7795 88.074 87.717C88.2934 87.3311 88.6014 87.0029 88.9726 86.7595C89.3438 86.5161 89.7676 86.3644 90.209 86.317C90.2748 86.3275 90.3346 86.3611 90.3779 86.4118C90.4211 86.4624 90.4449 86.5269 90.4449 86.5935C90.4449 86.6601 90.4211 86.7245 90.3779 86.7752C90.3346 86.8259 90.2748 86.8595 90.209 86.87C89.8621 86.9077 89.5291 87.0269 89.2371 87.2179C88.9452 87.4089 88.7025 87.6663 88.529 87.969C88.5112 88.0166 88.4798 88.0578 88.4387 88.0877C88.3977 88.1176 88.3487 88.1347 88.298 88.137Z" fill="#263238"/>
<path d="M98 89.047C97.9546 89.0479 97.9097 89.0375 97.8694 89.0167C97.8291 88.996 97.7946 88.9655 97.769 88.928C97.5856 88.6343 97.3324 88.3904 97.0319 88.2182C96.7315 88.046 96.3931 87.9508 96.047 87.941C96.0105 87.9419 95.9743 87.9356 95.9403 87.9223C95.9064 87.909 95.8755 87.889 95.8494 87.8636C95.8233 87.8381 95.8026 87.8077 95.7884 87.7741C95.7742 87.7405 95.767 87.7044 95.767 87.668C95.7651 87.6319 95.7705 87.5958 95.7831 87.5619C95.7956 87.528 95.8149 87.497 95.8398 87.4708C95.8646 87.4446 95.8946 87.4237 95.9278 87.4095C95.9611 87.3953 95.9968 87.388 96.033 87.388C96.4699 87.4003 96.8974 87.5181 97.2789 87.7314C97.6604 87.9447 97.9847 88.2472 98.224 88.613C98.2451 88.6427 98.2601 88.6764 98.2681 88.712C98.276 88.7476 98.2768 88.7844 98.2702 88.8203C98.2637 88.8562 98.2501 88.8904 98.2301 88.9209C98.2101 88.9514 98.1842 88.9777 98.154 88.998C98.1094 89.0308 98.0553 89.048 98 89.047Z" fill="#263238"/>
<path d="M80.941 107.8C80.941 107.8 78.141 108.556 78.141 108.563C78.141 109.263 78.918 110.593 80.878 112.308C82.712 113.904 86.681 116.662 88.452 116.662C88.235 114.562 88.879 111.552 89.852 110.53C87.549 110.649 83.174 109.312 80.941 107.8Z" fill="#E0E0E0"/>
<path d="M89.866 110.53C91.833 111.3 94.003 114.219 94.605 116.207C95.641 115.654 96.747 111.671 96.138 109.102C95.1801 108.582 94.0824 108.379 93.002 108.521C92.869 109.375 92.253 110.404 89.866 110.53Z" fill="#E0E0E0"/>
<path d="M81.011 284.858L73.241 285.075L72.429 280.665L81.529 281.211L81.011 284.858Z" fill="#90CAF9"/>
<path opacity="0.2" d="M81.011 284.858L73.241 285.075L72.429 280.665L81.529 281.211L81.011 284.858Z" fill="black"/>
<path d="M117.25 284.067L108.934 285.355L107.527 281.68L116.746 279.594L117.25 284.067Z" fill="#90CAF9"/>
<path opacity="0.2" d="M117.25 284.067L108.934 285.355L107.527 281.68L116.746 279.594L117.25 284.067Z" fill="black"/>
<path d="M76.734 107.8C83.734 117.18 86.625 171.913 82.691 219.1C72.429 220.885 62.062 206.248 62.062 206.248C62.062 206.248 68.873 158.788 67.088 143.619C65.303 128.45 63.315 119.581 63.805 115.073C64.295 110.565 71.666 108.556 76.734 107.8Z" fill="#90CAF9"/>
<path opacity="0.7" d="M76.734 107.8C83.734 117.18 86.625 171.913 82.691 219.1C72.429 220.885 62.062 206.248 62.062 206.248C62.062 206.248 68.873 158.788 67.088 143.619C65.303 128.45 63.315 119.581 63.805 115.073C64.295 110.565 71.666 108.556 76.734 107.8Z" fill="white"/>
<path d="M96.313 108.5C100.933 124.803 106.659 182.105 104.566 216.391C108.458 213.185 112.917 205.814 112.819 203.147C112.728 200.662 111.034 156.023 110.39 149.373C110.019 138.551 110.292 122.129 108.99 115.808C107.688 109.487 101.094 108.08 96.313 108.5Z" fill="#90CAF9"/>
<path opacity="0.7" d="M96.313 108.5C100.933 124.803 106.659 182.105 104.566 216.391C108.458 213.185 112.917 205.814 112.819 203.147C112.728 200.662 111.034 156.023 110.39 149.373C110.019 138.551 110.292 122.129 108.99 115.808C107.688 109.487 101.094 108.08 96.313 108.5Z" fill="white"/>
<path d="M93.352 161.7L73.5 161.294C73.3157 161.294 73.1337 161.253 72.9675 161.174C72.8013 161.094 72.6553 160.978 72.5402 160.834C72.4252 160.69 72.3441 160.522 72.303 160.342C72.2619 160.162 72.262 159.976 72.303 159.796L77.525 131.712C77.6162 131.317 77.8377 130.964 78.1539 130.71C78.47 130.456 78.8625 130.316 79.268 130.312L99.113 130.739C99.2973 130.739 99.4794 130.78 99.6455 130.859C99.8117 130.939 99.9578 131.055 100.073 131.199C100.188 131.343 100.269 131.511 100.31 131.691C100.351 131.871 100.351 132.057 100.31 132.237L95.095 160.3C95.0016 160.694 94.7795 161.046 94.4638 161.299C94.1481 161.553 93.7569 161.694 93.352 161.7Z" fill="#90CAF9"/>
<path d="M87.066 148.883C86.9142 148.605 86.867 148.282 86.933 147.973L87.451 145.285C87.5031 145.031 87.625 144.796 87.803 144.606C87.981 144.417 88.2081 144.281 88.459 144.214L90.699 143.64C92.8758 143.074 95.1496 142.988 97.363 143.388L98.063 143.521C98.3625 143.575 98.6482 143.688 98.9035 143.853C99.1587 144.019 99.3782 144.234 99.5491 144.486C99.7199 144.737 99.8387 145.021 99.8985 145.319C99.9582 145.618 99.9577 145.925 99.897 146.223L99.344 148.981C99.2365 149.512 98.944 149.988 98.5184 150.324C98.0928 150.66 97.5618 150.834 97.02 150.815L93.716 150.696C93.716 150.696 88.459 151.396 87.066 148.883Z" fill="#FFB573"/>
<path d="M87.5001 143.437C88.5036 143.045 89.5612 142.809 90.6361 142.737C91.6721 144.214 90.1741 149.793 88.9911 150.99C88.0601 150.99 85.6171 149.758 85.6171 149.758C86.4501 147.896 87.0101 144.844 87.5001 143.437Z" fill="#E0E0E0"/>
<path d="M75.761 118.874C74.977 120.883 74.193 122.997 73.437 125.069C72.681 127.141 71.953 129.269 71.26 131.306C70.567 133.343 69.916 135.457 69.363 137.473C69.09 138.474 68.838 139.468 68.663 140.364C68.572 140.819 68.502 141.225 68.453 141.568V141.771V141.869V141.904C68.4475 141.821 68.431 141.738 68.404 141.659L68.271 141.113C68.2258 140.983 68.1543 140.864 68.061 140.763C67.991 140.7 67.984 140.763 68.061 140.819C68.5035 141.153 69.001 141.406 69.531 141.568C71.3139 142.118 73.1564 142.452 75.019 142.562C77.141 142.716 79.2699 142.753 81.396 142.674C82.481 142.674 83.573 142.576 84.665 142.492L86.296 142.352L87.85 142.191L89.453 152.103C88.753 152.229 88.186 152.32 87.556 152.411L85.729 152.67C84.511 152.831 83.286 152.971 82.054 153.083C79.5435 153.317 77.022 153.413 74.501 153.37C71.7178 153.347 68.9482 152.98 66.255 152.278C64.5381 151.821 62.9085 151.083 61.432 150.094C60.4892 149.444 59.6472 148.658 58.933 147.763C58.1267 146.742 57.5188 145.578 57.141 144.333V144.291C57.0914 144.123 57.0517 143.952 57.022 143.78C56.966 143.423 56.917 143.08 56.882 142.695C56.847 142.31 56.882 142.149 56.882 141.869V141.169L56.917 140.525C56.98 139.748 57.064 139.034 57.162 138.376C57.365 137.046 57.603 135.828 57.862 134.638C58.38 132.258 58.975 129.99 59.591 127.736C60.207 125.482 60.865 123.27 61.537 121.065C62.209 118.86 62.895 116.683 63.637 114.443L75.761 118.874Z" fill="#90CAF9"/>
<path opacity="0.7" d="M75.761 118.874C74.977 120.883 74.193 122.997 73.437 125.069C72.681 127.141 71.953 129.269 71.26 131.306C70.567 133.343 69.916 135.457 69.363 137.473C69.09 138.474 68.838 139.468 68.663 140.364C68.572 140.819 68.502 141.225 68.453 141.568V141.771V141.869V141.904C68.4475 141.821 68.431 141.738 68.404 141.659L68.271 141.113C68.2258 140.983 68.1543 140.864 68.061 140.763C67.991 140.7 67.984 140.763 68.061 140.819C68.5035 141.153 69.001 141.406 69.531 141.568C71.3139 142.118 73.1564 142.452 75.019 142.562C77.141 142.716 79.2699 142.753 81.396 142.674C82.481 142.674 83.573 142.576 84.665 142.492L86.296 142.352L87.85 142.191L89.453 152.103C88.753 152.229 88.186 152.32 87.556 152.411L85.729 152.67C84.511 152.831 83.286 152.971 82.054 153.083C79.5435 153.317 77.022 153.413 74.501 153.37C71.7178 153.347 68.9482 152.98 66.255 152.278C64.5381 151.821 62.9085 151.083 61.432 150.094C60.4892 149.444 59.6472 148.658 58.933 147.763C58.1267 146.742 57.5188 145.578 57.141 144.333V144.291C57.0914 144.123 57.0517 143.952 57.022 143.78C56.966 143.423 56.917 143.08 56.882 142.695C56.847 142.31 56.882 142.149 56.882 141.869V141.169L56.917 140.525C56.98 139.748 57.064 139.034 57.162 138.376C57.365 137.046 57.603 135.828 57.862 134.638C58.38 132.258 58.975 129.99 59.591 127.736C60.207 125.482 60.865 123.27 61.537 121.065C62.209 118.86 62.895 116.683 63.637 114.443L75.761 118.874Z" fill="white"/>
<path d="M226.352 277.158C215.408 283.049 203.172 286.133 190.743 286.132H188.3C187.606 286.132 186.94 286.408 186.449 286.899C185.958 287.39 185.682 288.056 185.682 288.75C185.682 289.444 185.958 290.11 186.449 290.601C186.94 291.092 187.606 291.368 188.3 291.368H266.833C267.33 291.368 267.823 291.27 268.282 291.08C268.742 290.889 269.159 290.61 269.511 290.259C269.862 289.907 270.141 289.49 270.332 289.03C270.522 288.571 270.62 288.078 270.62 287.581V280.497C270.62 280 270.522 279.507 270.332 279.048C270.141 278.588 269.862 278.171 269.511 277.819C269.159 277.468 268.742 277.189 268.282 276.998C267.823 276.808 267.33 276.71 266.833 276.71H228.151C227.524 276.71 226.906 276.864 226.352 277.158Z" fill="#263238"/>
<path d="M254.8 280.497H238.805C237.804 280.496 236.826 280.199 235.994 279.644C235.162 279.088 234.513 278.299 234.129 277.375L225.561 256.746C225.244 255.977 225.121 255.141 225.203 254.314C225.285 253.486 225.57 252.691 226.032 251.999C226.494 251.307 227.119 250.74 227.853 250.347C228.586 249.954 229.405 249.748 230.237 249.746H246.218C247.219 249.746 248.199 250.043 249.032 250.598C249.865 251.154 250.516 251.944 250.901 252.868L259.462 273.504C259.779 274.272 259.902 275.105 259.821 275.932C259.739 276.759 259.456 277.552 258.995 278.243C258.535 278.934 257.911 279.501 257.179 279.894C256.448 280.287 255.63 280.494 254.8 280.497Z" fill="#E0E0E0"/>
<path opacity="0.2" d="M252.819 279.797H238.7C238.071 279.799 237.455 279.613 236.932 279.264C236.408 278.915 236 278.419 235.76 277.837L226.576 255.717C226.376 255.233 226.298 254.708 226.349 254.187C226.4 253.666 226.579 253.166 226.87 252.73C227.161 252.295 227.554 251.938 228.016 251.691C228.477 251.444 228.993 251.314 229.516 251.314H243.607C244.237 251.314 244.852 251.5 245.376 251.851C245.899 252.201 246.307 252.699 246.547 253.281L255.731 275.394C255.93 275.875 256.008 276.399 255.958 276.917C255.909 277.436 255.732 277.934 255.445 278.369C255.157 278.804 254.768 279.161 254.31 279.41C253.852 279.659 253.34 279.792 252.819 279.797Z" fill="black"/>
<path d="M250.488 238.581H222.656C219.934 238.581 217.728 240.787 217.728 243.509V247.492C217.728 250.214 219.934 252.42 222.656 252.42H250.488C253.21 252.42 255.416 250.214 255.416 247.492V243.509C255.416 240.787 253.21 238.581 250.488 238.581Z" fill="#263238"/>
<path d="M215.11 206.71H268.765V230.412C268.767 231.96 268.463 233.493 267.872 234.924C267.281 236.354 266.413 237.654 265.319 238.749C264.225 239.844 262.925 240.712 261.495 241.304C260.065 241.897 258.532 242.201 256.984 242.2H215.11V206.71Z" fill="#E0E0E0"/>
<path opacity="0.2" d="M216.209 211.645H259V230.545C259 233.036 258.01 235.426 256.249 237.188C254.487 238.949 252.097 239.939 249.606 239.939H216.209V211.645Z" fill="black"/>
<path opacity="0.6" d="M221.319 290.85H188.65C188.105 290.841 187.585 290.621 187.2 290.235C186.814 289.85 186.594 289.33 186.585 288.785C186.594 288.24 186.814 287.72 187.2 287.335C187.585 286.949 188.105 286.729 188.65 286.72H221.319C221.864 286.729 222.384 286.949 222.769 287.335C223.155 287.72 223.375 288.24 223.384 288.785C223.375 289.33 223.155 289.85 222.769 290.235C222.384 290.621 221.864 290.841 221.319 290.85Z" fill="black"/>
<path d="M178.682 210.7C178.683 210.987 178.6 211.268 178.441 211.507C178.283 211.746 178.057 211.933 177.792 212.044C177.528 212.154 177.236 212.184 176.955 212.129C176.673 212.074 176.414 211.936 176.211 211.734C176.008 211.532 175.869 211.274 175.812 210.992C175.756 210.711 175.784 210.419 175.894 210.154C176.003 209.889 176.189 209.662 176.427 209.503C176.666 209.343 176.946 209.258 177.233 209.258C177.423 209.257 177.611 209.294 177.787 209.366C177.963 209.438 178.123 209.544 178.257 209.678C178.392 209.812 178.499 209.971 178.572 210.147C178.645 210.322 178.682 210.51 178.682 210.7Z" fill="#263238"/>
<path d="M197.148 255.416C198.803 255.416 200.144 254.075 200.144 252.42C200.144 250.765 198.803 249.424 197.148 249.424C195.493 249.424 194.152 250.765 194.152 252.42C194.152 254.075 195.493 255.416 197.148 255.416Z" fill="#263238"/>
<path d="M202.937 272.657C202.791 272.692 202.638 272.67 202.508 272.596C202.378 272.522 202.281 272.401 202.237 272.258L184.695 210.903C184.66 210.757 184.682 210.604 184.756 210.474C184.83 210.344 184.951 210.247 185.094 210.203C185.24 210.168 185.393 210.19 185.523 210.264C185.653 210.338 185.75 210.459 185.794 210.602L203.343 271.957C203.38 272.104 203.358 272.259 203.282 272.389C203.206 272.52 203.082 272.616 202.937 272.657Z" fill="#E0E0E0"/>
<path d="M176.995 210.7C176.997 210.545 177.059 210.396 177.169 210.286C177.279 210.176 177.428 210.114 177.583 210.112H185.227C185.382 210.114 185.531 210.176 185.641 210.286C185.751 210.396 185.813 210.545 185.815 210.7C185.815 210.857 185.753 211.007 185.643 211.118C185.533 211.23 185.384 211.293 185.227 211.295H177.583C177.426 211.293 177.277 211.23 177.167 211.118C177.057 211.007 176.995 210.857 176.995 210.7Z" fill="#E0E0E0"/>
<path d="M177.205 215.18H177.275C177.58 215.18 177.828 214.932 177.828 214.627V208.012C177.828 207.707 177.58 207.459 177.275 207.459H177.205C176.9 207.459 176.652 207.707 176.652 208.012V214.627C176.652 214.932 176.9 215.18 177.205 215.18Z" fill="#E0E0E0"/>
<path d="M164.885 210.308C164.217 210.062 163.599 209.7 163.058 209.237C162.868 209.063 162.731 208.839 162.66 208.592C162.589 208.344 162.588 208.082 162.657 207.833C162.726 207.585 162.862 207.361 163.05 207.185C163.238 207.009 163.471 206.888 163.723 206.836C167.923 205.933 176.82 203.896 180.565 202.468C179.347 205.779 171.563 209.944 169.029 210.441C167.66 210.761 166.231 210.715 164.885 210.308Z" fill="black"/>
<path d="M164.885 210.308C167.874 211.148 170.814 208.677 170.856 205.275C170.864 204.895 170.983 204.525 171.2 204.213C171.417 203.9 171.721 203.658 172.074 203.518C175.119 202.293 181.629 200.424 184.786 199.542C185.021 199.476 185.269 199.464 185.509 199.508C185.749 199.552 185.976 199.65 186.173 199.796C186.37 199.941 186.53 200.129 186.643 200.346C186.756 200.563 186.817 200.803 186.823 201.047C186.858 203.147 186.263 206.199 182.623 207.214C170.688 210.546 167.566 211.33 164.885 210.308Z" fill="#263238"/>
<path d="M320.978 173.691L320.278 173.586C320.391 172.714 320.317 171.827 320.062 170.985C319.806 170.144 319.374 169.366 318.795 168.704C318.216 168.042 317.502 167.511 316.702 167.145C315.901 166.78 315.033 166.59 314.153 166.586H302.253V165.886H314.153C315.137 165.89 316.108 166.104 317.002 166.514C317.896 166.923 318.693 167.519 319.338 168.261C319.984 169.003 320.463 169.875 320.745 170.817C321.026 171.76 321.103 172.751 320.971 173.726L320.978 173.691Z" fill="#90CAF9"/>
<path d="M316.722 179.718L316.239 179.207L318.836 176.75L319.361 177.205L319.298 177.282L316.722 179.718Z" fill="#90CAF9"/>
<path d="M241.199 222.908H188.615C183.624 222.908 182.385 215.971 187.068 214.242L207.06 206.864C216.963 203.209 226.143 197.835 234.178 190.988L257.061 171.5C259.565 169.368 262.746 168.197 266.035 168.196H314.16C315.028 168.195 315.878 168.444 316.608 168.913C317.339 169.381 317.919 170.05 318.281 170.839C318.642 171.628 318.769 172.505 318.647 173.364C318.524 174.223 318.157 175.029 317.59 175.686L298.263 193.886C292.454 198.835 286.09 203.094 279.3 206.577L255.122 218.981C249.151 222.047 247.919 222.908 241.199 222.908Z" fill="#90CAF9"/>
<path opacity="0.2" d="M288.967 199.185C288.904 199.186 288.842 199.169 288.787 199.137C288.733 199.105 288.689 199.059 288.659 199.003L287.959 197.694C287.271 196.452 286.263 195.416 285.039 194.695C283.816 193.973 282.421 193.593 281.001 193.592H233.912C233.819 193.592 233.73 193.555 233.665 193.489C233.599 193.424 233.562 193.335 233.562 193.242C233.562 193.149 233.599 193.06 233.665 192.995C233.73 192.929 233.819 192.892 233.912 192.892H280.98C282.526 192.891 284.043 193.304 285.374 194.09C286.705 194.876 287.801 196.004 288.547 197.358L289.247 198.667C289.29 198.749 289.299 198.844 289.273 198.933C289.247 199.022 289.188 199.097 289.107 199.143C289.064 199.166 289.016 199.18 288.967 199.185Z" fill="black"/>
<path opacity="0.2" d="M238.434 214.991H188.44C184.03 216.391 185.199 222.152 189.896 222.152H238.434C240.975 222.152 242.893 220.136 242.445 217.952C242.217 217.074 241.694 216.3 240.964 215.762C240.233 215.223 239.34 214.951 238.434 214.991Z" fill="black"/>
<path d="M205.506 254.604H156.639C155.463 254.605 154.315 254.248 153.347 253.582C152.378 252.916 151.635 251.971 151.215 250.873C150.796 249.774 150.719 248.575 150.997 247.432C151.274 246.29 151.892 245.259 152.768 244.475L177.597 222.264C180.25 219.886 183.688 218.573 187.25 218.575H236.117C237.293 218.574 238.441 218.931 239.409 219.597C240.378 220.263 241.121 221.208 241.541 222.306C241.96 223.405 242.037 224.604 241.759 225.747C241.482 226.889 240.864 227.92 239.988 228.704L215.159 250.915C212.506 253.293 209.068 254.606 205.506 254.604Z" fill="#90CAF9"/>
<path opacity="0.2" d="M200.97 253.743H156.17C155.107 253.739 154.089 253.316 153.338 252.564C152.586 251.813 152.163 250.795 152.159 249.732C152.163 248.669 152.586 247.651 153.338 246.9C154.089 246.148 155.107 245.725 156.17 245.721H200.97C202.034 245.723 203.054 246.146 203.807 246.897C204.56 247.649 204.984 248.668 204.988 249.732C204.984 250.796 204.56 251.815 203.807 252.567C203.054 253.318 202.034 253.741 200.97 253.743Z" fill="black"/>
<path d="M242.487 136.829L240.352 138.411C241.01 145.299 247.87 147.651 249.725 142.933C251.3 138.999 247.233 136.899 242.487 136.829Z" fill="#263238"/>
<path d="M244.44 136.892C244.286 138.922 243.173 141.624 239.806 140.546C239.691 140.507 239.587 140.44 239.503 140.351C239.42 140.263 239.359 140.155 239.328 140.037C239.296 139.919 239.293 139.796 239.321 139.677C239.348 139.558 239.404 139.448 239.484 139.356C240.579 138.107 241.867 137.041 243.299 136.199C243.417 136.126 243.552 136.088 243.69 136.087C243.828 136.086 243.964 136.124 244.082 136.196C244.2 136.267 244.296 136.37 244.359 136.493C244.422 136.616 244.45 136.754 244.44 136.892Z" fill="#90CAF9"/>
<path d="M225.925 117.467C226.296 114.667 236.656 112.714 241.325 121.478C243.901 126.294 244.048 131.544 243.775 134.876C243.69 135.917 243.307 136.912 242.671 137.741C242.035 138.571 241.174 139.199 240.191 139.552C236.502 140.896 230.391 142.562 227.304 140.399C221.144 136.122 225.925 117.467 225.925 117.467Z" fill="#263238"/>
<path d="M225.925 117.467C215.656 124.901 216.622 135.17 222.873 138.005C231.259 133.182 225.925 117.467 225.925 117.467Z" fill="#263238"/>
<path d="M188.636 165.263L187.04 161L182.042 166.453C182.042 166.453 184.891 169.365 187.866 169.862L188.3 169.162C188.645 168.579 188.854 167.926 188.912 167.251C188.971 166.576 188.876 165.896 188.636 165.263Z" fill="#7F3E3B"/>
<path d="M182.112 161.112L180.768 163.072C180.484 163.48 180.365 163.981 180.435 164.473C180.505 164.965 180.759 165.412 181.146 165.725L182.042 166.46L187.04 161L184.24 160.3C183.845 160.202 183.429 160.227 183.049 160.372C182.668 160.518 182.341 160.776 182.112 161.112Z" fill="#7F3E3B"/>
<path d="M221.109 156.576C220.913 157.129 220.752 157.542 220.57 157.976C220.388 158.41 220.199 158.872 220.003 159.306C219.618 160.188 219.212 161.049 218.785 161.903C217.938 163.618 217.004 165.289 215.985 166.908C214.951 168.54 213.827 170.112 212.618 171.619C211.392 173.154 210.059 174.599 208.628 175.945L207.515 176.939L207.242 177.184L207.172 177.247L207.046 177.352L206.668 177.646C206.179 177.975 205.643 178.23 205.079 178.402C204.232 178.647 203.344 178.72 202.468 178.619C201.818 178.553 201.175 178.424 200.55 178.234C198.569 177.592 196.685 176.683 194.95 175.532C191.8 173.499 188.867 171.146 186.2 168.511C185.864 168.182 185.66 167.742 185.625 167.273C185.59 166.804 185.726 166.338 186.009 165.962C186.291 165.587 186.701 165.326 187.161 165.23C187.621 165.133 188.1 165.207 188.51 165.438H188.573C191.611 167.16 194.747 168.896 197.806 170.275C199.192 170.934 200.648 171.434 202.146 171.766C202.391 171.811 202.639 171.83 202.888 171.822C203.07 171.822 203.112 171.752 202.951 171.822C202.813 171.849 202.682 171.904 202.566 171.983C202.523 172.006 202.483 172.034 202.447 172.067L202.496 172.011L202.706 171.794L203.546 170.919C205.755 168.46 207.7 165.776 209.349 162.911C210.21 161.469 210.98 159.971 211.743 158.466C212.121 157.71 212.485 156.947 212.821 156.184L213.318 155.036L213.766 153.958L213.836 153.79C214.207 152.828 214.945 152.054 215.888 151.636C216.83 151.219 217.9 151.193 218.862 151.564C219.824 151.935 220.598 152.673 221.016 153.616C221.433 154.559 221.459 155.628 221.088 156.59L221.109 156.576Z" fill="#7F3E3B"/>
<path d="M217.84 149.611C211.204 153.531 210.483 160.587 207.466 163.359C210.714 171.059 216.104 171.115 216.104 171.115C216.104 171.115 225.204 145.271 217.84 149.611Z" fill="#90CAF9"/>
<path opacity="0.3" d="M217.84 149.611C211.204 153.531 210.483 160.587 207.466 163.359C210.714 171.059 216.104 171.115 216.104 171.115C216.104 171.115 225.204 145.271 217.84 149.611Z" fill="white"/>
<path d="M243.81 183.694C244.649 174.545 244.939 165.354 244.678 156.17C244.517 152.376 242.837 148.883 239.078 148.47C238.07 148.372 236.978 148.288 235.907 148.232C232.085 147.962 228.249 147.962 224.427 148.232C223.181 148.351 221.9 148.505 220.682 148.68C218.547 148.979 216.6 150.062 215.221 151.719C213.841 153.375 213.128 155.486 213.22 157.64C213.332 160.125 209.405 165.879 214.249 169.211C214.662 172.802 214.116 178.934 214.291 185.178C211.015 190.813 200.053 195.153 199.101 200.62C197.757 208.376 206.136 211.295 214.102 211.82C238.504 213.542 250.712 210.182 243.81 183.694Z" fill="#90CAF9"/>
<path opacity="0.4" d="M243.81 183.694C244.649 174.545 244.939 165.354 244.678 156.17C244.517 152.376 242.837 148.883 239.078 148.47C238.07 148.372 236.978 148.288 235.907 148.232C232.085 147.962 228.249 147.962 224.427 148.232C223.181 148.351 221.9 148.505 220.682 148.68C218.547 148.979 216.6 150.062 215.221 151.719C213.841 153.375 213.128 155.486 213.22 157.64C213.332 160.125 209.405 165.879 214.249 169.211C214.662 172.802 214.116 178.934 214.291 185.178C211.015 190.813 200.053 195.153 199.101 200.62C197.757 208.376 206.136 211.295 214.102 211.82C238.504 213.542 250.712 210.182 243.81 183.694Z" fill="white"/>
<path opacity="0.6" d="M218.477 196.854C215.544 197.491 208.082 195.195 203.721 196.105C202.668 196.301 201.69 196.782 200.891 197.495C200.093 198.209 199.505 199.127 199.192 200.151C199.144 200.314 199.107 200.48 199.08 200.648C197.729 208.404 206.08 211.323 214.074 211.848C221.074 212.324 226.793 212.548 231.364 211.981C232.497 211.855 233.558 211.362 234.386 210.577C235.214 209.792 235.762 208.759 235.949 207.634C236.852 201.6 226.842 195.041 218.477 196.854Z" fill="#90CAF9"/>
<path opacity="0.3" d="M223.895 171.339C227.395 174.671 234.241 180.635 236.586 181.587C231.364 180.852 225.568 174.083 223.895 171.339Z" fill="#90CAF9"/>
<path opacity="0.3" d="M218.064 165.081C221.697 171.346 227.668 180.642 230.09 183.078C223.748 178.654 218.722 168.343 218.064 165.081Z" fill="#90CAF9"/>
<path d="M216.797 201.264C213.031 195.769 204.491 195.545 201.733 198.142C197.134 202.454 188.307 210.168 183.071 216.174C176.512 223.699 167.783 247.058 164.745 254.982C163.436 258.58 157.423 262.206 151.823 261.548C149.331 261.254 151.032 264.348 152.81 264.789C157.262 265.965 157.01 264.39 159.586 264.915C161.756 265.363 161.602 265.916 164.178 266.539C165.627 266.889 166.439 265.461 166.719 263.739C166.999 262.017 167.636 260.75 171.297 255.199C178.616 246.024 185.057 236.18 190.533 225.799C205.667 218.239 208.733 215.852 214.249 210.952C217.105 208.39 219.191 204.75 216.797 201.264Z" fill="#7F3E3B"/>
<path opacity="0.2" d="M216.797 201.264C216.394 200.679 215.94 200.13 215.439 199.626C213.854 200.318 212.393 201.264 211.113 202.426C206.472 206.696 197.764 214.676 194.887 217.595C192.737 219.685 191.408 222.477 191.142 225.463C205.751 218.141 208.838 215.754 214.242 210.91C217.105 208.397 219.191 204.75 216.797 201.264Z" fill="black"/>
<path d="M234.752 135.331C234.052 139.027 233.303 145.796 235.886 148.26C231.11 149.415 226.731 151.833 223.209 155.26C220.612 150.437 224.406 148.26 224.406 148.26C228.522 147.28 228.417 144.221 227.696 141.351L234.752 135.331Z" fill="#7F3E3B"/>
<path opacity="0.2" d="M231.875 137.788L227.675 141.351C227.854 142.018 227.974 142.7 228.032 143.388C229.6 143.157 231.763 141.428 231.931 139.783C232.033 139.12 232.014 138.444 231.875 137.788Z" fill="black"/>
<path d="M238.644 128.555C237.202 134.561 236.719 137.137 233.163 139.72C227.801 143.612 220.885 140.539 220.563 134.225C220.255 128.541 222.663 119.672 228.921 118.286C235.179 116.9 240.1 122.542 238.644 128.555Z" fill="#7F3E3B"/>
<path d="M226.751 118.083C229.789 123.683 235.018 124.859 235.116 128.744C235.214 132.629 241.71 134.176 240.996 128.989C240.282 123.802 236.082 113.855 226.751 118.083Z" fill="#263238"/>
<path d="M227.5 117.852C227.073 122.479 230.405 122.507 231.273 122.192C227.535 123.641 225.19 121.436 225.673 118.916C225.886 118.621 226.159 118.373 226.474 118.19C226.788 118.007 227.138 117.892 227.5 117.852Z" fill="#263238"/>
<path d="M229.264 128.618C229.173 129.115 228.837 129.472 228.515 129.409C228.193 129.346 228.004 128.905 228.088 128.415C228.172 127.925 228.508 127.561 228.837 127.624C229.166 127.687 229.348 128.1 229.264 128.618Z" fill="#263238"/>
<path d="M223.16 127.631C223.076 128.121 222.74 128.478 222.418 128.422C222.096 128.366 221.907 127.918 221.991 127.421C222.075 126.924 222.411 126.574 222.74 126.63C223.069 126.686 223.251 127.134 223.16 127.631Z" fill="#263238"/>
<path d="M222.873 126.7L221.746 126.147C221.746 126.147 222.194 127.169 222.873 126.7Z" fill="#263238"/>
<path d="M224.7 128.744C224.065 129.798 223.288 130.759 222.39 131.6C222.611 131.824 222.879 131.998 223.173 132.109C223.468 132.22 223.784 132.266 224.098 132.244L224.7 128.744Z" fill="#630F0F"/>
<path d="M226.618 134.561C226.336 134.562 226.055 134.536 225.778 134.484C225.759 134.482 225.74 134.475 225.724 134.465C225.707 134.455 225.693 134.442 225.682 134.426C225.67 134.41 225.663 134.392 225.659 134.373C225.655 134.354 225.655 134.335 225.659 134.316C225.661 134.297 225.668 134.278 225.678 134.262C225.688 134.245 225.701 134.231 225.717 134.22C225.733 134.209 225.751 134.201 225.77 134.197C225.788 134.193 225.808 134.193 225.827 134.197C226.44 134.32 227.073 134.297 227.675 134.129C228.277 133.961 228.831 133.654 229.292 133.231C229.306 133.217 229.322 133.206 229.34 133.198C229.358 133.191 229.377 133.187 229.397 133.187C229.417 133.187 229.436 133.191 229.454 133.198C229.472 133.206 229.488 133.217 229.502 133.231C229.528 133.258 229.543 133.295 229.543 133.333C229.543 133.37 229.528 133.407 229.502 133.434C228.725 134.172 227.69 134.577 226.618 134.561Z" fill="#263238"/>
<path d="M239.4 133.294C239.064 133.745 238.637 134.12 238.146 134.394C237.655 134.668 237.111 134.835 236.551 134.883C235.151 134.96 234.794 133.343 235.508 131.936C236.145 130.676 237.657 129.136 238.931 129.703C240.205 130.27 240.282 132.118 239.4 133.294Z" fill="#7F3E3B"/>
<path d="M232.078 126.805C232 126.783 231.933 126.733 231.889 126.665C231.712 126.34 231.461 126.061 231.155 125.852C230.85 125.643 230.499 125.509 230.132 125.461C230.093 125.459 230.056 125.45 230.021 125.433C229.986 125.417 229.954 125.394 229.928 125.365C229.902 125.336 229.882 125.303 229.869 125.267C229.856 125.23 229.85 125.192 229.852 125.153C229.857 125.074 229.893 125.001 229.952 124.949C230.011 124.896 230.088 124.869 230.167 124.873C230.633 124.924 231.079 125.086 231.468 125.347C231.857 125.608 232.177 125.959 232.4 126.371C232.42 126.404 232.433 126.441 232.439 126.479C232.444 126.517 232.442 126.556 232.432 126.593C232.422 126.63 232.405 126.665 232.382 126.695C232.358 126.726 232.329 126.751 232.295 126.77C232.23 126.809 232.152 126.821 232.078 126.805Z" fill="#263238"/>
<path d="M221.508 124.698C221.432 124.692 221.362 124.657 221.312 124.6C221.259 124.543 221.229 124.468 221.229 124.39C221.229 124.312 221.259 124.237 221.312 124.18C221.66 123.864 222.079 123.636 222.533 123.515C222.987 123.393 223.463 123.381 223.923 123.48C223.96 123.491 223.995 123.51 224.025 123.535C224.056 123.559 224.081 123.59 224.099 123.624C224.117 123.659 224.128 123.697 224.132 123.736C224.135 123.775 224.131 123.814 224.119 123.851C224.109 123.888 224.091 123.923 224.067 123.953C224.043 123.983 224.013 124.008 223.979 124.026C223.945 124.045 223.907 124.056 223.869 124.06C223.83 124.063 223.792 124.059 223.755 124.047C223.392 123.972 223.017 123.984 222.659 124.081C222.301 124.178 221.972 124.359 221.697 124.607C221.648 124.661 221.58 124.693 221.508 124.698Z" fill="#263238"/>
<path d="M228.97 127.673L227.843 127.12C227.843 127.12 228.291 128.156 228.97 127.673Z" fill="#263238"/>
<path d="M233.919 187.474L229.418 186.844L231.812 193.844C231.812 193.844 235.732 192.731 237.594 190.344L237.167 189.644C236.822 189.063 236.351 188.566 235.789 188.191C235.227 187.815 234.588 187.57 233.919 187.474Z" fill="#7F3E3B"/>
<path d="M227.157 191.226L228.228 193.326C228.453 193.769 228.836 194.111 229.302 194.285C229.767 194.459 230.281 194.451 230.741 194.264L231.812 193.823L229.418 186.823L227.458 188.979C227.184 189.278 227.008 189.653 226.954 190.055C226.9 190.457 226.971 190.866 227.157 191.226Z" fill="#7F3E3B"/>
<path d="M243.726 152.404C244.622 154.077 245.329 155.666 246.057 157.304C246.785 158.942 247.408 160.629 248.003 162.344C249.264 165.86 250.101 169.514 250.495 173.229C250.495 173.726 250.565 174.216 250.579 174.727V175.112C250.593 175.345 250.593 175.579 250.579 175.812C250.547 176.214 250.477 176.613 250.369 177.002C250.04 178.165 249.525 179.266 248.843 180.264C247.763 181.861 246.517 183.339 245.126 184.674C242.55 187.187 239.737 189.445 236.726 191.415C236.335 191.676 235.862 191.785 235.396 191.724C234.93 191.662 234.502 191.433 234.193 191.08C233.883 190.726 233.712 190.272 233.712 189.802C233.712 189.332 233.882 188.878 234.192 188.524L234.234 188.475C236.439 185.948 238.672 183.344 240.611 180.775C241.537 179.561 242.364 178.273 243.082 176.925C243.329 176.465 243.504 175.969 243.6 175.455C243.6 175.399 243.6 175.357 243.6 175.378C243.597 175.394 243.597 175.411 243.6 175.427V175.168C243.565 174.818 243.509 174.468 243.453 174.09C242.86 170.978 241.967 167.93 240.786 164.99C240.205 163.457 239.561 161.938 238.917 160.419C238.273 158.9 237.517 157.367 236.88 155.974L236.838 155.897C236.428 154.983 236.385 153.946 236.72 153.001C237.056 152.057 237.742 151.278 238.637 150.827C239.532 150.376 240.566 150.288 241.524 150.58C242.483 150.872 243.291 151.523 243.782 152.397L243.726 152.404Z" fill="#7F3E3B"/>
<path d="M232.603 201.278C229.555 198.645 225.604 197.298 221.583 197.52C217.561 197.741 213.783 199.516 211.043 202.468C206.752 207.088 201.551 212.793 196.343 218.799C188.559 227.731 177.702 258.993 176.967 260.225L180.467 262.703C189.51 252.187 197.332 240.68 203.784 228.403C218.918 220.843 227.206 215.705 232.687 210.805C233.361 210.204 233.898 209.467 234.264 208.642C234.63 207.817 234.815 206.923 234.808 206.021C234.8 205.118 234.601 204.228 234.222 203.409C233.843 202.589 233.293 201.861 232.61 201.271L232.603 201.278Z" fill="#7F3E3B"/>
<path d="M181.692 267.064C181.622 265.328 180.88 263.368 184.541 257.817C184.541 257.817 178.717 255.619 177.989 257.6C176.673 261.198 171.542 267.862 165.907 267.946C163.401 267.981 166.439 270.746 168.28 270.879C172.879 271.138 172.48 270.06 175.084 270.067C176.649 269.977 178.22 270.061 179.767 270.319C181.237 270.592 181.769 268.8 181.692 267.064Z" fill="#7F3E3B"/>
<path d="M239.526 148.568C243.999 149.156 247.002 154.168 249.725 162.015C247.425 166.21 243.854 169.567 239.526 171.605C237.209 167.055 234.906 160.951 234.479 157.605C234.052 154.259 234.661 147.924 239.526 148.568Z" fill="#90CAF9"/>
<path opacity="0.4" d="M239.526 148.568C243.999 149.156 247.002 154.168 249.725 162.015C247.425 166.21 243.854 169.567 239.526 171.605C237.209 167.055 234.906 160.951 234.479 157.605C234.052 154.259 234.661 147.924 239.526 148.568Z" fill="white"/>
<path d="M243.124 273.161C243.046 273.148 242.97 273.12 242.903 273.078C242.836 273.035 242.778 272.98 242.733 272.914C242.688 272.849 242.656 272.775 242.64 272.697C242.625 272.619 242.625 272.539 242.641 272.461L253.568 209.587C253.581 209.509 253.609 209.433 253.651 209.366C253.694 209.299 253.749 209.241 253.815 209.196C253.88 209.151 253.954 209.119 254.032 209.103C254.11 209.088 254.19 209.088 254.268 209.104C254.346 209.117 254.421 209.146 254.487 209.189C254.554 209.232 254.612 209.287 254.657 209.352C254.702 209.418 254.733 209.491 254.749 209.569C254.766 209.646 254.766 209.726 254.751 209.804L243.824 272.671C243.812 272.75 243.785 272.826 243.743 272.894C243.701 272.962 243.645 273.021 243.58 273.067C243.514 273.113 243.44 273.145 243.361 273.161C243.283 273.177 243.202 273.177 243.124 273.161Z" fill="#E0E0E0"/>
<path d="M245.945 209.664C245.947 209.509 246.009 209.36 246.119 209.25C246.229 209.14 246.378 209.078 246.533 209.076H254.177C254.333 209.076 254.482 209.138 254.593 209.248C254.703 209.358 254.765 209.508 254.765 209.664C254.766 209.741 254.751 209.818 254.722 209.89C254.693 209.962 254.65 210.027 254.595 210.082C254.54 210.137 254.475 210.18 254.403 210.209C254.331 210.238 254.254 210.253 254.177 210.252H246.533C246.377 210.252 246.227 210.19 246.117 210.08C246.007 209.97 245.945 209.82 245.945 209.664Z" fill="#E0E0E0"/>
<path d="M246.148 214.123H246.218C246.523 214.123 246.771 213.875 246.771 213.57V206.955C246.771 206.65 246.523 206.402 246.218 206.402H246.148C245.843 206.402 245.595 206.65 245.595 206.955V213.57C245.595 213.875 245.843 214.123 246.148 214.123Z" fill="#E0E0E0"/>
<path d="M249.725 252.42C249.726 253.015 249.551 253.596 249.222 254.091C248.892 254.586 248.423 254.972 247.874 255.2C247.325 255.428 246.721 255.488 246.138 255.373C245.555 255.257 245.019 254.971 244.599 254.55C244.178 254.13 243.892 253.594 243.776 253.011C243.661 252.428 243.721 251.824 243.949 251.275C244.177 250.726 244.563 250.257 245.058 249.927C245.553 249.598 246.134 249.423 246.729 249.424C247.524 249.424 248.286 249.74 248.847 250.302C249.409 250.863 249.725 251.625 249.725 252.42Z" fill="white"/>
<path d="M247.639 209.664C247.639 209.951 247.554 210.231 247.395 210.469C247.236 210.707 247.009 210.893 246.744 211.003C246.48 211.112 246.188 211.141 245.907 211.085C245.626 211.029 245.368 210.891 245.165 210.689C244.963 210.486 244.825 210.228 244.769 209.947C244.713 209.666 244.742 209.374 244.851 209.109C244.961 208.845 245.147 208.618 245.385 208.459C245.623 208.3 245.903 208.215 246.19 208.215C246.574 208.215 246.943 208.368 247.215 208.639C247.486 208.911 247.639 209.28 247.639 209.664Z" fill="white"/>
<path d="M233.835 209.244C233.479 209.109 233.135 208.945 232.806 208.754C232.512 208.583 232.276 208.326 232.13 208.018C231.984 207.711 231.935 207.366 231.989 207.03C232.042 206.693 232.197 206.381 232.431 206.134C232.666 205.887 232.97 205.717 233.303 205.646C237.692 204.687 245.952 202.769 249.515 201.446C248.304 204.757 240.52 208.922 237.979 209.419C236.606 209.728 235.176 209.668 233.835 209.244Z" fill="black"/>
<path d="M233.835 209.244C236.824 210.091 239.764 207.62 239.813 204.218C239.819 203.837 239.937 203.467 240.152 203.153C240.367 202.839 240.671 202.596 241.024 202.454C244.076 201.236 250.579 199.367 253.736 198.485C253.971 198.417 254.219 198.405 254.46 198.448C254.701 198.491 254.929 198.59 255.126 198.735C255.323 198.881 255.483 199.069 255.596 199.287C255.708 199.505 255.769 199.745 255.773 199.99C255.815 202.09 255.213 205.142 251.573 206.157C239.645 209.489 236.516 210.266 233.835 209.244Z" fill="#263238"/>
<path d="M195.207 74.3268C199.315 56.9209 188.536 39.4804 171.13 35.3722C153.724 31.2641 136.283 42.044 132.175 59.4498C128.067 76.8557 138.847 94.2962 156.253 98.4044C173.659 102.513 191.099 91.7326 195.207 74.3268Z" fill="#90CAF9"/>
<path d="M135.618 71.806L121.926 86.401L141.82 87.353L135.618 71.806Z" fill="#90CAF9"/>
<path d="M191.44 73.4376C195.057 58.1124 185.566 42.7568 170.241 39.1397C154.915 35.5226 139.56 45.0139 135.943 60.339C132.326 75.6642 141.817 91.0198 157.142 94.6369C172.467 98.2539 187.823 88.7627 191.44 73.4376Z" fill="white"/>
<path d="M144.2 61.789C146.087 62.4011 147.922 63.1619 149.688 64.064C151.442 64.9403 153.148 65.91 154.798 66.969C155.617 67.508 156.443 68.04 157.234 68.628C158.025 69.216 158.816 69.811 159.586 70.427C161.164 71.6986 162.647 73.0836 164.024 74.571L158.536 74.942C160.037 72.517 161.729 70.216 163.597 68.061C165.427 65.9599 167.376 63.9663 169.435 62.09C171.495 60.2319 173.662 58.4953 175.924 56.889C178.197 55.2412 180.615 53.8026 183.148 52.591C181.748 55.076 180.201 57.351 178.626 59.591C177.051 61.831 175.427 63.987 173.81 66.122L168.91 72.422C167.3 74.522 165.732 76.573 164.276 78.638L161.574 82.46L158.774 79.009C157.682 77.651 156.492 76.286 155.274 74.907L151.543 70.707C150.29 69.307 149.023 67.907 147.784 66.388C146.545 64.869 145.397 63.427 144.2 61.789Z" fill="#90CAF9"/>
</svg>
