<svg width="266" height="248" viewBox="0 0 266 248" fill="none" xmlns="http://www.w3.org/2000/svg">
<path d="M234.314 169.523C238.171 167.668 242.714 167.425 246.997 168.084C249.3 168.437 251.7 169.076 253.264 170.693C254.828 172.31 255.126 175.157 253.328 176.521C252.264 177.35 250.764 177.474 249.375 177.459C246.023 177.419 242.305 176.869 239.629 178.753C238.097 179.825 237.08 181.61 235.256 182.136C233.431 182.662 231.452 181.67 230.505 180.152C229.558 178.634 229.521 176.764 229.973 175.068C230.191 173.895 230.696 172.784 231.449 171.823C232.202 170.861 233.182 170.074 234.314 169.523Z" fill="#EBEBEB"/>
<path d="M225.478 153.616C227.84 156.756 232.42 155.714 234.548 153.8C236.676 151.885 237.57 149.103 238.389 146.454C240.257 140.398 242.113 134.054 240.751 127.884C240.417 126.015 239.537 124.268 238.208 122.834C236.82 121.465 234.681 120.652 232.729 121.133C230.42 121.704 229.005 123.816 227.941 125.82C224.883 131.754 223.281 138.249 223.254 144.832C223.254 147.892 223.626 151.096 225.478 153.626" fill="#EBEBEB"/>
<path d="M219.003 158.12C221.562 155.288 222.046 151.176 220.908 147.605C219.769 144.033 217.184 141.033 214.226 138.568C210.734 135.669 206.67 133.434 202.261 131.986C200.555 131.345 198.72 131.056 196.883 131.137C195.058 131.296 193.217 132.169 192.366 133.682C191.11 135.919 192.313 138.642 193.621 140.854C195.923 144.759 198.551 148.488 201.479 152.009C203.836 154.841 206.533 157.634 210.124 158.913C213.715 160.193 217.439 160.039 219.344 157.718" fill="#EBEBEB"/>
<path d="M225.318 200.994C225.443 200.528 225.514 200.051 225.531 199.571C225.642 198.529 225.775 197.224 225.94 195.672C226.148 193.757 226.461 191.853 226.877 189.968C227.426 187.669 228.172 185.415 229.106 183.227C230.021 181.041 231.264 178.987 232.798 177.127C234.047 175.611 235.642 174.374 237.469 173.506C238.706 172.934 240.033 172.549 241.4 172.365C241.914 172.346 242.423 172.278 242.922 172.162C242.409 172.097 241.889 172.089 241.374 172.137C239.954 172.237 238.565 172.573 237.272 173.129C235.349 173.974 233.663 175.224 232.346 176.779C230.747 178.664 229.458 180.761 228.521 182.999C227.573 185.221 226.833 187.514 226.307 189.854C225.911 191.766 225.639 193.699 225.493 195.642C225.36 197.294 225.313 198.618 225.286 199.561C225.242 200.038 225.253 200.519 225.318 200.994Z" fill="#E0E0E0"/>
<path d="M225.605 197.998C225.648 197.779 225.662 197.556 225.648 197.334C225.648 196.838 225.648 196.213 225.648 195.444C225.648 193.797 225.648 191.421 225.738 188.5C225.892 182.622 226.435 176.303 227.483 167.39C228.478 159.013 229.808 149.256 231.207 142.917C231.51 141.474 231.814 140.175 232.101 139.039C232.388 137.903 232.633 136.921 232.83 136.122C233.027 135.324 233.176 134.768 233.303 134.282C233.372 134.071 233.413 133.853 233.426 133.632C233.316 133.828 233.233 134.037 233.181 134.252L232.59 136.068C232.33 136.851 232.058 137.828 231.755 138.964C231.452 140.1 231.101 141.39 230.771 142.828C229.032 150.328 227.723 157.91 226.85 165.54C225.786 174.468 225.329 182.602 225.286 188.49C225.249 191.436 225.318 193.817 225.398 195.464C225.446 196.232 225.488 196.857 225.52 197.353C225.523 197.571 225.552 197.787 225.605 197.998Z" fill="#E0E0E0"/>
<path d="M225.648 182.315C225.704 181.654 225.704 180.991 225.648 180.331C225.573 179.061 225.382 177.221 224.999 174.969C224.531 172.332 223.902 169.722 223.115 167.152C222.202 163.993 221.03 160.903 219.61 157.912C216.705 151.488 212.757 146.236 209.326 142.982C208.568 142.235 207.76 141.534 206.905 140.884C206.533 140.591 206.209 140.299 205.873 140.065L204.932 139.465C204.368 139.068 203.772 138.711 203.149 138.399C203.048 138.528 205.676 139.971 209.001 143.27C212.326 146.568 216.152 151.776 219.03 158.15C220.422 161.125 221.6 164.184 222.557 167.306C223.472 170.178 224.084 172.816 224.547 175.038C225.009 177.26 225.238 179.086 225.387 180.346C225.421 181.007 225.508 181.665 225.648 182.315Z" fill="#E0E0E0"/>
<path d="M209.39 209.982L211.076 231.513H240.741L242.427 209.982H209.39Z" fill="#E0E0E0"/>
<path d="M245.965 201.495H206.522V209.982H245.965V201.495Z" fill="#E0E0E0"/>
<path d="M206.522 230.69V233.041H208.379H245.316V230.69H206.522Z" fill="#EBEBEB"/>
<path d="M210.193 237.182L208.379 233.041H243.901L241.783 237.182H210.193Z" fill="#E0E0E0"/>
<path d="M241.879 217.02C241.84 217.089 241.794 217.153 241.741 217.213L241.294 217.764L239.565 219.827L239.49 219.916L239.416 219.822L235.16 214.366H235.405C234.138 216.033 232.745 217.893 231.223 219.887L231.09 220.06L230.946 219.897L225.988 214.396H226.276L225.999 214.718C224.461 216.514 222.977 218.255 221.567 219.897L221.418 220.07L221.285 219.892C219.78 217.908 218.37 216.053 217.104 214.376H217.343L212.193 219.832L212.103 219.926L212.034 219.817C211.353 218.756 210.81 217.908 210.438 217.293C210.268 217.02 210.129 216.797 210.023 216.618C209.972 216.543 209.929 216.463 209.895 216.38C209.961 216.444 210.019 216.516 210.065 216.593L210.528 217.243L212.22 219.723H212.06L217.125 214.188L217.253 214.044L217.37 214.198L221.589 219.688H221.312L225.733 214.5L226.004 214.178L226.148 214.014L226.291 214.173L231.234 219.683H230.957L235.181 214.193L235.304 214.034L235.426 214.193L239.57 219.728H239.4L241.198 217.719L241.677 217.198C241.81 217.069 241.868 217.015 241.879 217.02Z" fill="#F5F5F5"/>
<path d="M242.842 209.838C242.842 209.932 235.394 210.011 226.238 210.011C217.083 210.011 209.635 209.932 209.635 209.838C209.635 209.743 217.083 209.669 226.238 209.669C235.394 209.669 242.842 209.743 242.842 209.838Z" fill="#F5F5F5"/>
<path d="M244.342 233.274C244.342 233.368 236.261 233.442 226.297 233.442C216.332 233.442 208.251 233.368 208.251 233.274C208.251 233.18 216.327 233.1 226.297 233.1C236.266 233.1 244.342 233.18 244.342 233.274Z" fill="#F5F5F5"/>
<path d="M79.8798 90.1728C80.0474 90.081 80.2259 90.0077 80.4118 89.9545C80.9762 89.7886 81.5817 89.7886 82.1461 89.9545C82.6042 90.0937 83.0191 90.3349 83.3547 90.6573C83.6903 90.9797 83.9365 91.3735 84.0719 91.8046C84.2543 92.4018 84.2172 93.0386 83.9665 93.6139C83.7159 94.1891 83.2661 94.6696 82.6887 94.979V94.8897C85.2476 99.4331 88.9397 105.99 93.3819 113.867L100.532 126.599C100.881 127.161 101.177 127.75 101.415 128.36C101.756 129.321 101.83 130.348 101.631 131.343C101.432 132.339 100.966 133.271 100.277 134.054C99.3177 135.139 97.9827 135.879 96.5018 136.145C95.0208 136.411 93.4866 136.187 92.1637 135.512C91.2375 135.031 90.4478 134.351 89.8601 133.528C89.5835 133.107 89.3281 132.68 89.1153 132.258C88.9025 131.837 88.6418 131.415 88.4077 130.994L85.6254 126.034C83.8059 122.775 82.0397 119.625 80.3532 116.61L71.3092 100.43L71.4476 100.475C71.0682 100.642 70.6559 100.734 70.2365 100.745C69.8172 100.756 69.3999 100.686 69.011 100.539C68.4884 100.34 68.0365 100.008 67.7073 99.5807C67.3781 99.1532 67.1849 98.6478 67.1499 98.1226C67.1149 97.5973 67.2396 97.0735 67.5095 96.6114C67.7794 96.1492 68.1837 95.7674 68.6758 95.5097L74.6875 92.6032L78.4966 90.7779L79.4914 90.3067L79.8319 90.1529C79.8319 90.1529 79.7255 90.2174 79.5021 90.3315L78.5232 90.8275L74.7407 92.7024L68.7557 95.6486C68.172 95.9538 67.7261 96.4452 67.5001 97.0325C67.3035 97.5227 67.2689 98.0565 67.4008 98.5652C67.5327 99.0739 67.8251 99.5341 68.2402 99.8864C68.6553 100.239 69.1741 100.467 69.7297 100.542C70.2852 100.617 70.8521 100.534 71.3571 100.306L71.4476 100.266L71.4955 100.351L80.5767 116.5L85.8648 125.924C86.7727 127.551 87.7002 129.205 88.6471 130.884C88.8812 131.306 89.1153 131.728 89.3547 132.149C89.5941 132.571 89.8228 132.997 90.0888 133.394C90.6222 134.151 91.3392 134.781 92.1817 135.233C93.0243 135.684 93.9688 135.944 94.9392 135.993C95.9095 136.041 96.8784 135.876 97.7677 135.51C98.657 135.145 99.4417 134.59 100.059 133.89C100.939 132.875 101.433 131.615 101.463 130.309C101.468 129.673 101.364 129.04 101.154 128.434C100.917 127.84 100.629 127.264 100.293 126.713C97.7603 122.195 95.3716 117.914 93.1638 113.971C88.7588 106.075 85.0987 99.5075 82.5557 94.9542L82.5291 94.8947L82.5877 94.8649C83.1768 94.5513 83.6288 94.0544 83.8645 93.4613C83.9951 93.1268 84.0526 92.7713 84.0337 92.4157C84.0147 92.0602 83.9196 91.7118 83.7541 91.391C83.5885 91.0703 83.3557 90.7836 83.0695 90.548C82.7833 90.3124 82.4495 90.1325 82.0876 90.019C81.5392 89.8494 80.9501 89.8305 80.3905 89.9645C80.0607 90.0885 79.8904 90.1877 79.8798 90.1728Z" fill="#E0E0E0"/>
<path d="M75.9547 105.145L84.2909 101.084L99.6386 128.466C100.144 129.367 100.244 130.419 99.9178 131.389C99.5915 132.359 98.8651 133.169 97.8985 133.64L96.8565 134.148C96.3778 134.382 95.8543 134.525 95.316 134.57C94.7777 134.616 94.2351 134.561 93.7192 134.411C93.2034 134.26 92.7244 134.017 92.3097 133.694C91.895 133.37 91.5527 132.974 91.3024 132.528L75.9547 105.145Z" fill="#E0E0E0"/>
<path d="M82.6675 94.9393C82.7047 95.0038 80.2256 96.2835 77.1294 97.7963C74.0331 99.3091 71.4955 100.485 71.4636 100.42C71.4316 100.356 73.9054 99.0809 77.0017 97.5681C80.0979 96.0553 82.6302 94.8798 82.6675 94.9393Z" fill="#E0E0E0"/>
<path d="M176.677 41.8177C173.304 51.1326 167.915 66.1912 165.436 73.1054C165.263 73.592 165.194 74.1056 165.234 74.6168C165.274 75.1281 165.422 75.6269 165.669 76.0849C165.916 76.5428 166.258 76.9509 166.674 77.2856C167.091 77.6203 167.574 77.8752 168.096 78.0357L195.393 86.5966C195.915 86.7632 196.467 86.832 197.017 86.7989C197.567 86.7658 198.105 86.6315 198.6 86.4037C199.094 86.176 199.536 85.8593 199.898 85.4719C200.261 85.0845 200.538 84.634 200.713 84.1464L211.885 53.1414C212.273 52.0631 212.43 50.9241 212.346 49.7893C212.262 48.6546 211.939 47.5464 211.395 46.528C210.852 45.5096 210.099 44.601 209.179 43.8541C208.259 43.1072 207.19 42.5366 206.033 42.1749L207.682 37.6117L189.807 32.0069L188.248 36.3171H188.184C185.876 35.6603 183.383 35.8672 181.236 36.8939C179.088 37.9207 177.453 39.6866 176.677 41.8177Z" fill="#F5F5F5"/>
<path d="M189.573 32.5872L188.828 34.6605L206.49 40.8605L207.448 38.192L189.573 32.5872Z" fill="#E0E0E0"/>
<path d="M191.54 25.4682L210.58 31.4389C210.981 31.5647 211.312 31.834 211.501 32.1874C211.689 32.5409 211.719 32.9496 211.584 33.3236L209.435 39.2801C209.348 39.5207 209.162 39.7193 208.919 39.8323C208.675 39.9452 208.393 39.9632 208.134 39.8822L188.02 33.5748C187.762 33.4938 187.549 33.3206 187.428 33.0932C187.307 32.8658 187.288 32.6029 187.374 32.3622L189.525 26.4011C189.66 26.0271 189.949 25.7183 190.328 25.5428C190.707 25.3672 191.145 25.3393 191.546 25.4651L191.54 25.4682Z" fill="#EBEBEB"/>
<path d="M189.855 34.1942C189.722 34.1496 190.286 32.2747 191.105 30.003C191.924 27.7313 192.701 25.916 192.823 25.9557C192.946 25.9953 192.392 27.8752 191.573 30.1469C190.754 32.4185 189.983 34.224 189.855 34.1942Z" fill="#E0E0E0"/>
<path d="M192.212 34.9333C192.079 34.8886 192.637 33.0137 193.462 30.7421C194.286 28.4704 195.058 26.655 195.18 26.6947C195.303 26.7344 194.749 28.6142 193.93 30.8859C193.111 33.1576 192.339 34.9729 192.212 34.9333Z" fill="#E0E0E0"/>
<path d="M194.563 35.6723C194.435 35.6277 194.994 33.7528 195.813 31.4761C196.633 29.1995 197.409 27.3941 197.537 27.4337C197.665 27.4734 197.106 29.3533 196.287 31.6249C195.467 33.8966 194.712 35.712 194.563 35.6723Z" fill="#E0E0E0"/>
<path d="M196.92 36.4114C196.792 36.3667 197.351 34.4918 198.17 32.2152C198.989 29.9386 199.766 28.1331 199.894 28.1728C200.021 28.2125 199.463 30.0923 198.638 32.364C197.814 34.6357 197.047 36.451 196.92 36.4114Z" fill="#E0E0E0"/>
<path d="M199.277 37.1454C199.149 37.1058 199.707 35.2309 200.527 32.9542C201.346 30.6776 202.123 28.8722 202.245 28.9118C202.367 28.9515 201.82 30.8264 200.995 33.103C200.17 35.3797 199.404 37.2 199.277 37.1454Z" fill="#E0E0E0"/>
<path d="M201.628 37.8845C201.495 37.8448 202.059 35.9699 202.878 33.6933C203.697 31.4166 204.474 29.6112 204.597 29.6509C204.719 29.6906 204.166 31.5654 203.346 33.8421C202.527 36.1187 201.761 37.9291 201.628 37.8845Z" fill="#E0E0E0"/>
<path d="M203.985 38.6235C203.857 38.5838 204.416 36.7089 205.24 34.4323C206.065 32.1557 206.836 30.3502 206.959 30.3899C207.081 30.4296 206.528 32.3045 205.708 34.5811C204.889 36.8577 204.118 38.688 203.985 38.6235Z" fill="#E0E0E0"/>
<path d="M206.341 39.3625C206.214 39.3229 206.772 37.448 207.592 35.1713C208.411 32.8947 209.188 31.0893 209.315 31.1289C209.443 31.1686 208.884 33.0435 208.065 35.3201C207.246 37.5968 206.474 39.4072 206.341 39.3625Z" fill="#E0E0E0"/>
<path d="M204.919 55.6661L180.801 48.1031C180.389 47.9739 179.942 48.1806 179.804 48.5649L174.607 62.9694C174.468 63.3537 174.69 63.7699 175.102 63.8992L199.22 71.4622C199.632 71.5914 200.079 71.3847 200.218 71.0004L205.414 56.5959C205.553 56.2116 205.331 55.7953 204.919 55.6661Z" fill="#EBEBEB"/>
<path d="M198.638 70.0798C198.655 69.9871 198.68 69.8959 198.713 69.807C198.776 69.6086 198.862 69.3656 198.957 69.068C199.191 68.3835 199.509 67.4543 199.91 66.2805C200.755 63.86 201.947 60.4525 203.399 56.3109L203.522 56.544L181.056 49.5454L181.369 49.4016V49.4314V49.4909L181.332 49.605L181.247 49.8331L181.082 50.2845L180.758 51.1922L180.109 52.9827C179.678 54.1682 179.257 55.3387 178.842 56.4845C178.007 58.776 177.209 60.9832 176.443 63.0813L176.305 62.8134L192.376 67.9619L197 69.4747L198.239 69.8914C198.39 69.9374 198.537 69.9921 198.681 70.055C198.543 70.0326 198.408 69.9994 198.276 69.9558L197.058 69.5987L192.446 68.2149L176.092 63.24L175.879 63.1755L175.948 62.9722C176.704 60.8691 177.496 58.6619 178.316 56.3654C178.731 55.2197 179.151 54.0491 179.577 52.8637C179.789 52.2685 180.007 51.6733 180.226 51.0682L180.55 50.1654L180.715 49.7091L180.795 49.481L180.837 49.3669V49.3074C180.555 49.4314 181.22 49.1288 181.151 49.1586L203.65 56.1968L203.836 56.2563L203.772 56.425L200.032 66.464C199.596 67.6114 199.252 68.5174 199 69.1821L198.723 69.8765C198.704 69.9472 198.675 70.0155 198.638 70.0798Z" fill="#E0E0E0"/>
<path d="M198.51 59.7184C198.468 59.8374 195.015 58.8653 190.802 57.541C186.588 56.2166 183.21 55.061 183.253 54.932C183.295 54.803 186.748 55.7851 190.961 57.1045C195.175 58.4238 198.553 59.5944 198.51 59.7184Z" fill="#E0E0E0"/>
<path d="M197.638 62.1339C197.595 62.2579 194.143 61.2808 189.929 59.9614C185.716 58.6421 182.338 57.4814 182.38 57.3475C182.423 57.2136 185.875 58.2006 190.089 59.5249C194.302 60.8493 197.681 62 197.638 62.1339Z" fill="#E0E0E0"/>
<path d="M196.797 64.48C196.755 64.599 193.307 63.6269 189.094 62.3025C184.881 60.9782 181.497 59.8225 181.545 59.6936C181.593 59.5646 185.035 60.5467 189.248 61.8661C193.462 63.1854 196.84 64.3361 196.797 64.48Z" fill="#E0E0E0"/>
<path d="M205.043 41.7086C205.001 41.8277 201.24 40.7563 196.643 39.3179C192.047 37.8795 188.328 36.6097 188.392 36.4857C188.456 36.3617 192.201 37.4381 196.797 38.8814C201.394 40.3248 205.086 41.5896 205.043 41.7086Z" fill="#E0E0E0"/>
<path d="M167.58 71.7761C167.686 71.2704 167.834 70.773 168.022 70.2881C168.378 69.2664 168.841 67.9123 169.405 66.2705C170.591 62.8829 172.267 58.2105 174.14 53.0621C175.086 50.4928 175.986 48.0475 176.8 45.8105C177.613 43.5736 178.598 41.5797 179.954 40.2504C180.987 39.1727 182.36 38.4278 183.875 38.1225C184.286 38.0547 184.704 38.033 185.12 38.0581C185.265 38.0613 185.408 38.0847 185.546 38.1275C184.999 38.1444 184.454 38.2024 183.918 38.3011C182.47 38.6561 181.171 39.4118 180.194 40.4686C178.928 41.7731 178.002 43.7224 177.214 45.9494L174.586 53.2109C172.714 58.3593 170.99 63.0118 169.713 66.3747L168.186 70.3427C168.024 70.8342 167.821 71.3134 167.58 71.7761Z" fill="white"/>
<path d="M198.521 86.2693C198.131 86.0521 197.763 85.8032 197.42 85.5253C197.085 85.2723 196.664 84.9697 196.159 84.6424C195.654 84.315 195.095 83.9083 194.446 83.5264C192.937 82.5849 191.371 81.727 189.754 80.9571C185.785 79.0741 181.54 77.7455 177.156 77.0139C175.37 76.7184 173.567 76.5196 171.756 76.4187C170.985 76.3542 170.283 76.3592 169.665 76.3443C169.048 76.3294 168.522 76.3443 168.069 76.3443C167.619 76.379 167.166 76.369 166.718 76.3146C167.159 76.2283 167.608 76.1785 168.059 76.1657C168.495 76.1261 169.027 76.0963 169.655 76.0963C170.283 76.0963 170.985 76.0566 171.783 76.0963C173.614 76.1478 175.439 76.3135 177.246 76.5923C181.679 77.2813 185.967 78.6206 189.951 80.5603C191.573 81.3539 193.137 82.247 194.632 83.2337C195.281 83.6405 195.824 84.0621 196.313 84.4142C196.803 84.7664 197.212 85.0937 197.537 85.3715C197.896 85.6395 198.226 85.9402 198.521 86.2693Z" fill="white"/>
<path d="M213.114 92.8413C211.832 90.9565 210.087 88.6798 209.087 86.9835C207.429 89.6763 206.079 92.5241 205.059 95.48C204.408 97.1218 204.094 98.8634 204.134 100.614C204.251 102.355 205.038 104.125 206.565 105.137C208.517 106.437 211.816 106.323 213.704 104.944C215.593 103.565 216.306 101.472 216.274 99.2149C216.242 96.9581 214.396 94.736 213.114 92.8413Z" fill="#EBEBEB"/>
<path d="M222.376 78.0009C221.429 76.6121 220.142 74.9357 219.407 73.6808C218.184 75.6657 217.189 77.7655 216.439 79.9453C215.961 81.1544 215.73 82.4364 215.758 83.7248C215.743 84.4927 215.964 85.2486 216.395 85.9033C216.825 86.558 217.448 87.0842 218.189 87.4199C218.93 87.7557 219.758 87.8869 220.576 87.7982C221.395 87.7094 222.168 87.4044 222.807 86.919C224.195 85.8973 224.727 84.3448 224.701 82.6981C224.674 81.0513 223.323 79.3947 222.376 78.0009Z" fill="#EBEBEB"/>
<path d="M31.1858 210.423L35.5482 237.143H60.882L66.7606 210.81L31.1858 210.423Z" fill="#F5F5F5"/>
<path d="M63.2175 227.545C63.2175 227.624 56.7271 227.684 48.7205 227.684C40.7139 227.684 34.2235 227.624 34.2235 227.545C34.2235 227.466 40.7139 227.406 48.7205 227.406C56.7271 227.406 63.2175 227.471 63.2175 227.545Z" fill="#FAFAFA"/>
<path d="M63.308 226.231C63.308 226.31 56.7697 226.369 48.7099 226.369C40.6501 226.369 34.1118 226.31 34.1118 226.231C34.1118 226.151 40.6448 226.097 48.7099 226.097C56.775 226.097 63.308 226.176 63.308 226.231Z" fill="#FAFAFA"/>
<path d="M63.2654 224.748C63.2654 224.827 56.7325 224.886 48.6727 224.886C40.6129 224.886 34.0746 224.827 34.0746 224.748C34.0746 224.668 40.6075 224.609 48.6727 224.609C56.7378 224.609 63.2654 224.688 63.2654 224.748Z" fill="#FAFAFA"/>
<path d="M38.4582 235.6C37.8365 233.378 37.4147 231.112 37.1974 228.825C37.55 229.927 37.8097 231.053 37.9741 232.192C38.2309 233.315 38.3927 234.454 38.4582 235.6Z" fill="#FAFAFA"/>
<path d="M40.1819 235.332C40.0018 234.247 39.8952 233.152 39.8627 232.054C39.7374 230.96 39.6823 229.86 39.6978 228.76C39.9766 229.833 40.1317 230.93 40.1606 232.034C40.289 233.13 40.2961 234.235 40.1819 235.332Z" fill="#FAFAFA"/>
<path d="M43.3207 235.332C42.7258 233.116 42.4397 230.837 42.4695 228.552C42.7018 229.67 42.8652 230.799 42.959 231.935C43.1488 233.06 43.2696 234.194 43.3207 235.332Z" fill="#FAFAFA"/>
<path d="M45.5232 235.471C45.2859 234.345 45.1683 233.201 45.1721 232.054C45.0852 230.909 45.1245 229.759 45.2892 228.621C45.419 229.758 45.4794 230.901 45.47 232.044C45.5599 233.184 45.5776 234.329 45.5232 235.471Z" fill="#FAFAFA"/>
<path d="M49.4281 235.332C49.2415 234.26 49.1525 233.175 49.1621 232.088C49.0723 231.005 49.0829 229.916 49.194 228.835C49.3806 229.907 49.4696 230.992 49.46 232.078C49.5498 233.162 49.5391 234.25 49.4281 235.332Z" fill="#FAFAFA"/>
<path d="M52.2796 235.476C52.1041 233.24 52.1236 230.994 52.3381 228.76C52.5208 230.996 52.5012 233.243 52.2796 235.476Z" fill="#FAFAFA"/>
<path d="M54.9556 235.104C54.9238 233.93 54.995 232.756 55.1684 231.592C55.2505 230.424 55.4284 229.263 55.7004 228.12C55.7321 229.294 55.6609 230.469 55.4876 231.632C55.4055 232.8 55.2276 233.961 54.9556 235.104Z" fill="#FAFAFA"/>
<path d="M58.403 234.767C58.4073 233.762 58.5503 232.762 58.8286 231.791C59.0097 230.797 59.3261 229.828 59.7702 228.909C59.6121 229.899 59.3936 230.879 59.1158 231.845C58.9345 232.83 58.6966 233.806 58.403 234.767Z" fill="#FAFAFA"/>
<path d="M28.2758 205.131V210.13C28.2758 210.657 28.5 211.161 28.899 211.533C29.2981 211.905 29.8394 212.114 30.4038 212.114H67.1118C67.6761 212.114 68.2174 211.905 68.6165 211.533C69.0156 211.161 69.2398 210.657 69.2398 210.13V205.131H28.2758Z" fill="#F5F5F5"/>
<path d="M31.4572 212.1L31.7604 213.692L65.6169 215.944L66.4734 212.1H31.4572Z" fill="#E0E0E0"/>
<path d="M33.8033 205.156C33.8033 205.156 19.5403 189.829 21.1257 189.284C22.7111 188.738 35.3886 197.22 35.3886 197.22C35.3886 197.22 24.472 174.498 26.6691 172.836C28.8663 171.175 40.3415 192.969 40.3415 192.969C40.3415 192.969 38.5593 161.2 40.3415 160.828C42.1237 160.456 48.662 192.597 48.662 192.597C48.662 192.597 58.3657 163.234 61.1427 163.234C63.9198 163.234 58.1688 191.506 58.1688 191.506C58.1688 191.506 69.66 173.407 71.4422 175.807C73.2244 178.208 63.308 197.77 63.308 197.77C63.308 197.77 77.7784 186.496 78.3742 187.984C78.9701 189.472 62.7228 205.16 62.7228 205.16L33.8033 205.156Z" fill="#EBEBEB"/>
<path d="M31.8136 182.072C31.9093 182.027 34.4416 187.086 37.4634 193.366C40.4852 199.645 42.8579 204.774 42.7834 204.808C42.7089 204.843 40.1553 199.794 37.1336 193.514C34.1118 187.235 31.7125 182.111 31.8136 182.072Z" fill="#E0E0E0"/>
<path d="M43.3367 184.894C43.4431 184.894 43.8687 189.358 44.273 194.849C44.6773 200.339 44.9327 204.823 44.805 204.828C44.6773 204.833 44.273 200.364 43.8687 194.873C43.4643 189.383 43.2249 184.904 43.3367 184.894Z" fill="#E0E0E0"/>
<path d="M59.2276 170.669C59.2195 170.792 59.1927 170.914 59.1478 171.031C59.0626 171.299 58.9562 171.631 58.8339 172.023C58.536 172.95 58.1316 174.2 57.6369 175.723C56.6314 178.848 55.2801 183.163 53.9129 187.984C52.5456 192.805 51.3912 197.19 50.5932 200.384C50.2048 201.936 49.8856 203.206 49.6462 204.149C49.5398 204.56 49.4494 204.898 49.3802 205.17C49.3591 205.293 49.3178 205.412 49.2579 205.523C49.2586 205.399 49.2729 205.276 49.3004 205.156L49.4973 204.119C49.6782 203.221 49.9548 201.927 50.3219 200.329C51.0507 197.135 52.1466 192.741 53.5139 187.929C54.8811 183.118 56.2909 178.793 57.3656 175.688C57.8976 174.136 58.3498 172.881 58.6743 172.018L59.0573 171.026C59.0998 170.901 59.1569 170.781 59.2276 170.669Z" fill="#E0E0E0"/>
<path d="M66.101 187.042C66.1914 187.101 63.4038 190.97 59.8819 195.687C56.3601 200.404 53.4341 204.178 53.3436 204.119C53.2532 204.059 56.0409 200.191 59.5627 195.474C63.0846 190.757 66.0159 186.992 66.101 187.042Z" fill="#E0E0E0"/>
<path d="M38.6179 204.848C38.1613 204.626 37.7404 204.346 37.3677 204.015C36.4196 203.281 35.514 202.501 34.6545 201.679C33.7921 200.858 32.9786 199.993 32.2179 199.089C31.8746 198.732 31.5847 198.334 31.3561 197.904C31.4465 197.835 32.9521 199.511 34.9364 201.421C36.9208 203.33 38.687 204.749 38.6179 204.848Z" fill="#E0E0E0"/>
<path d="M47.2788 198.742C47.3852 198.742 47.614 200.151 47.7842 201.902C47.9545 203.653 48.0077 205.091 47.9013 205.101C47.7949 205.111 47.5661 203.692 47.3693 201.936C47.1724 200.181 47.1724 198.752 47.2788 198.742Z" fill="#E0E0E0"/>
<path d="M98.1327 81.8995L90.7379 70.1195C95.1052 63.3065 96.5813 55.2169 94.8761 47.4408C93.1709 39.6647 88.4077 32.7644 81.5228 28.0962C74.6379 23.428 66.1292 21.3295 57.669 22.2133C49.2089 23.097 41.4093 26.899 35.8031 32.872C30.197 38.8449 27.1898 46.5569 27.3726 54.4921C27.5555 62.4272 30.9151 70.0117 36.7912 75.7547C42.6674 81.4976 50.635 84.9838 59.128 85.528C67.621 86.0721 76.0252 83.6349 82.6887 78.6953L98.1327 81.8995Z" fill="#FAFAFA"/>
<path d="M98.1327 81.8995L82.6621 78.7697C82.6447 78.7662 82.6294 78.7564 82.6195 78.7425C82.6095 78.7287 82.6058 78.7118 82.6089 78.6953L82.7047 78.7846C80.5662 80.3725 78.2341 81.7194 75.7568 82.7973C71.1626 84.79 66.1454 85.7903 61.0789 85.7237C59.1661 85.7127 57.2579 85.5467 55.3759 85.2277C48.7156 84.1003 42.5634 81.1571 37.697 76.7702C32.8307 72.3833 29.4688 66.7496 28.0364 60.5814C26.9845 55.9228 27.0426 51.1056 28.2066 46.4702C29.4526 41.6212 31.9016 37.1124 35.3567 33.3064C36.2452 32.3285 37.1919 31.3979 38.1923 30.5189C39.1935 29.6582 40.2468 28.8517 41.347 28.1033C43.5107 26.6187 45.8599 25.3845 48.3428 24.428C50.7687 23.4838 53.3037 22.8047 55.8972 22.4043C58.4271 22.0226 60.9943 21.9012 63.5527 22.0422C68.4672 22.3085 73.2603 23.5713 77.5975 25.7424C83.1428 28.4952 87.763 32.6247 90.9469 37.674C94.1309 42.7233 95.7543 48.4954 95.6376 54.3517C95.5885 57.3807 95.0725 60.3875 94.1055 63.2797C93.2926 65.6817 92.1821 67.9871 90.7964 70.1493V70.0897L98.1327 81.8995L90.6847 70.1493C90.6796 70.1401 90.6769 70.1299 90.6769 70.1195C90.6769 70.1091 90.6796 70.0989 90.6847 70.0897C92.0571 67.9317 93.1534 65.6311 93.9512 63.235C94.9063 60.3548 95.4116 57.3613 95.4514 54.3467C95.4941 50.8852 94.9372 47.44 93.8022 44.144C91.0745 36.354 85.2278 29.8458 77.4805 25.9755C73.1727 23.826 68.4146 22.5769 63.5367 22.315C60.9978 22.1767 58.4503 22.2981 55.9398 22.6771C53.3698 23.0692 50.8565 23.7349 48.4492 24.6611C45.9954 25.6153 43.6734 26.8409 41.5332 28.3117C40.4422 29.0536 39.3995 29.8552 38.4104 30.7123C37.4146 31.5806 36.4749 32.5031 35.5961 33.475C32.173 37.2385 29.7442 41.6978 28.5045 46.495C27.34 51.0982 27.2783 55.8841 28.3237 60.512C29.7372 66.6407 33.0702 72.2403 37.9003 76.6014C42.7304 80.9624 48.8402 83.8887 55.4557 85.0094C59.0953 85.6096 62.814 85.6682 66.4734 85.183C69.6721 84.7475 72.7876 83.8873 75.7249 82.6286C78.1893 81.5638 80.5107 80.2319 82.6409 78.6606C82.6537 78.6491 82.6709 78.6427 82.6887 78.6427C82.7066 78.6427 82.7237 78.6491 82.7366 78.6606C82.7467 78.6707 82.7523 78.684 82.7523 78.6978C82.7523 78.7116 82.7467 78.7249 82.7366 78.735L82.6994 78.6358L98.1327 81.8995Z" fill="#263238"/>
<path d="M73.316 38.9835L50.212 38.8068C48.7783 38.7958 47.6064 39.8706 47.5947 41.2073L47.374 66.2892C47.3622 67.6259 48.515 68.7185 49.9488 68.7295L73.0527 68.9062C74.4865 68.9171 75.6584 67.8424 75.6701 66.5056L75.8908 41.4237C75.9026 40.087 74.7498 38.9944 73.316 38.9835Z" fill="#90CAF9"/>
<path d="M52.172 48.4486L52.157 50.1598C52.1364 52.5046 54.1584 54.421 56.6734 54.4402L67.2758 54.5213C69.7908 54.5405 71.8463 52.6553 71.8669 50.3105L71.882 48.5994C71.9026 46.2546 69.8805 44.3382 67.3656 44.3189L56.7632 44.2378C54.2482 44.2186 52.1927 46.1038 52.172 48.4486Z" fill="white"/>
<path d="M67.2767 54.5253C67.9739 54.4856 68.6557 54.317 69.2823 54.0293C70.0082 53.6923 70.6223 53.1781 71.0592 52.5413C71.3366 52.1481 71.5349 51.7111 71.6444 51.2517C71.7562 50.7328 71.7991 50.203 71.7721 49.6744C71.7948 49.0902 71.7753 48.5052 71.7136 47.9235C71.612 47.3052 71.357 46.7175 70.9688 46.2073C70.5427 45.643 69.9732 45.1858 69.3113 44.8768C68.6493 44.5678 67.9156 44.4166 67.1756 44.4366L56.7697 44.3672C55.894 44.3651 55.0373 44.6047 54.3074 45.0557C53.5775 45.5068 53.0071 46.1491 52.668 46.9017C52.5097 47.2643 52.4024 47.6444 52.3488 48.0326C52.3169 48.4096 52.3169 48.8064 52.3169 49.1982C52.2447 49.9467 52.3077 50.7011 52.5031 51.4302C52.7243 52.0877 53.1179 52.6833 53.6483 53.1631C54.1788 53.6429 54.8292 53.9918 55.5408 54.1781C56.1996 54.3201 56.8763 54.3769 57.5517 54.3467L59.451 54.3715L65.1806 54.4558L66.7394 54.4955H65.1806H57.5464C56.85 54.5303 56.1518 54.4752 55.4716 54.3318C54.7165 54.1409 54.0249 53.776 53.4606 53.2707C52.8963 52.7654 52.4774 52.1359 52.2424 51.4401C52.0335 50.6879 51.9616 49.9082 52.0296 49.1337C52.0296 48.7419 52.0296 48.3501 52.0615 47.9384C52.1147 47.526 52.2274 47.1223 52.3967 46.7381C52.7527 45.9471 53.3479 45.2698 54.1097 44.7888C54.5004 44.5488 54.9246 44.3602 55.3705 44.2283C55.8255 44.1061 56.2963 44.0426 56.7697 44.0398L67.1756 44.1291C67.9565 44.1116 68.7298 44.2751 69.4262 44.6049C70.1226 44.9348 70.7203 45.4206 71.1656 46.0189C71.5705 46.5599 71.8347 47.1814 71.937 47.8342C71.9956 48.4278 72.0098 49.0244 71.9796 49.6198C71.9996 50.1627 71.9478 50.7058 71.8253 51.2368C71.7062 51.7138 71.4933 52.1662 71.1975 52.571C70.7341 53.218 70.0879 53.7329 69.3302 54.059C68.855 54.2692 68.3433 54.3986 67.8193 54.4409C67.6847 54.45 67.5496 54.45 67.415 54.4409C67.3756 54.4776 67.3285 54.5063 67.2767 54.5253Z" fill="#263238"/>
<g opacity="0.4">
<path d="M56.924 38.8616C57.3389 41.0093 59.6212 43.0478 61.9567 42.9387C63.1068 42.8907 64.2006 42.4609 65.0406 41.7268C65.8806 40.9928 66.4114 40.0029 66.5372 38.936" fill="black"/>
</g>
<path d="M63.4835 42.5568C62.9843 42.8165 62.422 42.9529 61.8503 42.9529C61.2785 42.9529 60.7163 42.8165 60.217 42.5568L60.2968 33.8917C60.3066 33.4921 60.4844 33.1122 60.792 32.8338C61.0995 32.5555 61.5121 32.401 61.9407 32.4037C62.3702 32.4128 62.7785 32.5793 63.0772 32.8671C63.3759 33.1548 63.541 33.5408 63.5367 33.9413L63.4835 42.5568Z" fill="#455A64"/>
<path d="M62.4127 33.8023L61.4604 33.795L61.4283 37.4504L62.3805 37.4577L62.4127 33.8023Z" fill="white"/>
<path d="M61.3183 61.6726C61.281 61.6726 61.3183 61.3155 61.1374 60.7104C60.8925 59.8576 60.3496 59.1054 59.5946 58.5726C59.0435 58.1789 58.3951 57.9208 57.709 57.822C57.0229 57.7232 56.3212 57.7869 55.6684 58.0072C54.8948 58.2597 54.2215 58.7249 53.7373 59.3414C53.212 59.9969 52.9251 60.7917 52.9184 61.6099C52.9117 62.4281 53.1856 63.2269 53.7 63.8897C54.1735 64.5125 54.8372 64.9878 55.6046 65.2537C56.2532 65.4832 56.953 65.5581 57.6405 65.4715C58.328 65.3849 58.9814 65.1395 59.5414 64.7577C60.3124 64.2379 60.8743 63.4923 61.1374 62.6398C61.313 62.0397 61.297 61.6825 61.3342 61.6825C61.3492 61.768 61.3492 61.8551 61.3342 61.9405C61.333 62.1865 61.299 62.4314 61.2332 62.6696C61.0069 63.5649 60.454 64.3592 59.6691 64.9165C59.2038 65.2446 58.673 65.4829 58.1077 65.6174C57.5424 65.752 56.9541 65.7802 56.377 65.7003C55.7999 65.6204 55.2457 65.4341 54.7468 65.1521C54.2479 64.8702 53.8143 64.4984 53.4713 64.0584C52.9176 63.3494 52.6229 62.4934 52.6306 61.6165C52.6382 60.7395 52.9479 59.8881 53.5138 59.1877C53.8626 58.7503 54.302 58.3827 54.8062 58.1067C55.3103 57.8307 55.8687 57.6521 56.4483 57.5813C57.028 57.5105 57.6169 57.549 58.1803 57.6946C58.7436 57.8402 59.2698 58.0899 59.7276 58.4288C60.5028 58.9967 61.0424 59.7979 61.2544 60.6955C61.312 60.9365 61.3405 61.1827 61.3396 61.4296C61.3451 61.5111 61.3379 61.593 61.3183 61.6726Z" fill="#263238"/>
<path d="M54.796 61.623C54.8279 61.623 55.1897 61.8016 55.7483 62.0595C56.3069 62.3174 57.073 62.7341 57.9933 63.2251L57.7805 63.3342C57.7805 62.8085 57.7805 62.2381 57.7805 61.6478C57.7805 61.0576 57.7805 60.4872 57.7805 59.9565L57.988 60.0706C57.057 60.5666 56.2643 60.9584 55.7217 61.2014C55.179 61.4445 54.796 61.623 54.7641 61.623C54.7322 61.623 55.0248 61.4494 55.5834 61.127C56.142 60.8046 56.94 60.3582 57.8497 59.8622L58.0572 59.7531V59.9763C58.0572 60.507 58.0572 61.0774 58.0572 61.6677C58.0572 62.2579 58.0572 62.8283 58.0572 63.359V63.5822L57.8497 63.4682C56.9453 62.9722 56.1739 62.5258 55.6046 62.1686C55.0354 61.8115 54.7534 61.623 54.796 61.623Z" fill="#263238"/>
<path d="M62.1269 61.6776C62.1588 61.6776 62.1269 62.0347 62.3078 62.6398C62.5516 63.4944 63.0946 64.2485 63.8506 64.7826C64.4032 65.1734 65.0515 65.4297 65.7369 65.5284C66.4224 65.6271 67.1234 65.5651 67.7768 65.348C68.574 65.0788 69.2643 64.5895 69.7557 63.9453C70.2471 63.3011 70.5162 62.5325 70.5272 61.7421C70.5283 60.9241 70.2549 60.1263 69.7452 59.4605C69.269 58.8413 68.606 58.3682 67.8406 58.1014C67.1923 57.8701 66.4921 57.7943 65.8043 57.881C65.1164 57.9676 64.4629 58.214 63.9038 58.5974C63.1328 59.1172 62.5709 59.8629 62.3078 60.7154C62.1269 61.3205 62.1429 61.6776 62.1109 61.6726C62.0969 61.5888 62.0969 61.5035 62.1109 61.4197C62.1171 61.174 62.151 60.9296 62.212 60.6906C62.4466 59.7909 63.0112 58.9961 63.808 58.4437C64.3489 58.057 64.9792 57.7937 65.6487 57.6749C66.5195 57.5237 67.4189 57.6214 68.229 57.955C69.0392 58.2887 69.7223 58.8429 70.1887 59.5448C70.6552 60.2468 70.8833 61.0638 70.843 61.8887C70.8028 62.7136 70.4961 63.5079 69.9633 64.1675C69.4663 64.7881 68.7902 65.264 68.014 65.5398C67.2378 65.8156 66.3935 65.8798 65.5796 65.7249C64.7622 65.5711 64.0101 65.1997 63.4143 64.6557C62.8185 64.1117 62.4046 63.4184 62.2227 62.6597C62.1613 62.4209 62.1309 62.1761 62.1322 61.9306C62.1185 61.8468 62.1167 61.7618 62.1269 61.6776Z" fill="#263238"/>
<path d="M68.6599 61.7272C68.6333 61.7272 68.2662 61.5536 67.713 61.2907C67.1597 61.0278 66.3883 60.6162 65.4679 60.1251L65.6754 60.016C65.6754 60.5467 65.6754 61.1122 65.6754 61.7074C65.6754 62.3026 65.6754 62.868 65.6754 63.3937L65.4679 63.2846C66.3936 62.7886 67.1916 62.3968 67.7289 62.1537C68.2662 61.9107 68.6599 61.7321 68.6865 61.7272C68.4276 61.9096 68.1557 62.0753 67.8726 62.2232C67.2927 62.5704 66.516 62.992 65.6009 63.488L65.3934 63.6021V63.3739C65.3934 62.8432 65.3934 62.2778 65.3934 61.6826C65.3934 61.0874 65.3934 60.5219 65.3934 59.9961V59.768L65.5956 59.8821C66.5 60.3781 67.2714 60.8294 67.846 61.1816C68.1272 61.3502 68.3989 61.5323 68.6599 61.7272Z" fill="#263238"/>
<path d="M61.4726 50.5275C61.4726 51.4005 60.6639 51.9362 59.4031 51.9262C58.1423 51.9163 57.3709 51.3707 57.3762 50.4978C57.3746 50.2389 57.4629 49.9865 57.6278 49.7782C57.7927 49.5699 58.0254 49.417 58.2912 49.3421C58.0734 49.256 57.8887 49.1104 57.7614 48.9244C57.6342 48.7385 57.5703 48.5209 57.5783 48.3005C57.5783 47.497 58.3338 47.0059 59.4457 47.0109C60.5575 47.0158 61.313 47.5069 61.3077 48.3302C61.3106 48.5517 61.2416 48.7688 61.1096 48.953C60.9776 49.1372 60.7888 49.2797 60.5682 49.3619C60.8338 49.439 61.0654 49.5943 61.2284 49.8044C61.3915 50.0145 61.4771 50.2682 61.4726 50.5275ZM60.7331 50.5027C60.7331 49.972 60.2437 49.6397 59.4244 49.6347C58.6051 49.6298 58.1157 49.9522 58.1157 50.4829C58.1157 51.0136 58.5891 51.3658 59.4084 51.3707C60.2277 51.3757 60.7278 51.0434 60.7331 50.5027ZM58.3072 48.3352C58.3072 48.8312 58.7221 49.1089 59.4297 49.1139C60.1373 49.1189 60.5788 48.8262 60.5841 48.3501C60.5895 47.8739 60.1319 47.5714 59.4403 47.5664C58.7487 47.5614 58.3125 47.8541 58.3072 48.3352Z" fill="#455A64"/>
<path d="M62.1961 51.46C62.1951 51.3962 62.2085 51.3328 62.2354 51.2741C62.2623 51.2154 62.3021 51.1626 62.3522 51.1191C62.4023 51.0757 62.4617 51.0425 62.5264 51.0217C62.5912 51.001 62.6599 50.9932 62.7281 50.9987C62.7957 50.9983 62.8627 51.0113 62.9245 51.0368C62.9864 51.0622 63.0417 51.0996 63.087 51.1465C63.1322 51.1933 63.1663 51.2486 63.187 51.3086C63.2076 51.3686 63.2144 51.4321 63.2069 51.4947C63.2091 51.5556 63.198 51.6164 63.1743 51.6732C63.1506 51.73 63.1148 51.7818 63.069 51.8253C63.0233 51.8689 62.9686 51.9034 62.9082 51.9267C62.8477 51.95 62.7829 51.9617 62.7175 51.961C62.6466 51.9648 62.5756 51.9543 62.5094 51.9303C62.4432 51.9062 62.3834 51.8692 62.3339 51.8217C62.2844 51.7741 62.2465 51.7172 62.2227 51.6548C62.199 51.5924 62.1899 51.526 62.1961 51.46Z" fill="#455A64"/>
<path d="M67.5054 50.4928C67.5054 51.3211 66.8564 51.9808 65.5423 51.9808C64.8572 51.9911 64.1895 51.779 63.6537 51.3806L63.9995 50.84C64.4249 51.1861 64.9725 51.3734 65.537 51.3658C66.3191 51.3658 66.7659 51.0384 66.7659 50.5176C66.7659 49.9968 66.4095 49.6397 65.2178 49.6298H64.0421L64.34 47.12H67.2447V47.7202H64.9571L64.8082 49.0395H65.3827C66.9149 49.0395 67.5107 49.6397 67.5054 50.4928Z" fill="#455A64"/>
<path d="M66.5585 38.936C66.5883 39.1002 66.5883 39.2678 66.5585 39.432C66.4736 39.9042 66.293 40.357 66.0265 40.7662C65.6429 41.3842 65.1067 41.9079 64.4624 42.2939C63.6714 42.7773 62.7482 43.039 61.8024 43.0478C60.8542 43.0298 59.9362 42.733 59.1797 42.1997C58.5607 41.7905 58.0346 41.2714 57.6316 40.672C57.3557 40.2721 57.1509 39.8333 57.0251 39.3725C56.9686 39.2125 56.9416 39.0448 56.9453 38.8765C57.1528 39.4789 57.4425 40.054 57.8071 40.5877C58.2121 41.1539 58.7284 41.6437 59.3286 42.031C60.0434 42.5227 60.9037 42.7964 61.7918 42.8147C62.6038 42.7964 63.3983 42.5912 64.1047 42.2173C64.811 41.8435 65.4073 41.3126 65.8403 40.672C66.18 40.1339 66.4226 39.5474 66.5585 38.936Z" fill="#263238"/>
<path d="M108.156 110.757C105.549 86.9835 102.735 71.2702 111.209 48.1666L128.584 51.7378C136.133 73.8643 135.681 97.5731 135.16 120.786C135.112 122.879 135.032 125.086 133.846 126.867C131.473 130.423 126.095 130.592 121.61 130.339C117.604 130.131 109.698 133.102 106.911 130.408C104.315 127.913 108.528 114.229 108.156 110.757Z" fill="#263238"/>
<path d="M193.393 115.856L178.092 111.337L163.17 110.94L121.222 115.806L95.76 174.875L105.661 215.919L99.1382 237.182H187.264C187.264 237.182 196.351 137.948 196.095 136.99C195.84 136.033 193.382 115.861 193.382 115.861" fill="#455A64"/>
<path d="M121.222 115.806C121.222 115.806 100.718 118.192 92.1051 129.788C85.4711 138.716 69.2983 168.099 69.2983 168.099L58.0359 162.797C58.0359 162.797 50.8485 184.909 50.6517 189.085C50.3485 195.424 51.0188 209.252 56.5037 213.543C62.9622 218.597 74.3895 213.295 77.922 210.706C82.5823 207.283 97.9518 180.782 97.9518 180.782L121.222 115.806Z" fill="#455A64"/>
<path d="M105.671 215.919C105.671 215.919 105.671 215.854 105.613 215.725C105.554 215.596 105.517 215.398 105.453 215.155L104.868 212.958C104.373 211.028 103.66 208.265 102.782 204.858C101.905 201.45 100.867 197.358 99.7181 192.835C99.1435 190.573 98.5423 188.197 97.9146 185.737C97.7656 185.122 97.5847 184.507 97.4624 183.872C97.34 183.237 97.207 182.597 97.0953 181.953C96.8506 180.663 96.6431 179.349 96.4622 178.014C96.0952 175.417 95.9742 172.795 96.1004 170.178C96.2408 167.739 96.6436 165.319 97.3028 162.956C98.4472 158.97 99.9254 155.075 101.724 151.305C103.229 148.076 104.57 145.516 105.496 143.751L106.56 141.722C106.677 141.499 106.772 141.325 106.847 141.196C106.877 141.136 106.912 141.078 106.953 141.023C106.953 141.023 106.953 141.087 106.868 141.211L106.607 141.747C106.363 142.23 106.019 142.912 105.575 143.795C104.682 145.576 103.368 148.145 101.883 151.374C100.121 155.147 98.6658 159.038 97.5315 163.015C96.8873 165.366 96.4935 167.77 96.3558 170.192C96.2344 172.795 96.3572 175.402 96.7229 177.985C96.9038 179.307 97.113 180.615 97.3507 181.908C97.4624 182.553 97.5954 183.188 97.7124 183.818C97.8294 184.448 98.0157 185.068 98.1646 185.683C98.7817 188.163 99.3829 190.524 99.9468 192.785C101.08 197.314 102.075 201.386 102.958 204.818C103.841 208.251 104.485 211.003 104.958 212.933C105.187 213.885 105.368 214.624 105.49 215.145C105.543 215.388 105.591 215.576 105.623 215.72C105.646 215.785 105.663 215.851 105.671 215.919Z" fill="#263238"/>
<path d="M76.3527 158.279C76.3775 158.31 76.3956 158.345 76.4059 158.383L76.5389 158.7C76.6802 159.114 76.7921 159.537 76.874 159.965C77.1326 161.543 77.2288 163.141 77.1613 164.736C77.1613 166.755 76.874 169.151 76.9964 171.8C77.1685 174.679 77.592 177.54 78.2625 180.356C79.6245 186.362 81.3162 191.739 81.6141 195.791C81.7769 197.38 81.7769 198.979 81.6141 200.568C81.5719 201.006 81.4991 201.442 81.396 201.872C81.3535 202.001 81.3215 202.105 81.2949 202.194C81.2854 202.232 81.2711 202.269 81.2524 202.304C81.2453 202.266 81.2453 202.227 81.2524 202.189C81.2524 202.1 81.2949 201.991 81.3269 201.857C81.4119 201.434 81.4723 201.007 81.5077 200.577C81.626 198.994 81.5975 197.404 81.4226 195.826C81.0715 191.808 79.3585 186.446 77.9912 180.45C77.3169 177.621 76.8987 174.744 76.741 171.849C76.6346 169.171 76.9219 166.78 76.9645 164.771C77.0508 163.185 76.9849 161.595 76.7676 160.02C76.7004 159.593 76.6063 159.171 76.4857 158.755C76.4431 158.626 76.4112 158.522 76.3793 158.432C76.3648 158.382 76.3559 158.331 76.3527 158.279Z" fill="#263238"/>
<path d="M87.663 159.365C87.5938 159.395 86.3649 157.192 84.9232 154.44C83.4814 151.687 82.3642 149.435 82.4334 149.405C82.5026 149.375 83.7262 151.578 85.1732 154.325C86.6202 157.073 87.7321 159.335 87.663 159.365Z" fill="white"/>
<path d="M96.4463 153.859C96.5101 153.904 94.0735 157.058 91.0092 160.902C87.9449 164.746 85.4126 167.846 85.3541 167.792C85.2955 167.737 87.7215 164.598 90.7858 160.749C93.8501 156.9 96.3877 153.82 96.4463 153.859Z" fill="white"/>
<path d="M95.6217 165.242C95.0711 164.706 94.589 164.112 94.1853 163.472C93.7057 162.879 93.3022 162.237 92.983 161.557C93.5336 162.094 94.0156 162.688 94.4194 163.328C94.899 163.92 95.3025 164.563 95.6217 165.242Z" fill="white"/>
<path d="M107.464 155.218C107.528 155.248 106.203 157.758 104.501 160.818C102.798 163.878 101.357 166.334 101.309 166.304C101.261 166.274 102.57 163.759 104.272 160.699C105.974 157.639 107.416 155.184 107.464 155.218Z" fill="white"/>
<path d="M113.162 165.228C112.817 165.063 112.502 164.85 112.225 164.598C111.52 164.035 110.87 163.414 110.284 162.743C109.683 162.077 109.149 161.361 108.688 160.605C108.475 160.299 108.313 159.964 108.209 159.613C108.283 159.573 109.103 161.021 110.47 162.564C111.837 164.107 113.215 165.168 113.162 165.228Z" fill="white"/>
<path d="M122.009 153.646C121.632 154.025 121.227 154.378 120.796 154.702C120.03 155.337 118.971 156.22 117.827 157.212C116.684 158.204 115.699 159.127 114.939 159.791C114.563 160.172 114.156 160.523 113.72 160.843C114.037 160.421 114.393 160.026 114.784 159.662C115.481 158.963 116.476 158.021 117.625 157.024C118.774 156.027 119.849 155.164 120.652 154.544C121.071 154.203 121.525 153.902 122.009 153.646Z" fill="white"/>
<path d="M127.68 168.739C127.621 168.784 125.68 166.755 123.339 164.161C120.998 161.567 119.152 159.464 119.211 159.419C119.269 159.375 121.211 161.403 123.552 163.997C125.892 166.592 127.733 168.69 127.68 168.739Z" fill="white"/>
<path d="M133.888 156.647C133.017 157.615 132.075 158.527 131.069 159.375C130.128 160.285 129.122 161.135 128.058 161.919C128.929 160.959 129.869 160.056 130.872 159.216C131.814 158.297 132.822 157.439 133.888 156.647Z" fill="white"/>
<path d="M143.693 167.152C143.199 166.909 142.734 166.618 142.305 166.284C140.162 164.757 138.248 162.971 136.612 160.972C136.254 160.572 135.942 160.138 135.681 159.677C136.061 160.051 136.416 160.445 136.745 160.858C137.4 161.597 138.341 162.589 139.443 163.62C140.544 164.652 141.613 165.525 142.406 166.14C142.858 166.451 143.288 166.789 143.693 167.152Z" fill="white"/>
<path d="M149.71 157.172C149.429 157.469 149.121 157.743 148.79 157.991C148.205 158.487 147.412 159.166 146.571 159.975C145.731 160.783 145.018 161.522 144.502 162.073C144.244 162.388 143.955 162.68 143.64 162.946C143.834 162.59 144.073 162.257 144.353 161.954C144.979 161.194 145.654 160.47 146.375 159.786C147.096 159.104 147.86 158.461 148.662 157.862C148.977 157.59 149.33 157.358 149.71 157.172Z" fill="white"/>
<path d="M157.914 168.64C157.86 168.69 156.131 167.073 154.051 165.034C151.971 162.996 150.327 161.294 150.391 161.245C151.743 162.386 153.033 163.592 154.253 164.856C156.328 166.904 157.967 168.595 157.914 168.64Z" fill="white"/>
<path d="M163.26 154.871C162.913 155.278 162.534 155.661 162.127 156.017C161.419 156.711 160.451 157.678 159.43 158.789C158.408 159.9 157.531 160.942 156.903 161.706C156.581 162.135 156.225 162.541 155.839 162.921C156.089 162.455 156.384 162.012 156.722 161.597C157.312 160.803 158.169 159.737 159.196 158.621C160.222 157.505 161.217 156.552 161.967 155.888C162.361 155.51 162.794 155.169 163.26 154.871Z" fill="white"/>
<path d="M169.288 166.468C168.868 166.238 168.474 165.968 168.112 165.664C167.41 165.128 166.468 164.355 165.452 163.457C164.436 162.559 163.611 161.696 163.015 161.056C162.673 160.729 162.371 160.366 162.116 159.975C162.496 160.268 162.852 160.588 163.18 160.932C163.803 161.542 164.675 162.376 165.665 163.273C166.654 164.171 167.569 164.955 168.234 165.525C168.615 165.81 168.967 166.125 169.288 166.468Z" fill="white"/>
<path d="M179.901 154.752C179.599 155.159 179.253 155.536 178.869 155.878C178.193 156.548 177.225 157.435 176.092 158.358C174.959 159.28 173.884 160.049 173.086 160.58C172.669 160.888 172.22 161.158 171.746 161.384C172.128 161.04 172.537 160.724 172.969 160.436C173.735 159.871 174.789 159.077 175.911 158.164C177.034 157.252 178.039 156.384 178.731 155.754C179.095 155.394 179.486 155.06 179.901 154.752Z" fill="white"/>
<path d="M189.392 155.928C189.445 156.343 189.445 156.762 189.392 157.177C189.355 157.951 189.259 159.018 189.089 160.188C188.918 161.359 188.706 162.405 188.525 163.164C188.455 163.578 188.332 163.983 188.158 164.369C188.177 163.952 188.236 163.537 188.333 163.129C188.466 162.371 188.647 161.319 188.817 160.153C188.988 158.988 189.11 157.931 189.2 157.177C189.217 156.756 189.282 156.337 189.392 155.928Z" fill="white"/>
<g opacity="0.3">
<path d="M134.894 167.688C133.787 166.502 132.622 165.282 131.074 164.657C128.946 163.804 126.515 164.216 124.249 164.657C114.811 166.482 105.412 168.49 96.0526 170.679L97.0155 171.626C100.021 175.281 105.687 175.733 110.619 175.5C115.55 175.267 120.934 174.776 125.02 177.365C128.651 179.775 131.797 182.764 134.314 186.193C141.411 196.054 146.497 201.153 154.408 207.606C162.67 214.351 169.836 221.99 180.667 220.229C166.062 202.231 150.804 184.717 134.894 167.688Z" fill="black"/>
</g>
<path d="M57.8231 164.221L59.0679 159.831C59.0679 159.831 47.0713 150.531 49.0929 146.528C49.2707 145.898 49.6639 145.339 50.2129 144.935C50.7619 144.531 51.437 144.305 52.136 144.291C52.136 144.291 50.7475 141.583 52.668 139.584C54.5885 137.585 56.7112 138.409 56.7112 138.409C56.7112 138.409 55.7004 135.582 56.3335 134.287C56.438 134.072 56.5608 133.864 56.7005 133.667C57.105 133.092 57.658 132.621 58.3086 132.296C58.9593 131.972 59.6869 131.806 60.4245 131.812H61.4034L59.4084 125.066C59.1433 124.169 59.1544 123.22 59.4403 122.328L59.8127 121.158C60.1376 120.188 60.8442 119.368 61.7907 118.864C62.7371 118.36 63.8532 118.208 64.9146 118.44C66.4308 118.787 67.5746 119.402 67.5746 120.513V121.103L65.0317 122.398C65.0317 122.398 68.9153 131.44 69.293 131.936C69.6707 132.432 73.4639 136.648 73.4639 136.648C73.4639 136.648 73.8416 131.351 76.3633 130.994C78.8849 130.636 79.7734 132.055 79.3957 133.116C79.018 134.178 79.0605 135.532 79.4808 137.149C79.4808 137.149 78.1348 148.656 78.2572 151.716C78.3796 154.777 76.8687 154.777 76.8687 154.777C76.8687 154.777 76.6186 159.132 75.7355 161.488C74.8524 163.844 66.7713 172.548 63.1058 171.616C59.4403 170.684 57.8231 164.221 57.8231 164.221Z" fill="#8E5F59"/>
<path d="M52.0296 144.098C52.136 144.121 52.2394 144.154 52.3382 144.197L53.2 144.524L56.3601 145.769L61.0257 147.644L63.7815 148.76C64.278 148.946 64.7629 149.158 65.2338 149.395C65.7527 149.642 66.1656 150.046 66.4042 150.541C66.5212 150.847 66.5059 151.183 66.3617 151.478C66.2157 151.757 65.9818 151.987 65.6914 152.138C65.1534 152.42 64.5562 152.589 63.9411 152.634C61.0212 152.981 58.0597 152.432 55.5036 151.072H55.61C54.7613 151.834 53.6478 152.288 52.4712 152.351C52.3885 152.365 52.3038 152.365 52.2211 152.351C52.2211 152.351 52.5669 152.351 53.1734 152.188C54.0438 151.975 54.8396 151.555 55.4823 150.968L55.5302 150.923L55.5887 150.953C57.1493 151.747 58.8601 152.252 60.6267 152.441C61.7179 152.556 62.8201 152.548 63.9092 152.416C64.483 152.376 65.0413 152.224 65.5477 151.969C65.7891 151.841 65.985 151.65 66.1116 151.419C66.2255 151.184 66.2369 150.917 66.1436 150.675C65.9167 150.243 65.5424 149.894 65.0796 149.683C64.6208 149.447 64.1463 149.238 63.6591 149.058L60.914 147.927L56.2696 145.998L53.1468 144.678L52.3062 144.306C52.2034 144.25 52.1101 144.18 52.0296 144.098Z" fill="#794742"/>
<path d="M55.9504 138.275C56.0441 138.283 56.1368 138.3 56.2271 138.324C56.4872 138.378 56.7431 138.447 56.9932 138.533C57.9177 138.848 58.7954 139.271 59.6053 139.793C61.7067 141.033 64.1007 143.433 67.6651 144.673C68.5292 145.007 69.3317 145.466 70.0431 146.032C70.6967 146.598 71.1401 147.344 71.3093 148.16C71.3965 148.532 71.3874 148.917 71.2829 149.284C71.1783 149.652 70.9813 149.991 70.7081 150.273C70.1978 150.734 69.5193 150.998 68.8089 151.012C68.238 151.028 67.6696 150.935 67.1384 150.739C66.7435 150.597 66.3626 150.422 65.9999 150.219C65.6967 150.055 65.4679 149.921 65.3243 149.822C65.2431 149.78 65.168 149.728 65.1008 149.668C65.4247 149.809 65.7407 149.964 66.0478 150.134C66.4163 150.317 66.7986 150.474 67.1916 150.605C67.7025 150.778 68.245 150.854 68.7876 150.829C69.4418 150.806 70.0628 150.554 70.5272 150.124C70.7737 149.867 70.9505 149.559 71.0431 149.225C71.1356 148.891 71.1412 148.541 71.0592 148.205C70.8983 147.442 70.4809 146.747 69.8676 146.221C69.173 145.677 68.3946 145.234 67.5587 144.906C66.7057 144.577 65.8743 144.201 65.0689 143.78C64.3297 143.37 63.619 142.916 62.9409 142.421C61.6428 141.489 60.5256 140.591 59.5042 139.941C58.716 139.411 57.8644 138.969 56.9666 138.622C56.3175 138.384 55.9451 138.305 55.9504 138.275Z" fill="#794742"/>
<path d="M60.4032 131.936C60.512 131.966 60.6158 132.009 60.7118 132.065L61.5577 132.487L64.6486 134.074L69.2132 136.455C70.1474 136.888 71.0137 137.439 71.788 138.091C72.2145 138.454 72.5419 138.907 72.7427 139.412C72.9435 139.916 73.012 140.459 72.9425 140.993C72.8326 141.544 72.5088 142.039 72.0328 142.382C71.5634 142.699 71.0131 142.895 70.4368 142.952C69.3756 143.031 68.3147 142.797 67.4044 142.283C66.5266 141.836 65.7658 141.32 65.021 140.899C64.2762 140.477 63.574 140.095 62.893 139.783C61.85 139.283 60.751 138.892 59.6159 138.617C58.8126 138.434 58.355 138.384 58.355 138.359C58.4682 138.348 58.5823 138.348 58.6955 138.359C59.014 138.389 59.3302 138.437 59.6425 138.503C60.7977 138.742 61.9177 139.11 62.9781 139.599C63.6538 139.902 64.372 140.269 65.1061 140.695C65.8403 141.122 66.6276 141.623 67.4842 142.054C68.3504 142.541 69.3598 142.76 70.3676 142.679C70.8876 142.625 71.3829 142.443 71.804 142.154C72.2264 141.853 72.513 141.416 72.6073 140.928C72.6711 140.435 72.6078 139.935 72.4228 139.469C72.2377 139.004 71.9362 138.586 71.5433 138.25C70.7872 137.614 69.9447 137.074 69.0376 136.643L64.4996 134.213L61.4513 132.551L60.632 132.09C60.5533 132.042 60.477 131.99 60.4032 131.936Z" fill="#794742"/>
<path d="M67.5268 120.528C67.5268 120.528 67.5693 120.617 67.5959 120.796C67.587 120.907 67.5656 121.016 67.5321 121.123C67.47 121.257 67.3914 121.383 67.298 121.5C66.7051 122.113 65.9346 122.552 65.0796 122.765C64.2486 123.014 63.3764 123.121 62.5047 123.082C62.1366 123.083 61.773 123.007 61.4407 122.859C61.4407 122.815 61.8503 122.899 62.5047 122.899C63.3468 122.887 64.1822 122.758 64.9838 122.517C65.7827 122.31 66.514 121.922 67.1118 121.386C67.2052 121.289 67.2872 121.182 67.3565 121.069C67.3991 120.96 67.431 120.865 67.4576 120.791C67.4598 120.7 67.4834 120.61 67.5268 120.528Z" fill="#794742"/>
<path d="M70.4634 159.216C70.041 157.949 69.4092 156.75 68.5908 155.665C67.6983 154.631 66.6374 153.733 65.4467 153.006C65.854 153.124 66.2371 153.305 66.5798 153.542C67.44 154.08 68.1956 154.751 68.8142 155.526C69.4333 156.295 69.9098 157.155 70.224 158.07C70.3726 158.437 70.4535 158.824 70.4634 159.216Z" fill="#794742"/>
<path d="M66.915 162.098C66.915 162.098 66.8139 162.192 66.5958 162.311C66.2878 162.48 65.9591 162.613 65.6169 162.708C64.477 163.04 63.2537 163.028 62.1217 162.673C60.9909 162.301 60.014 161.607 59.3287 160.689C59.1164 160.418 58.9379 160.125 58.7967 159.816C58.7336 159.707 58.6956 159.587 58.6849 159.464C58.7328 159.464 58.9297 159.93 59.467 160.58C60.1595 161.428 61.1071 162.065 62.1889 162.409C63.2708 162.754 64.4382 162.79 65.5424 162.514C66.4149 162.331 66.8937 162.058 66.915 162.098Z" fill="#794742"/>
<path d="M74.3257 156.205C74.0155 156.3 73.686 156.327 73.3628 156.285C72.5758 156.233 71.8134 156.007 71.139 155.625C70.4647 155.244 69.8961 154.721 69.4792 154.097C69.2899 153.849 69.1643 153.564 69.1121 153.264C69.1547 153.264 69.3036 153.562 69.6441 153.998C70.085 154.563 70.642 155.04 71.2827 155.402C71.9274 155.762 72.6412 156.001 73.3841 156.106C73.6999 156.121 74.0144 156.154 74.3257 156.205Z" fill="#794742"/>
<path d="M76.608 147.421C76.2097 147.494 75.7991 147.484 75.4056 147.391C74.4377 147.223 73.5393 146.806 72.8118 146.187C72.0843 145.569 71.5566 144.773 71.288 143.89C71.1519 143.534 71.1028 143.154 71.1443 142.779C71.1922 142.779 71.2348 143.2 71.4742 143.835C71.7858 144.66 72.308 145.402 72.9957 145.998C73.6923 146.584 74.5327 147.001 75.4429 147.213C76.1345 147.376 76.608 147.376 76.608 147.421Z" fill="#794742"/>
<path d="M64.1326 123.182L74.5651 142.848C74.5651 142.848 77.7571 146.047 78.1082 148.428L82.6568 154.018L85.8488 152.138L83.6623 145.581C83.6623 145.581 80.4118 142.426 80.4118 139.837L68.5269 121.108L64.1326 123.182Z" fill="#90CAF9"/>
<path d="M80.4384 139.842C79.6232 140.562 78.709 141.177 77.7199 141.672C76.7754 142.242 75.7441 142.675 74.6609 142.957C74.629 142.883 75.9962 142.322 77.5816 141.469C79.1669 140.616 80.3905 139.783 80.4384 139.842Z" fill="#263238"/>
<path d="M83.6038 145.586C82.7563 146.161 81.8574 146.667 80.9172 147.099C80.0213 147.608 79.0775 148.039 78.0976 148.388C78.9362 147.814 79.8261 147.308 80.7576 146.876C81.6628 146.367 82.6154 145.935 83.6038 145.586Z" fill="#263238"/>
<path d="M71.7349 126.133C71.0179 126.65 70.2481 127.1 69.4366 127.477C68.6679 127.926 67.8514 128.3 67.0001 128.593C67.7164 128.072 68.4884 127.622 69.3036 127.249C70.0702 126.799 70.885 126.425 71.7349 126.133Z" fill="#263238"/>
<path d="M76.0441 136.355L76.1399 136.316C76.3926 136.203 76.6831 136.187 76.9481 136.272C77.2131 136.358 77.4312 136.537 77.555 136.772L79.8958 141.057C79.9621 141.175 80.0023 141.304 80.0141 141.437C80.0258 141.569 80.0089 141.703 79.9642 141.829C79.9195 141.955 79.8481 142.072 79.754 142.172C79.66 142.272 79.5454 142.354 79.417 142.412C79.293 142.472 79.1575 142.509 79.0181 142.52C78.8788 142.532 78.7384 142.518 78.605 142.478C78.4716 142.439 78.3478 142.376 78.2406 142.292C78.1335 142.208 78.0451 142.106 77.9806 141.99L75.544 137.744C75.4723 137.624 75.4282 137.491 75.4147 137.353C75.4012 137.216 75.4185 137.078 75.4656 136.947C75.5126 136.816 75.5884 136.696 75.688 136.594C75.7876 136.492 75.9089 136.411 76.0441 136.355Z" fill="#455A64"/>
<path d="M160.898 208.146L140.15 182.399L155.578 167.598L174.836 183.887L179.896 155.928L189.036 116.744C189.036 116.744 207.48 122.452 207.48 137.888C207.48 153.324 201.256 201.297 197.101 208.816C195.574 211.579 194.233 214.575 192.206 216.633C188.716 220.174 184.131 221.846 179.816 221.057C167.649 218.815 160.898 208.146 160.898 208.146Z" fill="#455A64"/>
<path d="M80.864 160.838C80.864 160.838 80.8001 157.976 84.6199 158.04C84.6199 158.04 87.0777 158.1 90.1474 161.731L92.8074 162.619L82.726 154.028C82.726 154.028 84.6571 151.617 86.7745 152.188C88.8918 152.758 90.0782 155.496 92.3977 156.319C94.7172 157.143 97.7922 159.439 97.7922 159.439L104.612 160.52L105.23 159.821L91.339 146.871C91.339 146.871 93.6692 143.83 96.4675 145.879C99.2658 147.927 103.522 151.94 104.341 152.515C105.16 153.09 108.23 155.06 108.23 155.06L113.55 155.947L117.508 154.613C117.508 154.613 116.487 151.751 119.28 151.111C122.073 150.472 128.425 153.15 128.425 153.15C130.033 152.1 131.957 151.551 133.92 151.583C137.336 151.583 139.964 154.385 140.166 156.543C140.368 158.7 133.25 167.142 133.25 167.142L130.34 168.794L112.39 171.398L109.044 171.08L101.027 172.544L84.9391 167.648C84.9391 167.648 83.508 165.168 86.0988 164.722L80.864 160.838Z" fill="#8E5F59"/>
<path d="M109.773 164.96C109.773 164.984 109.443 164.88 108.842 164.831C107.991 164.796 107.14 164.897 106.325 165.128C105.261 165.381 104.08 165.843 102.66 166.12C101.108 166.397 99.5115 166.366 97.9731 166.031C96.3345 165.728 94.829 165.267 93.4404 164.94C92.2235 164.627 90.9758 164.43 89.7164 164.35C88.8651 164.309 88.0118 164.374 87.1788 164.543C86.5936 164.672 86.2797 164.791 86.2691 164.766C86.2584 164.741 86.3436 164.722 86.4872 164.667C86.703 164.58 86.9253 164.507 87.1522 164.449C87.9889 164.237 88.8551 164.143 89.7218 164.171C91.0017 164.219 92.272 164.399 93.5096 164.707C94.9088 165.029 96.4143 165.48 98.0316 165.778C99.5364 166.104 101.097 166.141 102.617 165.887C104.006 165.614 105.219 165.168 106.283 164.935C107.12 164.719 107.992 164.645 108.858 164.717C109.091 164.746 109.32 164.794 109.544 164.86C109.626 164.882 109.703 164.915 109.773 164.96Z" fill="#794742"/>
<path d="M105.591 164.389C104.826 164.221 104.049 164.105 103.266 164.042C102.417 163.996 101.565 164.046 100.729 164.191C100.233 164.277 99.7432 164.388 99.2605 164.523C98.7257 164.693 98.157 164.751 97.5954 164.692C96.5553 164.468 95.5529 164.113 94.6162 163.635L92.3126 162.559C91.7949 162.316 91.262 162.102 90.7166 161.919C90.3336 161.785 90.1101 161.756 90.1154 161.731C90.1208 161.706 90.174 161.731 90.2804 161.731C90.4386 161.747 90.5952 161.775 90.7485 161.815C91.3098 161.967 91.8576 162.16 92.3871 162.39C93.0574 162.668 93.8394 163.03 94.7172 163.417C95.6369 163.86 96.6128 164.194 97.622 164.409C98.1478 164.461 98.6793 164.407 99.1807 164.25C99.6697 164.115 100.167 164.007 100.67 163.928C101.528 163.793 102.4 163.759 103.266 163.829C103.849 163.876 104.425 163.979 104.985 164.136C105.199 164.192 105.404 164.277 105.591 164.389Z" fill="#794742"/>
<path d="M108.219 156.121C108.273 156.18 107.586 156.731 107.017 157.609C106.448 158.487 106.219 159.3 106.139 159.285C106.154 158.636 106.377 158.006 106.778 157.475C107.099 156.897 107.602 156.425 108.219 156.121Z" fill="#794742"/>
<path d="M114.47 160.208C114.385 160.208 114.47 159.365 114.321 158.363C114.172 157.361 113.789 156.592 113.875 156.557C114.286 157.072 114.535 157.684 114.593 158.323C114.74 158.95 114.697 159.602 114.47 160.208Z" fill="#794742"/>
<path d="M123.169 159.216C122.639 159.463 122.089 159.67 121.525 159.836C120.503 160.188 119.072 160.649 117.503 161.165C117.114 161.294 116.726 161.408 116.359 161.542L115.295 161.929L113.513 162.579C112.971 162.8 112.41 162.979 111.837 163.115C112.348 162.84 112.882 162.605 113.433 162.41L115.205 161.711L116.269 161.304C116.636 161.17 117.024 161.051 117.418 160.922C119.014 160.426 120.429 159.97 121.466 159.662C122.02 159.471 122.589 159.322 123.169 159.216Z" fill="#794742"/>
<path d="M131.537 161.994C131.326 161.954 131.119 161.895 130.92 161.82L129.271 161.264C127.877 160.798 125.951 160.158 123.802 159.504C122.738 159.166 121.674 158.894 120.775 158.551C119.944 158.265 119.185 157.823 118.546 157.252C118.117 156.863 117.793 156.385 117.599 155.858C117.515 155.668 117.478 155.463 117.492 155.258C117.492 155.258 117.545 155.466 117.7 155.823C117.926 156.316 118.262 156.759 118.684 157.123C119.321 157.655 120.064 158.064 120.87 158.328C121.775 158.651 122.817 158.918 123.892 159.256C126.02 159.915 127.962 160.585 129.34 161.096C130.026 161.349 130.579 161.567 130.936 161.726C131.149 161.788 131.351 161.878 131.537 161.994Z" fill="#794742"/>
<path d="M133.904 154.345C133.469 154.381 133.03 154.347 132.606 154.246C131.579 154.056 130.563 153.815 129.563 153.522C128.393 153.185 127.345 152.837 126.6 152.56C126.186 152.441 125.789 152.274 125.419 152.064C125.846 152.14 126.265 152.253 126.669 152.401L129.643 153.289C130.808 153.621 131.872 153.904 132.649 154.082C133.426 154.261 133.91 154.311 133.904 154.345Z" fill="#794742"/>
<path d="M130.005 168.838L141.113 181.63L153.652 169.448L139.432 154.965L130.005 168.838Z" fill="#8E5F59"/>
<path d="M201.974 188.678C201.974 188.678 201.974 188.812 201.915 189.075C201.857 189.338 201.804 189.73 201.718 190.236C201.543 191.228 201.277 192.756 200.899 194.7C200.521 196.644 200.027 198.985 199.335 201.693C198.585 204.771 197.587 207.792 196.351 210.731C195.623 212.447 194.642 214.059 193.435 215.522C192.089 217.087 190.444 218.407 188.583 219.416C186.583 220.488 184.339 221.105 182.034 221.216C179.588 221.29 177.154 220.862 174.906 219.961C172.548 219.026 170.367 217.744 168.447 216.162C166.455 214.514 164.62 212.708 162.962 210.765C161.256 208.804 159.57 206.779 157.903 204.689C156.236 202.599 154.539 200.488 152.812 198.355L140.044 182.483L139.974 182.399L140.054 182.32L155.482 167.529L155.557 167.46L155.631 167.514C156.695 168.293 157.61 169.096 158.557 169.88L161.297 172.191L166.378 176.526L174.89 183.842C177.64 185.692 179.72 188.278 180.853 191.258C181.018 191.713 181.146 192.179 181.236 192.651C181.321 192.991 181.376 193.336 181.401 193.683C181.401 193.956 181.439 194.179 181.449 194.318C181.46 194.457 181.449 194.531 181.449 194.531C181.449 194.531 181.449 194.462 181.417 194.318C181.385 194.174 181.38 193.961 181.348 193.688C181.317 193.342 181.256 192.999 181.167 192.661C181.068 192.194 180.934 191.733 180.768 191.282C180.3 190.029 179.64 188.844 178.81 187.766C178.294 187.078 177.717 186.431 177.087 185.831C176.385 185.145 175.617 184.519 174.794 183.961L166.282 176.68L161.196 172.335L158.446 170.029C157.509 169.255 156.552 168.432 155.546 167.688H155.695L140.267 182.498V182.34L153.035 198.212C154.759 200.351 156.456 202.462 158.126 204.545C159.797 206.629 161.48 208.652 163.175 210.616C164.831 212.544 166.66 214.337 168.644 215.973C170.542 217.536 172.697 218.804 175.028 219.728C177.24 220.62 179.636 221.047 182.045 220.978C184.305 220.876 186.507 220.278 188.472 219.232C190.309 218.244 191.933 216.945 193.26 215.403C194.46 213.958 195.438 212.364 196.164 210.666C197.408 207.74 198.415 204.73 199.175 201.664C199.883 198.96 200.388 196.609 200.771 194.69C201.155 192.77 201.452 191.268 201.644 190.226C201.74 189.73 201.814 189.338 201.867 189.07C201.921 188.802 201.974 188.678 201.974 188.678Z" fill="#263238"/>
<path d="M181.242 138.067C181.248 138.106 181.248 138.146 181.242 138.186C181.242 138.28 181.199 138.389 181.173 138.528C181.103 138.85 181.002 139.287 180.88 139.837C180.619 140.968 180.252 142.61 179.816 144.644C178.938 148.706 177.832 154.335 176.858 160.59C175.885 166.844 175.235 172.544 174.842 176.67C174.64 178.734 174.491 180.405 174.395 181.561C174.347 182.121 174.304 182.553 174.278 182.89C174.278 183.029 174.251 183.143 174.241 183.237C174.243 183.277 174.243 183.317 174.241 183.356C174.232 183.317 174.232 183.277 174.241 183.237C174.241 183.143 174.241 183.029 174.241 182.89C174.241 182.563 174.278 182.116 174.304 181.556C174.368 180.395 174.485 178.724 174.661 176.655C175.007 172.524 175.629 166.82 176.597 160.555C177.566 154.291 178.725 148.651 179.64 144.604C180.103 142.575 180.497 140.938 180.795 139.812C180.939 139.267 181.05 138.82 181.135 138.518L181.231 138.181C181.226 138.106 181.242 138.067 181.242 138.067Z" fill="#263238"/>
<path d="M188.775 167.886C188.775 167.886 188.626 167.807 188.387 167.623C188.147 167.44 187.812 167.162 187.408 166.815C186.356 165.899 185.354 164.934 184.407 163.923C183.464 162.916 182.576 161.865 181.747 160.773C181.428 160.357 181.178 160.01 181.013 159.781C180.916 159.661 180.838 159.527 180.784 159.385C181.187 159.794 181.562 160.227 181.907 160.679C182.582 161.488 183.529 162.594 184.636 163.769C185.742 164.945 186.796 165.967 187.567 166.696C187.994 167.071 188.397 167.468 188.775 167.886Z" fill="white"/>
<path d="M194.951 153.849C194.23 155.284 193.429 156.683 192.552 158.04C191.749 159.442 190.861 160.8 189.892 162.108C190.611 160.672 191.412 159.272 192.291 157.916C193.096 156.516 193.984 155.158 194.951 153.849Z" fill="white"/>
<path d="M203.756 168.481C203.687 168.506 202.602 166.259 201.341 163.462C200.08 160.664 199.106 158.368 199.175 158.343C199.245 158.318 200.33 160.56 201.591 163.363C202.852 166.165 203.846 168.452 203.756 168.481Z" fill="white"/>
<path d="M142.001 28.1579C145.108 27.8951 148.236 28.6539 151.072 29.8542C158.1 32.8302 163.5 38.5343 167.075 44.9128C170.65 51.2914 172.554 58.3594 174.054 65.4174C175.98 74.4433 177.299 83.5727 178.002 92.752C178.215 95.5197 179.784 115.632 180.13 119.724L134.032 32.1854C135.814 29.7997 138.895 28.4208 142.001 28.1579Z" fill="#263238"/>
<path d="M158.078 44.769L137.522 37.0463L132.138 37.6067C120.035 37.6067 111.619 50.0067 111.497 59.1431C111.353 69.2962 111.614 81.7011 113.305 89.1957C116.71 104.259 129.297 105.608 129.297 105.608C129.297 105.608 129.154 109.725 129.021 114.779C128.966 116.933 129.38 119.074 130.237 121.074C131.095 123.074 132.378 124.892 134.009 126.417C135.64 127.942 137.585 129.144 139.728 129.949C141.87 130.754 144.166 131.147 146.476 131.103C150.938 131.02 155.189 129.313 158.32 126.348C161.452 123.382 163.215 119.392 163.234 115.231L163.494 49.9621C163.454 48.6212 162.875 47.3433 161.872 46.3816C160.869 45.4198 159.515 44.8443 158.078 44.769Z" fill="#8E5F59"/>
<path d="M116.742 70.2386C116.763 70.7482 116.998 71.2297 117.396 71.5795C117.794 71.9293 118.323 72.1193 118.87 72.1085C119.137 72.1165 119.403 72.0744 119.652 71.9848C119.901 71.8952 120.128 71.7599 120.32 71.5869C120.512 71.4139 120.665 71.2068 120.77 70.9777C120.874 70.7487 120.928 70.5024 120.929 70.2534C120.908 69.7438 120.673 69.2623 120.275 68.9125C119.877 68.5627 119.348 68.3727 118.801 68.3835C118.534 68.3756 118.268 68.4176 118.019 68.5072C117.77 68.5968 117.543 68.7321 117.351 68.9051C117.159 69.0781 117.006 69.2852 116.901 69.5143C116.797 69.7433 116.743 69.9896 116.742 70.2386Z" fill="#263238"/>
<path d="M114.72 64.3262C114.997 64.5693 116.519 63.4037 118.769 63.3045C121.019 63.2053 122.722 64.1774 122.951 63.9096C123.062 63.7906 122.775 63.3442 122.03 62.8878C121.024 62.3056 119.85 62.0267 118.668 62.0893C117.501 62.1417 116.383 62.5396 115.476 63.2251C114.8 63.7509 114.587 64.2221 114.72 64.3262Z" fill="#263238"/>
<path d="M129.521 80.7339C129.521 80.6149 128.116 80.4562 125.834 80.2925C125.259 80.2627 124.706 80.1834 124.594 79.8213C124.483 79.4592 124.648 78.8293 124.892 78.2142C125.36 76.8949 125.85 75.511 126.371 74.0627C128.414 68.1504 129.867 63.2995 129.606 63.2251C129.345 63.1507 127.478 67.8826 125.44 73.7949L124.036 77.9662C123.85 78.5862 123.504 79.2955 123.85 80.0842C123.943 80.2689 124.08 80.4315 124.25 80.5596C124.421 80.6876 124.62 80.7778 124.834 80.8232C125.157 80.8855 125.488 80.9122 125.818 80.9026C128.1 80.9125 129.515 80.848 129.521 80.7339Z" fill="#263238"/>
<path d="M129.303 105.608C136.979 105.358 144.431 103.126 150.827 99.1603C150.827 99.1603 145.582 109.958 129.196 109.299L129.303 105.608Z" fill="#794742"/>
<path d="M130.739 85.7435C131.139 85.2203 131.676 84.8012 132.299 84.526C132.922 84.2508 133.61 84.1287 134.298 84.1712C134.796 84.1885 135.286 84.2998 135.737 84.4984C136.187 84.6971 136.59 84.9789 136.921 85.3269C137.238 85.661 137.439 86.0777 137.495 86.521C137.551 86.9643 137.46 87.413 137.235 87.8069C136.671 88.6302 135.41 88.8733 134.325 88.6402C133.243 88.3404 132.235 87.8431 131.361 87.177C131.101 87.0186 130.872 86.8188 130.686 86.5867C130.598 86.474 130.547 86.3395 130.54 86.2001C130.534 86.0607 130.571 85.9226 130.649 85.8031" fill="#794742"/>
<path d="M136.192 81.8747C135.825 81.8747 135.942 84.1464 133.942 85.8427C131.941 87.539 129.329 87.4299 129.324 87.7474C129.324 87.8912 129.93 88.164 131.026 88.1392C132.458 88.092 133.825 87.5756 134.889 86.681C135.905 85.8196 136.524 84.6253 136.618 83.3478C136.681 82.4054 136.378 81.84 136.192 81.8747Z" fill="#263238"/>
<path d="M116.114 58.4685C116.535 58.9248 118.056 58.3594 119.918 58.2503C121.78 58.1411 123.376 58.409 123.711 57.8931C123.855 57.6451 123.584 57.1789 122.871 56.7623C121.916 56.2658 120.824 56.0446 119.734 56.1267C118.644 56.2089 117.605 56.5905 116.747 57.2235C116.114 57.7443 115.928 58.2453 116.114 58.4685Z" fill="#263238"/>
<path d="M141.932 70.1146C141.943 70.6216 141.741 71.1124 141.369 71.4828C140.998 71.8533 140.486 72.0741 139.943 72.0986C139.677 72.1209 139.409 72.0937 139.155 72.0184C138.901 71.9431 138.665 71.8213 138.462 71.6601C138.259 71.4989 138.092 71.3016 137.972 71.0796C137.852 70.8577 137.78 70.6156 137.761 70.3675C137.751 69.8605 137.953 69.3697 138.325 68.9992C138.696 68.6288 139.208 68.4079 139.751 68.3835C140.017 68.3611 140.285 68.3884 140.539 68.4637C140.793 68.5389 141.029 68.6608 141.232 68.8219C141.435 68.9831 141.601 69.1805 141.722 69.4024C141.842 69.6244 141.914 69.8665 141.932 70.1146Z" fill="#263238"/>
<path d="M145.768 64.0832C145.513 64.3411 143.911 63.2648 141.661 63.2995C139.411 63.3343 137.777 64.4007 137.527 64.1427C137.405 64.0336 137.666 63.5674 138.379 63.0714C139.344 62.4323 140.498 62.0859 141.682 62.0794C142.852 62.062 143.998 62.392 144.954 63.0218C145.678 63.488 145.917 63.984 145.768 64.0832Z" fill="#263238"/>
<path d="M144.81 57.4269C144.422 57.9229 142.863 57.4269 140.996 57.4269C139.129 57.4269 137.559 57.789 137.187 57.293C137.027 57.0549 137.267 56.5738 137.953 56.1125C138.873 55.5628 139.948 55.2797 141.04 55.2991C142.133 55.3186 143.195 55.6396 144.092 56.2216C144.757 56.7077 144.981 57.1938 144.81 57.4269Z" fill="#263238"/>
<path d="M139.916 35.4293C145.119 33.4453 153.083 34.1347 157.552 37.2992C162.021 40.4637 164.808 45.4138 165.83 50.5573C166.851 55.7008 165.484 63.3243 164.026 68.3786C155.599 58.2602 146.928 46.5893 138.799 36.2626L139.916 35.4293Z" fill="#263238"/>
<path d="M135.91 30.8314C107.358 27.0816 110.06 61.1171 110.06 61.1171C122.509 52.829 134.995 36.9867 134.995 36.9867L139.496 36.2774L135.91 30.8314Z" fill="#263238"/>
<path d="M160.249 75.6103C160.191 74.4794 161.446 71.7464 162.638 71.5183C165.83 70.9032 171.591 70.8735 172.054 78.4623C172.682 88.8187 161.414 87.2712 161.366 86.9736C161.318 86.676 160.446 79.5138 160.249 75.6103Z" fill="#8E5F59"/>
<path d="M164.521 82.832C164.569 82.7973 164.723 82.951 165.053 83.0701C165.523 83.2307 166.042 83.2147 166.5 83.0255C167.649 82.5592 168.527 80.7736 168.468 78.9037C168.444 78.0144 168.206 77.1415 167.772 76.3493C167.383 75.6102 166.83 75.1093 166.234 75.0448C166.009 75 165.774 75.0306 165.571 75.1313C165.367 75.232 165.208 75.3963 165.122 75.5954C164.989 75.893 165.074 76.0914 165.016 76.1162C164.957 76.141 164.766 75.9575 164.83 75.5259C164.876 75.265 165.016 75.0268 165.229 74.8514C165.524 74.6185 165.907 74.5044 166.293 74.5339C167.149 74.5339 167.963 75.2383 168.421 76.0219C168.947 76.8924 169.238 77.8698 169.266 78.869C169.32 80.9621 168.293 82.9759 166.718 83.4917C166.425 83.5922 166.11 83.6297 165.799 83.6014C165.488 83.573 165.187 83.4796 164.92 83.328C164.553 83.1048 164.484 82.8767 164.521 82.832Z" fill="#794742"/>
<path d="M133.436 36.2774C134.811 36.0711 136.219 36.2098 137.517 36.6792C138.406 36.9632 139.273 37.3029 140.113 37.696L140.794 38.0134C141.001 38.1126 141.326 38.3011 141.592 38.4549C142.126 38.7967 142.633 39.1746 143.108 39.5858C144.059 40.4127 144.947 41.2993 145.768 42.2394L147.008 43.6133C147.21 43.8365 147.417 44.0547 147.619 44.2581L148.306 44.9475C150.178 46.8422 152.301 48.8907 154.551 51.2566C157.061 53.8227 159.287 56.6177 161.196 59.5994C162.253 61.2895 163.159 63.0579 163.904 64.8867C164.629 66.7664 165.235 68.6843 165.718 70.6304C166.699 74.6481 167.244 78.7474 167.346 82.8667C167.413 85.3208 167.335 87.7764 167.112 90.2224C171.11 93.4495 174.365 97.3989 176.681 101.832C178.996 106.265 180.323 111.09 180.582 116.014C181.013 118.658 179.401 121.862 177.108 123.831C176.698 124.348 176.244 124.834 175.752 125.285C174.584 126.395 173.203 127.291 171.682 127.928C170.607 128.368 169.459 128.631 168.288 128.707C166.812 128.81 165.334 128.55 164 127.953C162.559 127.268 161.319 126.265 160.387 125.032C159.485 123.846 158.768 122.547 158.259 121.173C157.15 118.31 156.59 115.288 156.605 112.245C156.635 109.036 156.944 105.834 157.531 102.672C158.063 99.4579 158.712 96.2835 159.079 93.0595C159.48 89.7387 159.636 86.396 159.547 83.0552C159.458 79.3895 159.023 75.7381 158.249 72.1432C157.885 70.4691 157.428 68.8135 156.881 67.1832C156.341 65.6751 155.677 64.2077 154.897 62.7936C153.33 60.0785 151.522 57.4903 149.492 55.056C147.566 52.6454 145.651 50.3638 143.986 48.1914L143.363 47.373C143.14 47.0754 142.938 46.7877 142.746 46.5099C142.358 45.9494 142.023 45.4286 141.682 44.9326C141.039 43.9406 140.459 43.0776 139.884 42.3634C139.625 42.0379 139.346 41.7265 139.049 41.4309C138.895 41.297 138.815 41.2027 138.607 41.044L138.075 40.6224C137.362 40.0718 136.729 39.6304 136.144 39.2138C135.274 38.6139 134.329 38.1142 133.33 37.7258C132.633 37.4629 132.165 37.324 132.112 37.0661C132.058 36.8082 132.468 36.4808 133.436 36.2774Z" fill="#263238"/>
<path d="M205.075 129.57C202.947 126.718 200.234 123.881 196.68 122.562C192.696 121.074 186.163 123.058 182.316 124.858C178.47 126.659 174.608 128.826 170.314 128.866C168.437 128.942 166.593 128.387 165.117 127.303C163.707 126.172 162.936 124.273 163.521 122.631C164.335 120.414 167.085 119.506 169.07 118.068C172.134 115.861 173.517 112.185 174.23 108.644C174.943 105.102 175.15 101.417 176.565 98.0542C180.625 100.435 177.874 107.26 181.508 110.186C183.444 111.749 186.296 111.456 188.86 111.754C192.818 112.215 198.904 114.69 201.037 117.83C203.171 120.969 206.655 125.488 205.049 129.58" fill="#263238"/>
<path d="M160.244 80.9026C160.244 94.24 156.222 108.793 157.078 117.076C157.935 125.359 157.999 129.917 158.18 138.235C158.343 146.16 156.512 154.01 152.833 161.155C158.946 159.712 165.457 158.05 169.596 153.616C174.235 148.656 174.703 141.524 175.565 134.981C176.427 128.439 180.662 124.511 186.929 123.122L160.244 80.9026Z" fill="#263238"/>
<path d="M243.273 237.182C243.273 237.252 193.797 237.311 132.819 237.311C71.8413 237.311 22.344 237.252 22.344 237.182C22.344 237.113 71.7934 237.053 132.808 237.053C193.824 237.053 243.273 237.088 243.273 237.182Z" fill="#263238"/>
</svg>
